<?xml version="1.0" standalone="no"?>
<!DOCTYPE svg PUBLIC "-//W3C//DTD SVG 20010904//EN"
 "http://www.w3.org/TR/2001/REC-SVG-20010904/DTD/svg10.dtd">
<svg version="1.0" xmlns="http://www.w3.org/2000/svg"
 width="691.000000pt" height="691.000000pt" viewBox="0 0 691.000000 691.000000"
 preserveAspectRatio="xMidYMid meet">
<metadata>
Created by potrace 1.11, written by Peter Selinger 2001-2013
</metadata>
<g transform="translate(0.000000,691.000000) scale(0.100000,-0.100000)"
fill="#000000" stroke="none">
<path d="M3965 5935 c-263 -58 -472 -253 -630 -590 -30 -65 -67 -134 -80 -151
-14 -18 -60 -54 -102 -80 -43 -26 -105 -69 -138 -95 -97 -77 -401 -391 -801
-829 -277 -303 -394 -443 -394 -472 0 -11 33 -10 66 2 15 6 29 9 31 6 19 -19
-103 -126 -432 -379 -411 -316 -518 -406 -570 -481 -44 -65 -54 -109 -30 -136
49 -54 199 5 725 288 415 223 560 282 758 307 128 16 443 36 454 28 5 -2 8
-13 8 -23 0 -10 10 -31 23 -47 12 -15 35 -46 49 -68 15 -22 82 -105 148 -185
194 -233 251 -330 208 -357 -7 -4 -69 -10 -138 -14 -137 -7 -170 -17 -214 -69
-25 -30 -34 -60 -18 -60 4 0 26 7 50 15 171 60 698 -2 834 -97 33 -23 48 -17
48 19 0 35 -50 78 -121 104 -120 44 -67 49 76 7 95 -27 160 -64 207 -117 46
-53 58 -46 58 35 0 37 -6 59 -21 78 -49 62 -200 111 -389 127 -175 14 -185 20
-312 175 -176 216 -216 287 -233 409 -6 46 -4 52 22 76 22 21 49 29 133 44 82
13 105 15 108 5 9 -27 84 -100 294 -287 200 -178 278 -256 278 -275 0 -5 -50
-8 -111 -8 -109 0 -111 0 -140 -30 -32 -32 -38 -79 -9 -71 71 18 119 20 240
11 245 -19 474 -60 526 -95 31 -20 34 -19 34 9 0 35 -49 72 -127 96 -36 11
-71 20 -79 20 -8 0 -14 5 -14 10 0 15 55 12 157 -9 104 -22 195 -59 234 -97
32 -30 44 -19 35 31 -10 50 -49 91 -112 114 -52 20 -105 28 -348 51 -85 8
-118 15 -150 34 -51 30 -356 304 -413 371 -68 80 -80 107 -64 152 23 65 37 78
163 153 235 140 310 194 411 296 175 178 280 342 332 520 32 110 35 233 10
409 -29 200 -11 307 76 451 76 126 178 211 362 300 31 16 57 33 57 40 0 29
-298 206 -445 263 -190 75 -421 101 -580 66z m177 -190 c6 -16 15 -32 18 -35
12 -9 123 -211 119 -215 -3 -2 -28 -5 -57 -6 -42 -2 -55 1 -67 17 -13 18 -14
18 -8 -3 5 -23 5 -23 -110 -23 -66 0 -118 4 -122 10 -7 11 45 110 58 110 4 0
7 5 7 12 0 6 25 57 56 111 l57 100 18 -24 c10 -13 24 -37 31 -54z"/>
<path d="M4081 5747 c-13 -21 -12 -21 5 -5 10 10 16 20 13 22 -3 3 -11 -5 -18
-17z"/>
<path d="M4110 5646 c0 -2 8 -10 18 -17 15 -13 16 -12 3 4 -13 16 -21 21 -21
13z"/>
<path d="M4095 5619 c-4 -6 -5 -12 -2 -15 2 -3 7 2 10 11 7 17 1 20 -8 4z"/>
<path d="M4106 5577 c3 -10 9 -15 12 -12 3 3 0 11 -7 18 -10 9 -11 8 -5 -6z"/>
<path d="M4221 5534 c0 -11 3 -14 6 -6 3 7 2 16 -1 19 -3 4 -6 -2 -5 -13z"/>
<path d="M5775 2250 c-16 -5 -36 -8 -44 -5 -7 3 -29 1 -50 -4 -20 -6 -65 -17
-101 -26 -207 -53 -360 -134 -360 -192 l0 -24 83 5 c45 2 138 10 207 16 174
16 435 9 477 -13 60 -32 73 -60 73 -158 0 -48 -4 -90 -9 -93 -5 -3 -12 -27
-16 -53 -6 -43 -53 -196 -75 -248 -5 -11 -19 -45 -31 -75 -11 -30 -32 -81 -45
-113 -27 -66 -29 -78 -13 -94 33 -33 158 78 251 222 28 44 59 92 69 107 11 15
19 31 19 36 0 5 12 36 26 68 49 111 93 264 94 329 1 22 5 48 9 58 11 30 -6
167 -23 186 -9 10 -44 26 -79 35 -34 10 -73 22 -86 27 -34 14 -340 21 -376 9z"/>
<path d="M287 2123 c-19 -19 -3 -53 46 -97 73 -67 205 -174 271 -221 31 -22
80 -58 108 -80 52 -40 107 -75 247 -157 41 -24 95 -55 120 -70 77 -45 361
-185 441 -216 41 -16 109 -44 150 -61 93 -38 277 -99 350 -117 30 -7 80 -20
110 -29 112 -33 167 -47 230 -56 36 -5 81 -14 100 -19 75 -22 410 -59 647 -70
411 -21 877 27 1298 134 33 9 87 22 120 30 51 12 310 98 455 151 235 86 656
312 774 415 67 60 68 133 1 152 -41 12 -72 5 -210 -48 -117 -45 -154 -58 -225
-83 -93 -33 -314 -103 -375 -119 -22 -6 -65 -18 -95 -27 -30 -9 -75 -21 -100
-25 -25 -5 -76 -16 -115 -25 -90 -20 -221 -44 -310 -56 -38 -6 -83 -14 -100
-19 -16 -5 -70 -12 -120 -15 -49 -3 -106 -10 -125 -16 -48 -13 -386 -31 -600
-31 -188 0 -569 17 -610 27 -14 4 -81 13 -150 20 -161 18 -397 57 -545 90 -38
9 -99 22 -135 30 -89 19 -427 113 -505 140 -43 15 -212 77 -285 105 -68 26
-146 58 -235 97 -44 19 -114 50 -155 67 -69 30 -164 78 -330 170 -61 33 -126
47 -143 29z"/>
</g>
</svg>
