<?xml version="1.0" standalone="no"?>
<!DOCTYPE svg PUBLIC "-//W3C//DTD SVG 20010904//EN"
 "http://www.w3.org/TR/2001/REC-SVG-20010904/DTD/svg10.dtd">
<svg version="1.0" xmlns="http://www.w3.org/2000/svg"
 width="256.000000pt" height="256.000000pt" viewBox="0 0 256.000000 256.000000"
 preserveAspectRatio="xMidYMid meet">
<metadata>
Created by potrace 1.14, written by Peter Selinger 2001-2017
</metadata>
<g transform="translate(0.000000,256.000000) scale(0.100000,-0.100000)"
fill="#000000" stroke="none">
<path d="M29 2148 c-1 -2 -2 -390 -3 -864 l-1 -860 162 0 c139 0 163 3 164 16
0 8 1 282 2 608 0 429 4 592 12 592 6 0 18 -15 26 -32 9 -18 39 -73 67 -121
29 -49 52 -93 52 -98 0 -5 5 -9 10 -9 6 0 10 -6 10 -14 0 -8 7 -22 16 -30 8
-9 12 -16 7 -16 -4 0 -3 -4 2 -8 10 -7 23 -29 62 -102 10 -19 21 -37 25 -40 3
-3 8 -12 10 -20 3 -14 7 -21 36 -55 7 -8 10 -15 7 -15 -4 0 3 -13 14 -29 12
-16 21 -34 21 -40 0 -6 4 -11 10 -11 5 0 9 -3 8 -7 -2 -8 21 -55 31 -63 4 -3
18 -26 31 -53 14 -26 29 -47 33 -47 5 0 6 -4 2 -9 -3 -5 -1 -12 5 -16 6 -4 8
-11 5 -16 -4 -5 -2 -9 3 -9 4 0 17 -17 28 -37 30 -56 48 -87 54 -93 3 -3 16
-25 29 -50 14 -25 28 -48 33 -51 5 -3 10 -16 11 -27 1 -12 7 -22 14 -22 7 0
12 -3 11 -7 -1 -5 5 -22 14 -38 l16 -31 172 1 c180 0 194 4 183 46 -6 21 16
26 34 8 6 -6 17 -12 24 -13 8 -2 28 -9 44 -15 17 -7 35 -14 40 -15 6 -1 16 -5
23 -9 6 -5 12 -6 12 -4 0 2 24 -1 53 -8 111 -26 328 -13 432 26 119 44 217
117 300 222 33 42 98 157 88 157 -3 0 -1 6 4 13 8 10 29 74 49 148 3 9 -1 19
-8 21 -27 9 -333 3 -334 -7 -1 -14 -12 -42 -40 -105 -48 -105 -134 -170 -248
-188 -55 -9 -138 -6 -166 5 -8 3 -19 7 -25 7 -5 1 -31 11 -56 22 -60 28 -130
102 -168 178 -31 60 -34 71 -51 150 -12 58 -3 431 10 431 1 0 4 11 6 24 10 56
74 168 123 216 28 28 56 49 61 48 6 -2 10 1 10 5 0 17 106 45 174 47 114 2
203 -28 269 -90 39 -37 97 -141 97 -175 0 -11 6 -20 13 -21 71 -4 328 1 337 6
5 3 7 12 3 18 -4 6 -8 23 -9 37 0 14 -9 45 -18 70 -10 25 -18 51 -18 58 -1 6
-4 12 -7 12 -3 0 -12 15 -20 33 -17 38 -87 131 -127 168 -129 119 -300 176
-515 173 -132 -2 -183 -7 -239 -26 -19 -7 -37 -13 -40 -13 -11 -3 -62 -26 -90
-40 l-29 -15 1 48 c0 26 0 53 -1 60 -1 9 -40 12 -161 12 -121 0 -160 -3 -161
-12 -5 -56 -3 -286 3 -299 4 -9 4 -19 1 -23 -4 -4 -8 -69 -9 -144 -1 -75 -5
-148 -8 -162 -12 -45 -19 -133 -20 -250 0 -105 3 -153 20 -262 5 -32 3 -37
-10 -32 -9 3 -16 12 -16 19 0 6 -9 22 -20 35 -11 13 -23 34 -26 47 -4 13 -10
23 -16 23 -5 0 -7 4 -4 9 3 5 -1 11 -9 15 -8 3 -15 15 -15 26 0 11 -4 20 -10
20 -5 0 -10 6 -10 13 0 8 -9 24 -20 37 -11 12 -17 27 -14 31 3 5 1 9 -4 9 -6
0 -13 11 -16 25 -4 14 -11 25 -16 25 -6 0 -10 6 -10 14 0 7 -7 19 -15 26 -8 7
-12 16 -9 21 3 5 0 9 -5 9 -6 0 -11 5 -11 11 0 6 -14 31 -30 56 -16 24 -30 51
-30 59 0 7 -4 14 -8 14 -5 0 -14 16 -22 35 -8 19 -17 35 -22 35 -4 0 -8 6 -8
14 0 7 -9 25 -20 39 -11 14 -20 32 -20 40 0 8 -7 18 -16 21 -9 4 -14 9 -11 13
4 3 -2 18 -13 33 -11 16 -20 33 -20 39 0 6 -4 11 -10 11 -5 0 -10 6 -10 13 0
7 -8 22 -17 33 -10 11 -19 26 -21 34 -2 7 -12 26 -23 41 -10 15 -19 32 -19 38
0 13 -41 74 -52 79 -5 2 -8 11 -8 20 0 10 -9 28 -20 42 -11 14 -20 30 -20 36
0 7 -7 15 -16 18 -15 6 -363 9 -365 4z"/>
</g>
</svg>
