<?xml version="1.0" standalone="no"?>
<!DOCTYPE svg PUBLIC "-//W3C//DTD SVG 20010904//EN"
 "http://www.w3.org/TR/2001/REC-SVG-20010904/DTD/svg10.dtd">
<svg version="1.0" xmlns="http://www.w3.org/2000/svg"
 width="1280.000000pt" height="1280.000000pt" viewBox="0 0 1280.000000 1280.000000"
 preserveAspectRatio="xMidYMid meet">
<metadata>
Created by potrace 1.14, written by Peter Selinger 2001-2017
</metadata>
<g transform="translate(0.000000,1280.000000) scale(0.100000,-0.100000)"
fill="#000000" stroke="none">
<path d="M2496 11729 c-371 -39 -693 -194 -962 -463 -273 -274 -420 -582 -464
-971 -13 -122 -13 -7653 0 -7785 29 -277 115 -516 271 -750 87 -131 291 -335
424 -423 230 -152 472 -239 745 -267 130 -13 7650 -13 7780 0 277 29 516 115
750 271 131 87 335 291 423 424 152 230 239 472 267 745 13 130 13 7650 0
7780 -40 386 -190 702 -464 976 -275 275 -589 424 -976 464 -118 12 -7678 11
-7794 -1z m7768 -1085 c185 -48 337 -201 381 -385 13 -56 15 -509 15 -3859 0
-3350 -2 -3803 -15 -3859 -44 -184 -196 -337 -381 -385 -56 -14 -427 -16
-3864 -16 -3437 0 -3808 2 -3864 16 -183 47 -333 197 -380 380 -14 56 -16 427
-16 3864 0 3437 2 3808 16 3864 46 180 189 326 369 377 56 17 294 18 3869 18
3444 1 3814 -1 3870 -15z"/>
<path d="M6261 9054 c-137 -37 -280 -152 -339 -274 -62 -126 -62 -123 -62
-1022 l0 -818 -817 0 c-900 0 -897 0 -1023 -62 -84 -41 -187 -142 -229 -226
-163 -323 15 -703 364 -777 58 -12 205 -15 888 -15 l817 0 0 -817 c0 -900 0
-897 62 -1023 39 -81 140 -184 224 -227 318 -168 705 12 779 362 12 58 15 205
15 888 l0 817 818 0 c899 0 896 0 1022 62 84 41 187 142 229 226 163 323 -15
703 -364 777 -58 12 -205 15 -887 15 l-818 0 0 818 c0 899 0 896 -62 1022 -62
127 -201 237 -345 275 -71 19 -201 18 -272 -1z"/>
</g>
</svg>
