<?xml version="1.0" standalone="no"?>
<!DOCTYPE svg PUBLIC "-//W3C//DTD SVG 20010904//EN"
 "http://www.w3.org/TR/2001/REC-SVG-20010904/DTD/svg10.dtd">
<svg version="1.0" xmlns="http://www.w3.org/2000/svg"
 width="4096.000000pt" height="4096.000000pt" viewBox="0 0 4096.000000 4096.000000"
 preserveAspectRatio="xMidYMid meet">
<metadata>
Created by potrace 1.11, written by Peter Selinger 2001-2013
</metadata>
<g transform="translate(0.000000,4096.000000) scale(0.100000,-0.100000)"
fill="#000000" stroke="none">
<path d="M0 20480 l0 -20480 20480 0 20480 0 0 20480 0 20480 -20480 0 -20480
0 0 -20480z m15984 2417 l3181 -5579 3 187 c2 180 1 194 -32 359 -132 651
-196 1246 -216 2023 -25 958 62 2005 230 2774 20 92 20 118 20 2956 l0 2863
1560 0 1560 0 0 -560 c0 -308 2 -560 3 -560 2 0 60 32 128 70 825 468 1741
737 2774 815 536 40 1227 25 1790 -40 753 -88 1449 -264 2055 -522 1079 -460
1932 -1183 2568 -2179 539 -843 826 -1653 898 -2531 l7 -83 -1600 0 -1600 0
-18 68 c-34 127 -163 497 -229 654 -235 564 -507 950 -881 1251 -453 365
-1009 574 -1735 654 -225 24 -761 24 -960 0 -984 -123 -1729 -574 -2322 -1409
-366 -516 -644 -1198 -803 -1971 -81 -393 -75 -226 -75 -1952 l0 -1541 25
-144 c144 -824 429 -1534 829 -2065 163 -217 419 -486 617 -648 503 -411 1031
-639 1699 -733 154 -21 657 -30 845 -15 939 77 1643 418 2172 1051 337 403
596 952 821 1740 l18 65 1583 3 1583 2 -5 -22 c-3 -13 -15 -77 -27 -143 -121
-673 -335 -1335 -624 -1930 -254 -522 -547 -970 -911 -1395 -999 -1167 -2241
-1844 -3788 -2064 -432 -62 -755 -80 -1292 -73 -622 8 -1040 51 -1590 162
-660 133 -1309 368 -1839 664 -60 34 -111 61 -113 61 -2 0 -3 -153 -3 -340 l0
-340 -1676 2 -1676 3 -3261 5673 -3262 5673 -3 -5675 -2 -5676 -1560 0 -1560
0 0 8000 0 8000 1756 -2 1756 -3 3182 -5578z"/>
</g>
</svg>
