<?xml version="1.0" standalone="no"?>
<!DOCTYPE svg PUBLIC "-//W3C//DTD SVG 20010904//EN"
 "http://www.w3.org/TR/2001/REC-SVG-20010904/DTD/svg10.dtd">
<svg version="1.0" xmlns="http://www.w3.org/2000/svg"
 width="1015.000000pt" height="1015.000000pt" viewBox="0 0 1015.000000 1015.000000"
 preserveAspectRatio="xMidYMid meet">
<metadata>
Created by potrace 1.14, written by Peter Selinger 2001-2017
</metadata>
<g transform="translate(0.000000,1015.000000) scale(0.100000,-0.100000)"
fill="#000000" stroke="none">
<path d="M0 5075 l0 -5075 5070 0 5070 0 0 5075 0 5075 -5070 0 -5070 0 0
-5075z m7486 4161 c192 -87 212 -342 56 -728 -150 -373 -389 -569 -677 -556
-188 9 -280 96 -292 279 -8 104 10 206 62 364 126 385 338 617 608 665 77 13
184 2 243 -24z m-1501 -334 l20 -344 251 344 251 343 103 3 c57 1 109 1 116
-2 12 -5 -130 -440 -362 -1113 l-56 -163 -119 0 -118 0 114 338 c62 185 112
338 111 339 -2 2 -110 -148 -242 -332 -131 -184 -242 -335 -245 -335 -4 0 -10
93 -14 208 -3 114 -9 266 -13 337 l-7 130 -116 -340 -117 -340 -116 -3 c-95
-2 -116 0 -116 12 0 8 15 58 34 113 19 54 114 330 210 613 97 283 178 521 181
528 3 9 33 12 117 10 l113 -3 20 -343z m2155 339 c0 -6 -36 -114 -79 -240 -44
-127 -76 -229 -72 -227 4 3 122 111 262 240 l254 236 133 0 c107 0 132 -3 132
-14 0 -8 -4 -16 -9 -18 -24 -9 -521 -474 -521 -488 0 -8 32 -181 70 -385 39
-203 70 -371 70 -372 0 -2 -58 -3 -129 -3 -94 0 -130 3 -133 13 -3 6 -27 135
-54 284 -27 150 -53 273 -58 273 -4 0 -39 -30 -77 -67 l-69 -68 -73 -215 -74
-215 -117 -3 c-75 -2 -116 1 -116 8 0 5 34 110 76 233 42 122 134 393 204 602
70 209 133 392 139 408 l11 27 115 0 c65 0 115 -4 115 -9z m1030 -3 c0 -6 -63
-196 -139 -423 -77 -226 -142 -432 -146 -458 -8 -55 6 -105 40 -137 40 -38
129 -40 199 -6 59 29 124 93 154 153 11 21 79 214 152 428 73 215 138 405 146
423 l13 32 110 0 c60 0 112 -4 115 -9 6 -9 -266 -810 -305 -896 -78 -175 -234
-315 -417 -372 -203 -63 -391 3 -446 157 -15 41 -18 69 -13 138 4 78 20 131
151 522 80 239 148 441 151 448 6 17 235 17 235 0z m-8097 -235 c13 -21 109
-188 213 -371 104 -183 198 -348 209 -367 11 -19 150 -262 309 -542 342 -600
322 -567 342 -584 15 -12 16 -9 10 36 -9 63 -24 202 -31 280 -12 126 -7 298
13 500 18 177 21 278 22 648 l0 437 260 0 259 0 3 -92 c3 -87 4 -93 23 -90 11
2 27 10 35 17 21 18 159 70 255 96 112 30 408 38 552 15 257 -40 462 -143 621
-311 144 -151 241 -344 258 -511 l7 -64 -267 2 -267 3 -32 85 c-38 99 -75 157
-145 222 -101 95 -227 138 -399 138 -124 0 -183 -14 -283 -66 -78 -41 -193
-153 -244 -238 -39 -65 -92 -214 -102 -291 -9 -64 -10 -584 -1 -650 18 -131
89 -275 189 -380 73 -77 144 -124 246 -163 60 -23 81 -26 197 -26 118 0 136 3
200 28 104 41 145 68 211 138 64 69 93 121 135 238 l27 75 267 3 c251 2 266 1
261 -15 -2 -10 -12 -49 -22 -88 -50 -210 -163 -405 -321 -556 -138 -132 -307
-219 -503 -259 -93 -19 -128 -21 -300 -17 -220 5 -320 24 -473 93 -127 56
-127 56 -127 -5 l0 -51 -282 0 -283 0 -250 436 c-137 240 -259 451 -270 469
-11 19 -146 253 -300 522 -154 268 -284 491 -290 495 -5 4 -13 8 -17 8 -5 0
-8 -434 -8 -965 l0 -965 -260 0 -260 0 0 1360 0 1360 295 0 295 0 23 -37z
m5757 -1972 c0 -11 -228 -679 -277 -811 -48 -130 -95 -211 -167 -288 -135
-145 -307 -211 -473 -182 -85 14 -158 53 -194 104 -35 48 -66 128 -70 185 l-4
43 106 38 c161 57 146 56 154 13 32 -170 184 -206 315 -75 63 64 38 1 285 725
l88 257 118 0 c66 0 119 -4 119 -9z m426 -8 c-14 -34 -315 -924 -366 -1078
-29 -88 -57 -166 -63 -172 -11 -15 -237 -19 -237 -4 0 5 33 107 74 228 41 120
134 394 206 608 73 215 136 400 141 413 8 21 13 22 130 22 109 0 121 -2 115
-17z m434 15 c1 -2 9 -153 20 -337 11 -183 21 -335 22 -336 2 -2 115 150 252
336 l250 339 113 0 c62 0 113 -3 113 -8 0 -12 -268 -802 -417 -1229 l-15 -43
-114 0 c-91 0 -114 3 -114 14 0 8 50 159 110 336 61 178 109 324 107 326 -1 2
-111 -148 -242 -332 -228 -320 -240 -334 -246 -305 -4 17 -10 156 -13 309 -4
152 -10 290 -13 307 -4 23 -27 -35 -114 -290 -60 -176 -113 -330 -119 -342 -9
-22 -15 -23 -119 -23 -60 0 -112 4 -115 9 -4 5 5 40 18 78 14 37 108 316 210
618 102 303 188 556 191 563 3 9 37 12 120 12 63 0 115 -1 115 -2z m1508 -635
l-3 -638 -120 0 -120 0 -3 173 -2 172 -178 0 -178 0 -80 -117 c-43 -64 -98
-143 -121 -175 l-43 -58 -115 0 c-66 0 -115 4 -115 9 0 6 102 160 226 343 124
183 316 467 426 631 l200 297 114 0 114 0 -2 -637z m-6968 -1994 c210 -30 225
-46 140 -146 -33 -38 -60 -85 -80 -135 -17 -43 -30 -80 -30 -83 0 -3 268 -5
595 -5 390 0 595 -3 596 -10 0 -5 0 -284 0 -620 0 -335 0 -617 0 -625 -1 -13
-120 -15 -1011 -15 l-1010 0 0 -90 0 -90 1349 0 c1221 0 1349 -2 1355 -16 8
-20 8 -268 0 -288 -6 -14 -134 -16 -1355 -16 l-1349 0 0 -90 0 -90 1287 0
c1113 1 1289 -1 1298 -14 8 -10 7 -58 -2 -163 -42 -500 -90 -780 -165 -962
-58 -138 -182 -235 -339 -261 -100 -17 -414 -10 -433 10 -8 8 -24 61 -36 118
-11 56 -32 133 -46 170 -43 114 -44 106 12 98 233 -32 364 -27 417 14 65 51
103 221 140 632 l5 48 -784 0 -784 0 0 -250 0 -250 265 0 265 0 0 143 c0 78
-4 169 -10 201 -5 33 -8 61 -7 62 5 5 392 -26 421 -34 47 -13 54 -34 31 -94
-18 -47 -20 -82 -23 -330 -3 -253 -5 -278 -20 -278 -9 0 -434 0 -944 0 l-927
1 -3 -93 -3 -93 -198 -3 c-153 -2 -198 0 -202 10 -2 7 -5 215 -7 462 l-3 448
110 -6 c124 -8 278 -24 312 -32 40 -10 47 -38 22 -92 -16 -35 -22 -74 -26
-159 l-6 -113 267 0 266 0 0 249 0 248 -282 -1 -283 -1 -3 1133 -2 1132 391 0
390 0 34 73 c39 85 83 223 92 285 l6 45 81 -7 c45 -4 146 -16 226 -27z m6816
-135 c67 -7 129 -16 138 -20 34 -13 37 -39 10 -125 -43 -146 -47 -324 -41
-1941 l6 -1466 -22 -6 c-29 -8 -391 -8 -411 0 -15 6 -16 158 -16 1623 0 1469
-4 1751 -26 1915 l-6 49 123 -7 c68 -4 178 -14 245 -22z m-2536 -15 c197 -20
209 -30 170 -141 -22 -62 -23 -76 -30 -743 -8 -669 -15 -832 -45 -1110 -60
-541 -216 -1026 -451 -1401 -65 -103 -91 -134 -115 -134 -9 0 -63 49 -119 109
-56 61 -127 129 -158 152 -32 24 -61 46 -65 49 -4 4 11 30 33 59 200 252 366
681 424 1096 44 307 60 721 53 1340 -5 432 -10 532 -33 699 l-6 49 118 -7 c66
-3 166 -11 224 -17z m1281 -180 c155 -15 168 -31 128 -145 -36 -106 -42 -349
-36 -1626 5 -1051 4 -1177 -9 -1182 -9 -3 -107 -6 -219 -6 -149 0 -206 3 -211
12 -4 7 -8 622 -9 1368 0 1314 -3 1458 -31 1579 l-5 24 144 -6 c80 -4 191 -12
248 -18z"/>
<path d="M7177 9014 c-79 -25 -161 -115 -230 -255 -73 -148 -107 -267 -114
-389 -4 -83 -2 -99 16 -127 35 -55 124 -65 223 -26 117 46 261 308 304 552 26
147 -1 228 -84 251 -46 12 -56 12 -115 -6z"/>
<path d="M8852 6495 c-51 -74 -92 -137 -92 -140 0 -3 43 -5 95 -5 l95 0 0 94
c0 51 3 114 6 140 4 26 3 46 -3 46 -5 0 -50 -61 -101 -135z"/>
<path d="M1430 3635 l0 -95 800 0 800 0 0 95 0 95 -800 0 -800 0 0 -95z"/>
<path d="M1430 3170 l0 -100 800 0 800 0 0 100 0 100 -800 0 -800 0 0 -100z"/>
</g>
</svg>
