<?xml version="1.0" standalone="no"?>
<!DOCTYPE svg PUBLIC "-//W3C//DTD SVG 20010904//EN"
 "http://www.w3.org/TR/2001/REC-SVG-20010904/DTD/svg10.dtd">
<svg version="1.0" xmlns="http://www.w3.org/2000/svg"
 width="260.000000pt" height="260.000000pt" viewBox="0 0 260.000000 260.000000"
 preserveAspectRatio="xMidYMid meet">
<metadata>
Created by potrace 1.14, written by Peter Selinger 2001-2017
</metadata>
<g transform="translate(0.000000,260.000000) scale(0.100000,-0.100000)"
fill="#000000" stroke="none">
<path d="M975 2460 c6 -10 3 -12 -13 -8 -12 4 -20 2 -17 -2 3 -5 1 -11 -5 -15
-5 -3 -10 1 -10 9 0 9 -5 16 -11 16 -5 0 -7 -5 -3 -11 5 -8 1 -8 -14 0 -15 8
-23 8 -28 -1 -4 -6 -3 -8 3 -5 6 4 13 0 16 -8 4 -9 1 -12 -9 -8 -19 7 -44 -15
-37 -33 3 -8 0 -20 -6 -28 -6 -7 -8 -16 -4 -20 4 -4 0 -4 -9 -1 -17 7 -19 -9
-5 -32 6 -9 3 -11 -9 -6 -12 4 -15 3 -10 -6 4 -6 2 -19 -6 -28 -7 -10 -8 -14
-1 -10 13 8 12 -18 -2 -30 -4 -4 -5 -2 0 6 6 10 4 12 -5 6 -10 -6 -9 -11 6
-22 18 -13 17 -14 -9 -9 -16 3 -25 1 -21 -5 3 -5 0 -17 -8 -26 -7 -9 -8 -14
-2 -10 7 4 14 -1 17 -12 3 -13 0 -18 -8 -15 -7 3 -16 -4 -20 -15 -4 -13 -11
-18 -18 -14 -7 3 -3 -4 7 -16 20 -22 20 -22 0 -16 -19 7 -19 6 0 -9 16 -13 17
-16 4 -16 -8 0 -21 -7 -28 -16 -8 -8 -9 -14 -4 -13 25 4 26 -3 4 -17 -14 -8
-18 -13 -9 -10 13 3 15 0 12 -15 -3 -11 -9 -22 -14 -25 -5 -3 -6 3 -3 13 5 15
4 16 -5 2 -5 -8 -11 -28 -13 -43 -3 -15 -11 -32 -19 -37 -8 -5 -9 -9 -4 -9 6
0 16 5 22 11 8 8 13 7 18 -2 5 -7 4 -10 -1 -7 -13 8 -31 -14 -28 -34 1 -11 -3
-15 -12 -11 -8 3 -11 10 -7 16 3 6 1 7 -6 3 -8 -6 -9 -12 -2 -20 6 -7 7 -17 3
-21 -4 -5 -2 -5 5 -2 13 8 12 -18 -2 -30 -4 -4 -5 -2 -1 5 4 6 2 12 -3 12 -15
0 -14 -13 2 -29 6 -8 7 -11 2 -8 -16 8 -38 -30 -23 -39 6 -4 8 -3 4 4 -3 6 -2
13 3 16 5 4 8 -2 6 -11 -1 -10 -8 -17 -15 -15 -8 2 -11 -4 -7 -18 5 -18 3 -19
-10 -8 -14 12 -15 11 -5 -9 9 -16 9 -24 0 -29 -6 -4 -8 -3 -4 4 3 6 1 14 -6
18 -7 4 -10 4 -6 -1 4 -4 3 -14 -4 -22 -6 -8 -7 -13 -2 -12 22 4 26 -2 9 -14
-19 -14 -12 -43 7 -31 7 4 8 2 4 -4 -4 -6 -13 -9 -21 -5 -11 4 -13 1 -8 -13 5
-13 3 -15 -8 -9 -11 6 -11 5 -2 -5 14 -15 6 -42 -11 -34 -6 3 -2 -2 8 -10 17
-14 17 -16 3 -16 -10 0 -14 -5 -11 -14 3 -8 0 -17 -7 -22 -8 -5 -10 -3 -4 6 5
9 4 11 -3 6 -9 -5 -9 -13 -1 -28 10 -18 9 -20 -6 -14 -12 4 -16 2 -12 -7 7
-18 -81 -15 -95 3 -8 12 -9 11 -4 -4 4 -13 2 -17 -8 -13 -7 3 -19 0 -26 -6
-10 -9 -11 -9 -5 2 6 10 4 13 -7 8 -9 -3 -21 0 -28 6 -9 9 -11 9 -7 1 4 -7 0
-15 -9 -18 -9 -3 -12 -2 -9 4 4 7 -3 9 -19 6 -17 -3 -29 1 -37 12 -10 16 -10
16 -5 0 3 -9 -2 -19 -11 -22 -11 -5 -14 -2 -9 11 6 16 6 16 -12 0 -10 -9 -23
-17 -28 -17 -5 0 -2 5 6 10 12 8 10 10 -10 7 -14 -1 -31 -7 -39 -11 -11 -7
-13 -5 -8 8 5 12 3 15 -6 9 -6 -4 -19 -8 -27 -10 -8 -1 -16 -7 -18 -13 -2 -5
-8 -8 -12 -5 -11 7 -32 -30 -22 -39 3 -4 -1 -4 -10 -1 -9 4 -19 1 -23 -5 -3
-6 -3 -10 2 -9 22 4 25 -2 7 -15 -18 -13 -18 -15 -2 -21 16 -6 16 -9 2 -22 -8
-9 -12 -18 -9 -21 3 -4 10 0 15 8 7 11 9 10 7 -7 0 -12 -5 -19 -9 -17 -5 3 -7
-8 -6 -25 1 -16 7 -29 13 -28 5 1 9 -7 7 -18 -2 -16 -1 -17 7 -5 7 10 6 19 -5
31 -12 14 -12 16 1 16 8 0 12 -4 9 -8 -2 -4 4 -12 13 -18 11 -6 13 -11 5 -11
-7 0 -10 -5 -7 -10 4 -6 10 -8 15 -5 5 3 14 -3 20 -12 10 -16 10 -16 5 3 -4
14 -1 21 9 21 9 0 13 -4 10 -9 -3 -4 0 -8 6 -8 6 0 9 -4 6 -8 -3 -5 1 -9 9 -9
8 0 12 4 9 8 -2 4 1 11 7 15 8 4 9 3 5 -4 -3 -6 2 -16 13 -22 17 -8 19 -8 15
4 -6 17 10 16 43 -2 18 -10 22 -10 17 1 -3 9 4 13 20 13 14 0 22 -4 20 -8 -8
-12 10 -10 23 3 8 8 13 8 17 0 4 -6 12 -11 17 -11 6 0 8 4 5 8 -3 5 1 9 9 9 8
0 12 -4 10 -7 -3 -4 7 -7 20 -7 22 0 24 2 13 16 -10 13 -8 12 8 -1 21 -19 39
-24 30 -10 -3 5 1 9 9 9 8 0 12 -4 9 -9 -3 -4 0 -8 5 -8 6 0 11 6 11 13 0 8 4
7 10 -3 9 -13 11 -13 20 0 6 10 10 11 10 3 0 -7 5 -13 11 -13 5 0 7 5 3 11 -3
6 6 3 21 -7 l28 -18 -13 24 c-13 25 -13 25 8 7 13 -12 22 -15 27 -7 3 5 11 7
17 4 6 -4 8 -2 5 3 -4 6 0 13 8 17 8 3 19 -3 25 -12 10 -15 10 -15 8 2 -2 10
3 21 10 23 8 3 10 -2 6 -14 -5 -14 -4 -15 4 -4 6 8 8 20 5 28 -4 9 0 11 13 6
16 -6 17 -5 6 9 -10 13 -10 18 -1 24 8 5 9 3 4 -6 -5 -9 -4 -11 3 -6 9 5 9 13
0 29 -10 21 -10 21 7 7 17 -14 18 -14 5 10 -13 24 -12 24 5 10 10 -8 16 -10
12 -3 -4 6 -3 14 3 18 13 8 13 25 -1 25 -5 0 -7 -5 -3 -12 5 -7 3 -8 -6 -3
-10 6 -10 10 2 19 8 6 14 19 12 28 -1 10 2 20 7 24 5 3 6 10 3 16 -5 8 -1 9
10 5 9 -4 14 -3 11 2 -3 5 -1 12 5 16 5 3 10 11 10 18 0 6 -7 2 -16 -9 -14
-18 -14 -17 -2 6 7 14 11 29 10 34 -2 5 3 4 10 -2 11 -8 14 -7 14 9 0 13 -5
18 -15 14 -11 -4 -11 -2 -3 8 7 8 8 18 4 23 -4 4 2 2 12 -6 18 -14 19 -14 8 7
-10 17 -9 22 4 27 9 4 14 13 10 21 -3 10 1 15 12 15 10 0 13 3 7 8 -18 13 -17
35 1 28 14 -5 15 -4 4 9 -7 8 -9 15 -5 15 4 0 1 8 -6 17 -10 11 -10 14 -1 9
20 -12 35 3 20 22 -10 12 -10 14 0 8 8 -5 12 1 13 18 2 42 3 46 15 54 17 11
25 42 11 43 -7 0 -2 4 10 9 14 6 21 16 19 27 -3 13 2 19 14 19 11 0 16 -5 12
-15 -4 -10 -1 -12 7 -6 10 6 11 3 1 -15 -10 -19 -10 -22 2 -17 9 3 15 -1 15
-9 0 -8 -6 -13 -12 -10 -6 2 -12 -2 -12 -9 0 -7 8 -10 21 -7 19 5 20 4 6 -13
-8 -10 -10 -16 -4 -12 7 4 15 0 18 -9 3 -8 2 -12 -3 -9 -5 3 -13 0 -17 -6 -4
-7 -3 -9 2 -6 6 3 16 2 24 -4 12 -7 11 -9 -5 -9 -15 0 -17 -2 -6 -9 8 -5 10
-14 6 -21 -5 -8 -4 -11 1 -7 6 3 16 2 24 -4 13 -7 12 -9 -2 -9 -10 0 -18 -4
-18 -9 0 -6 8 -8 18 -6 12 2 17 -4 17 -20 0 -13 -3 -21 -7 -19 -4 3 -5 -2 -2
-11 4 -9 12 -14 19 -11 13 5 13 -33 -1 -56 -6 -10 -4 -10 9 1 9 7 17 10 18 5
0 -5 2 -24 3 -41 2 -20 0 -30 -6 -27 -6 4 -5 -3 1 -15 14 -25 22 -28 15 -3 -4
13 -2 12 7 -3 7 -11 15 -22 18 -25 11 -9 6 -35 -9 -47 -13 -10 -11 -12 8 -8
20 4 22 2 12 -10 -10 -12 -10 -15 0 -15 9 0 9 -4 -1 -17 -10 -11 -10 -14 -1
-9 7 4 12 2 12 -4 0 -6 5 -8 13 -4 8 6 8 3 -1 -9 -16 -18 -8 -37 14 -37 14 0
14 -2 0 -15 -16 -16 -12 -45 6 -45 6 0 6 6 -1 14 -9 11 -9 16 1 22 7 4 10 3 5
-1 -4 -5 1 -17 10 -28 10 -11 12 -17 6 -13 -19 11 -16 -2 7 -26 11 -12 20 -34
20 -49 0 -15 6 -30 13 -32 9 -4 9 -6 -1 -6 -8 -1 -10 -6 -5 -13 11 -18 10 -32
-2 -40 -6 -5 -6 -8 3 -8 6 0 12 -9 12 -19 0 -11 6 -22 13 -24 6 -3 3 -6 -8 -7
-19 -1 -18 -2 2 -10 19 -8 21 -13 13 -34 -7 -20 -6 -24 5 -19 8 3 12 10 8 17
-3 6 -2 7 2 3 14 -12 15 -37 2 -37 -7 0 -5 -5 3 -10 13 -8 13 -10 1 -10 -12 0
-12 -2 1 -12 8 -7 18 -22 22 -32 6 -17 5 -17 -10 -5 -16 13 -16 12 -5 -9 7
-13 17 -20 24 -15 7 4 5 -2 -3 -12 -8 -10 -10 -16 -4 -12 7 4 17 0 24 -8 11
-13 10 -14 -3 -9 -12 4 -14 1 -10 -16 4 -16 8 -18 14 -8 5 7 9 8 9 2 0 -6 -3
-14 -7 -18 -11 -10 -12 -37 -2 -30 5 3 6 10 3 16 -4 7 -2 8 4 4 6 -4 8 -14 5
-23 -4 -11 -3 -14 5 -9 7 4 12 4 13 -1 0 -4 1 -25 3 -45 2 -25 -1 -35 -8 -31
-6 4 -5 0 1 -9 7 -8 9 -18 5 -22 -4 -4 0 -6 8 -4 10 2 14 -4 13 -17 -1 -19 -1
-19 12 -2 8 12 15 14 20 8 3 -6 1 -11 -5 -11 -7 0 -9 -7 -6 -16 3 -8 2 -13 -2
-10 -5 3 -9 -1 -9 -9 0 -8 8 -12 20 -10 15 3 16 1 8 -9 -11 -13 -5 -46 8 -46
3 0 12 -9 18 -20 9 -14 10 -21 1 -26 -7 -5 -8 -3 -3 6 6 9 4 11 -4 6 -7 -5
-10 -11 -7 -14 3 -3 1 -10 -4 -17 -7 -8 -5 -12 5 -12 8 0 11 5 8 10 -3 6 -1 7
6 3 9 -6 9 -11 -1 -24 -7 -9 -8 -13 -2 -9 6 4 20 -3 30 -15 11 -12 14 -18 7
-15 -6 4 -14 3 -18 -3 -3 -5 2 -10 12 -11 10 0 13 -3 6 -6 -9 -3 -10 -10 -3
-24 6 -10 7 -19 3 -19 -4 0 -1 -5 7 -10 11 -7 11 -10 2 -10 -10 0 -10 -3 0
-14 7 -8 17 -11 22 -8 5 3 6 0 2 -7 -6 -8 -12 -9 -20 -2 -9 8 -13 7 -13 -3 0
-8 9 -13 23 -11 17 1 21 -2 19 -16 -2 -10 3 -23 11 -30 12 -10 13 -9 8 6 -5
13 -4 16 4 11 7 -4 12 -14 12 -22 0 -8 5 -12 10 -9 6 4 8 10 5 15 -3 5 0 12 6
16 7 4 9 3 6 -3 -7 -12 12 -30 28 -28 28 3 55 18 49 26 -3 6 3 5 14 -2 12 -7
19 -17 16 -21 -3 -4 2 -5 10 -2 8 3 17 12 20 20 3 8 12 11 23 7 17 -7 17 -6 1
11 -10 9 -18 19 -18 21 0 3 8 1 18 -2 15 -6 15 -5 3 10 -12 15 -12 17 2 12 8
-4 18 -1 23 6 4 7 3 10 -2 6 -6 -3 -16 4 -24 16 -12 21 -12 21 5 7 17 -14 18
-13 12 3 -4 11 -3 16 3 12 6 -3 10 -1 10 5 0 6 5 8 13 4 7 -5 6 0 -3 11 -12
15 -12 17 -1 10 11 -6 13 -4 8 8 -4 10 -2 17 5 17 6 0 3 10 -8 22 -19 22 -19
22 0 8 18 -14 19 -14 7 8 -12 22 -11 23 9 12 13 -7 20 -8 16 -2 -3 6 0 13 6
15 10 4 10 6 1 6 -7 1 -13 6 -13 12 0 5 6 7 13 3 9 -6 9 -5 0 7 -17 21 -16 33
4 40 18 6 19 9 22 50 0 11 6 17 11 14 6 -3 10 -1 10 4 0 6 -4 11 -10 11 -5 0
-10 5 -10 11 0 5 5 7 12 3 8 -5 9 -2 5 9 -4 10 -2 17 5 17 7 0 6 5 -2 15 -11
13 -10 14 6 8 17 -6 18 -5 4 12 -12 15 -12 17 -1 10 11 -6 13 -4 8 8 -3 9 0
18 9 21 9 3 13 10 9 15 -3 5 -1 12 4 16 6 3 7 13 4 22 -5 12 -3 14 8 8 11 -7
11 -5 -1 10 -14 17 -13 18 2 13 24 -10 29 1 12 28 -15 21 -14 23 3 20 13 -3
18 3 19 20 1 13 -2 21 -7 18 -5 -3 -6 2 -3 10 3 9 11 16 18 16 6 0 4 5 -4 10
-9 6 -10 10 -3 10 6 0 10 9 8 20 -2 12 0 18 6 15 5 -4 7 -10 4 -15 -3 -5 -1
-11 4 -14 5 -3 8 14 6 39 -1 25 1 48 6 51 5 3 6 -1 3 -9 -3 -8 -2 -17 3 -20 4
-3 9 6 9 19 1 13 -2 24 -7 24 -5 0 -9 4 -9 9 0 5 10 7 23 4 18 -4 19 -3 7 6
-12 9 -13 12 -1 20 9 6 10 11 2 15 -6 4 -9 12 -5 17 3 6 12 3 21 -8 8 -10 12
-12 8 -5 -27 53 -19 100 19 106 8 1 25 11 37 22 18 15 21 16 17 3 -8 -21 41
-20 67 1 11 8 16 10 12 4 -11 -19 21 -25 38 -8 13 14 15 14 15 -3 0 -14 2 -15
9 -4 6 9 11 10 15 3 7 -12 37 -4 48 12 5 7 8 3 8 -9 0 -15 2 -17 9 -6 6 10 10
10 16 1 5 -8 13 -6 28 7 19 17 20 17 14 0 -8 -21 0 -22 20 -2 12 12 18 13 29
4 11 -9 16 -6 23 12 7 17 10 19 10 7 1 -9 5 -20 11 -23 6 -3 7 1 4 10 -5 11 0
18 14 22 14 3 19 10 15 21 -4 13 -2 13 9 -2 10 -13 17 -15 22 -8 4 7 5 12 2
12 -3 0 -1 11 4 25 6 16 6 26 -1 31 -6 4 -5 11 3 22 11 13 10 15 -5 9 -15 -5
-16 -4 -7 13 14 26 13 30 -7 24 -14 -5 -15 -4 -4 4 8 6 10 15 6 22 -5 8 -4 11
3 6 6 -3 14 -1 18 5 4 7 3 9 -4 5 -6 -3 -13 -2 -17 3 -3 6 -13 7 -23 4 -15 -6
-15 -5 -3 10 12 15 12 17 -4 11 -13 -5 -16 -4 -11 4 5 8 2 10 -9 6 -9 -4 -22
1 -31 12 -12 14 -14 15 -11 3 3 -9 -1 -16 -9 -16 -7 0 -11 4 -8 8 2 4 0 10 -6
14 -5 3 -10 2 -10 -3 0 -5 -10 -8 -22 -7 -13 1 -29 -3 -37 -9 -10 -8 -13 -8
-8 0 4 7 -8 11 -34 12 -23 1 -45 4 -50 7 -5 4 -6 -2 -3 -12 5 -15 4 -16 -5 -3
-10 13 -12 13 -21 0 -5 -8 -10 -10 -10 -5 0 6 6 17 13 24 10 10 6 10 -16 2
-16 -6 -33 -9 -38 -5 -5 3 -9 1 -9 -3 0 -5 -16 -8 -34 -9 -19 0 -33 3 -30 7 2
4 -1 11 -7 15 -7 4 -9 3 -6 -2 3 -6 2 -16 -4 -24 -7 -12 -9 -11 -9 5 0 15 -3
16 -9 7 -6 -11 -11 -10 -25 3 -15 15 -16 15 -16 -2 0 -10 -4 -14 -8 -8 -9 13
-65 13 -83 -1 -28 -22 -43 -28 -34 -14 5 8 3 11 -6 8 -8 -3 -14 -9 -14 -14 -1
-22 -17 -35 -30 -24 -10 8 -15 8 -21 -1 -4 -8 -3 -9 4 -5 17 10 15 -3 -2 -20
-8 -7 -12 -22 -9 -33 3 -13 -2 -23 -16 -31 -12 -6 -19 -15 -16 -20 3 -5 1 -11
-3 -14 -5 -3 -9 -19 -10 -36 0 -17 -7 -39 -14 -48 -11 -13 -11 -15 2 -8 8 4 4
-2 -10 -13 -14 -11 -21 -21 -16 -21 5 0 3 -6 -3 -14 -9 -11 -9 -16 0 -22 7 -4
9 -3 5 4 -3 6 -2 13 4 17 6 4 7 11 4 17 -4 7 -2 8 5 4 8 -6 9 -12 2 -20 -6 -7
-8 -16 -4 -19 3 -4 -2 -9 -11 -13 -9 -3 -13 -11 -9 -17 4 -6 0 -8 -10 -4 -11
4 -14 2 -10 -8 3 -8 10 -12 16 -8 6 3 7 1 3 -5 -4 -7 -15 -12 -24 -12 -13 0
-13 -2 4 -16 10 -8 14 -13 8 -10 -16 8 -25 -19 -12 -32 6 -6 6 -12 -3 -17 -8
-6 -10 -4 -4 5 6 9 4 11 -5 5 -10 -6 -9 -11 5 -22 16 -11 17 -13 3 -13 -9 0
-20 -5 -24 -12 -5 -7 -2 -9 7 -4 8 4 6 1 -4 -7 -20 -16 -7 -33 16 -21 6 3 0
-5 -15 -18 -28 -25 -39 -56 -16 -42 13 8 -31 -57 -45 -67 -5 -4 -3 -9 4 -12
11 -4 11 -6 1 -6 -7 -1 -10 -5 -7 -11 3 -6 -1 -7 -9 -4 -9 3 -13 11 -9 18 4 7
1 7 -9 -1 -20 -17 -29 -6 -18 22 6 17 5 27 -6 36 -12 9 -12 15 -2 27 11 13 10
15 -5 9 -11 -4 -16 -3 -12 4 4 5 1 17 -7 26 -12 15 -11 15 12 4 l25 -12 -23
20 c-13 11 -18 22 -12 26 5 3 10 12 10 18 0 9 -2 9 -8 1 -5 -9 -11 -8 -20 2
-10 11 -10 14 0 14 8 0 6 5 -5 11 -13 8 -15 14 -7 29 7 13 7 21 -2 26 -7 4 -8
3 -4 -4 4 -7 2 -12 -5 -12 -7 0 -9 10 -7 25 4 19 2 23 -7 15 -8 -7 -11 -5 -10
8 0 9 4 23 8 29 5 8 1 11 -13 8 -11 -2 -20 0 -20 6 0 5 6 9 14 9 8 0 18 5 22
12 4 6 3 8 -2 5 -6 -3 -16 3 -23 15 -7 11 -8 17 -2 13 6 -3 11 -1 11 4 0 6 -6
11 -14 11 -7 0 -20 8 -27 17 -8 10 -9 14 -2 10 6 -4 14 -3 18 3 3 5 2 10 -4
10 -6 0 -8 7 -5 15 5 12 2 14 -12 8 -17 -6 -17 -5 -5 10 9 12 10 17 2 17 -7 0
-9 5 -6 10 3 6 1 10 -5 10 -5 0 -17 17 -26 38 -9 20 -22 50 -30 65 -7 15 -10
25 -5 22 5 -3 7 4 4 15 -3 11 -9 18 -12 15 -4 -2 -8 2 -8 10 0 8 4 12 9 9 4
-3 8 0 8 5 0 6 -5 11 -11 11 -5 0 -8 4 -4 9 3 6 -3 14 -12 20 -17 10 -17 10 0
11 9 0 17 4 17 10 0 5 -7 7 -15 4 -18 -7 -20 7 -2 25 10 11 10 13 0 7 -7 -4
-13 -2 -13 4 0 6 -4 8 -10 5 -6 -4 -7 2 -1 17 6 17 4 26 -8 36 -12 11 -13 12
-1 7 10 -4 9 -2 -2 8 -10 8 -18 17 -18 20 0 4 8 4 18 1 16 -5 16 -5 0 9 -21
16 -25 42 -5 31 8 -5 8 -2 -2 9 -14 18 -26 23 -16 8 3 -5 1 -12 -4 -15 -10 -7
-9 20 2 30 14 14 7 26 -10 19 -14 -5 -15 -3 -6 5 8 9 6 17 -8 31 -11 11 -17
24 -14 29 3 5 1 11 -5 15 -13 8 -13 25 1 25 5 0 7 -5 3 -12 -4 -7 -3 -8 4 -4
6 4 9 13 6 21 -4 8 -10 12 -15 9 -5 -3 -9 0 -9 6 0 6 -5 8 -12 4 -7 -4 -8 -3
-4 5 4 6 11 9 15 7 4 -3 8 1 8 9 0 8 -3 12 -7 10 -4 -3 -16 5 -26 17 -11 12
-13 18 -6 14 8 -5 12 0 12 13 0 12 -5 21 -11 21 -8 0 -7 6 2 18 7 9 10 14 5
10 -12 -10 -39 20 -32 37 3 8 -1 21 -10 29 -9 9 -10 17 -4 21 5 3 10 12 10 18
0 7 -4 6 -10 -3 -8 -12 -10 -9 -10 13 0 20 -4 26 -12 21 -10 -6 -10 -4 0 7 15
16 16 29 1 29 -5 0 -7 -5 -3 -12 4 -7 3 -8 -4 -4 -6 4 -8 14 -5 23 4 11 3 14
-5 9 -8 -5 -10 -2 -6 8 3 9 10 13 15 10 5 -3 6 2 3 10 -3 8 -12 17 -19 20 -8
3 -12 14 -10 24 2 10 -8 32 -21 47 -24 29 -30 40 -16 31 4 -2 8 13 7 34 0 21
-4 35 -9 30 -9 -9 -56 27 -56 44 0 5 6 2 13 -9 11 -14 16 -15 22 -5 5 8 4 11
-2 7 -6 -4 -14 0 -17 9 -5 13 -9 14 -20 5 -11 -9 -14 -8 -12 6 0 10 -3 18 -9
18 -5 0 -16 4 -24 9 -10 7 -12 6 -6 -4z m-101 -48 c3 -5 -1 -9 -9 -9 -8 0 -12
4 -9 9 3 4 7 8 9 8 2 0 6 -4 9 -8z m243 -167 c0 -8 -4 -15 -9 -15 -10 0 -11
14 -1 23 9 10 10 9 10 -8z m-347 -119 c0 -3 -4 -8 -10 -11 -5 -3 -10 -1 -10 4
0 6 5 11 10 11 6 0 10 -2 10 -4z m-66 -185 c3 -5 -1 -11 -9 -14 -9 -4 -12 -1
-8 9 6 16 10 17 17 5z m230 -87 c3 -8 2 -12 -4 -9 -6 3 -10 10 -10 16 0 14 7
11 14 -7z m1076 -430 c0 -8 -19 -13 -24 -6 -3 5 1 9 9 9 8 0 15 -2 15 -3z
m-1890 -14 c0 -5 -5 -10 -11 -10 -5 0 -7 5 -4 10 3 6 8 10 11 10 2 0 4 -4 4
-10z m2455 -158 c-3 -3 -11 0 -18 7 -9 10 -8 11 6 5 10 -3 15 -9 12 -12z
m-735 -12 c0 -5 -4 -10 -10 -10 -5 0 -10 5 -10 10 0 6 5 10 10 10 6 0 10 -4
10 -10z m-1225 -59 c3 -5 2 -12 -3 -15 -5 -3 -9 1 -9 9 0 17 3 19 12 6z m1488
-32 c-8 -8 -13 -7 -18 2 -5 8 -4 10 3 5 7 -4 12 -2 12 5 0 7 3 9 7 6 4 -4 2
-12 -4 -18z m81 13 c2 -4 -5 -9 -17 -9 -17 -2 -19 0 -7 7 18 12 18 12 24 2z
m-779 -580 c-3 -3 -11 0 -18 7 -9 10 -8 11 6 5 10 -3 15 -9 12 -12z m240 -431
c-9 -8 -36 -10 -30 -2 2 4 11 8 20 8 8 0 13 -3 10 -6z"/>
<path d="M1276 1792 c-2 -4 -1 -14 4 -22 7 -11 9 -9 7 8 -1 24 -3 26 -11 14z"/>
<path d="M2150 1438 c0 -4 4 -8 9 -8 6 0 12 4 15 8 3 5 -1 9 -9 9 -8 0 -15 -4
-15 -9z"/>
<path d="M1890 1400 c0 -5 5 -10 11 -10 5 0 7 5 4 10 -3 6 -8 10 -11 10 -2 0
-4 -4 -4 -10z"/>
<path d="M2061 1106 c-9 -11 -9 -16 1 -22 7 -4 10 -4 6 1 -4 4 -3 14 3 22 6 7
9 13 6 13 -2 0 -10 -6 -16 -14z"/>
<path d="M1220 1060 c-9 -6 -10 -10 -3 -10 6 0 15 5 18 10 8 12 4 12 -15 0z"/>
<path d="M1663 798 c-1 -10 0 -18 2 -18 2 0 9 8 14 18 7 14 6 19 -3 19 -6 0
-13 -9 -13 -19z"/>
<path d="M1346 658 c3 -5 10 -6 15 -3 13 9 11 12 -6 12 -8 0 -12 -4 -9 -9z"/>
</g>
</svg>
