<?xml version="1.0" standalone="no"?>
<!DOCTYPE svg PUBLIC "-//W3C//DTD SVG 20010904//EN"
 "http://www.w3.org/TR/2001/REC-SVG-20010904/DTD/svg10.dtd">
<svg version="1.0" xmlns="http://www.w3.org/2000/svg"
 width="256.000000pt" height="256.000000pt" viewBox="0 0 256.000000 256.000000"
 preserveAspectRatio="xMidYMid meet">
<metadata>
Created by potrace 1.14, written by Peter Selinger 2001-2017
</metadata>
<g transform="translate(0.000000,256.000000) scale(0.100000,-0.100000)"
fill="#000000" stroke="none">
<path d="M22 1287 l3 -871 43 -1 c23 -1 42 2 42 7 0 5 5 6 10 3 17 -10 150
-13 150 -3 0 5 4 7 8 4 22 -13 62 -13 73 0 9 12 12 155 12 609 0 327 3 595 6
595 3 0 14 -17 23 -38 9 -20 31 -59 47 -87 17 -27 36 -61 43 -75 7 -14 15 -27
18 -30 3 -3 16 -25 29 -50 13 -25 28 -50 33 -57 5 -7 17 -27 27 -45 10 -18 26
-49 38 -68 11 -19 32 -57 47 -85 16 -27 33 -53 38 -56 5 -3 10 -10 10 -15 1
-18 32 -74 40 -74 5 0 6 -5 3 -10 -3 -6 -2 -10 4 -10 6 0 13 -11 17 -25 3 -13
12 -29 20 -36 8 -6 11 -15 8 -20 -3 -5 0 -9 5 -9 6 0 11 -4 11 -9 0 -8 59
-113 77 -136 4 -6 17 -28 28 -50 11 -22 22 -42 25 -45 3 -3 11 -16 18 -30 7
-14 18 -34 25 -45 27 -43 51 -90 49 -96 -1 -4 14 -9 33 -11 20 -2 35 0 35 7 0
6 3 7 8 0 8 -12 102 -15 102 -3 0 4 10 4 23 0 28 -9 88 -8 105 2 6 4 12 3 12
-2 0 -8 19 -9 53 -3 4 0 7 14 7 29 0 40 6 43 48 22 47 -23 77 -34 115 -43 6
-1 17 -5 22 -8 31 -17 391 -20 403 -4 4 6 14 10 22 10 8 -1 21 3 28 8 6 5 12
7 12 4 0 -4 37 12 82 35 58 29 102 62 153 112 73 73 145 172 145 200 0 9 5 16
12 16 6 0 8 3 5 7 -4 3 -2 12 4 20 6 7 8 13 4 13 -4 0 -3 6 3 13 11 13 33 87
38 131 4 27 2 28 -31 24 -19 -2 -37 1 -39 7 -3 6 -5 6 -5 0 -1 -6 -50 -9 -130
-8 l-129 1 -22 -56 c-44 -116 -95 -180 -170 -215 -55 -25 -62 -27 -125 -33
-92 -9 -145 -3 -193 22 -15 8 -31 14 -37 14 -20 0 -104 81 -138 133 -29 44
-55 109 -74 187 -9 33 -9 338 0 380 4 25 10 55 13 68 23 114 113 238 207 285
64 32 94 39 177 39 119 0 199 -32 268 -106 23 -25 43 -48 43 -51 0 -2 9 -24
19 -47 11 -24 20 -51 20 -60 0 -10 8 -19 18 -19 50 -4 319 -4 330 -1 9 3 11
14 6 35 -3 16 -8 37 -9 46 -2 9 -4 17 -5 19 -2 1 -3 5 -4 10 -14 60 -100 222
-118 222 -5 0 -8 6 -8 13 0 7 -21 30 -46 52 -25 22 -52 46 -60 53 -19 18 -163
89 -194 96 -14 3 -38 8 -55 12 -16 3 -37 8 -45 11 -8 3 -42 7 -75 8 -33 2 -62
4 -65 5 -15 6 -136 -3 -205 -15 -45 -8 -175 -53 -190 -66 -19 -18 -24 -8 -27
49 l-3 57 -167 1 -166 2 0 -292 c0 -160 -3 -318 -8 -351 -4 -33 -7 -63 -6 -67
1 -5 -1 -8 -6 -8 -4 0 -7 -37 -7 -83 0 -45 -3 -94 -7 -109 -3 -16 -3 -28 0
-28 4 0 8 -30 8 -67 1 -38 4 -79 8 -93 3 -14 7 -34 9 -45 1 -11 6 -26 10 -32
5 -8 3 -13 -5 -13 -7 0 -26 26 -43 58 -16 31 -33 59 -36 62 -3 3 -19 30 -35
60 -16 30 -31 57 -34 60 -3 3 -14 23 -26 45 -12 22 -47 84 -78 137 -31 53 -56
102 -56 107 0 6 -4 11 -9 11 -5 0 -12 9 -16 20 -3 11 -35 69 -70 129 -82 142
-115 199 -134 236 -8 17 -21 36 -28 43 -7 8 -11 17 -8 22 3 5 1 10 -3 12 -5 1
-20 23 -34 48 -61 109 -71 125 -80 131 -5 3 -92 6 -194 6 l-184 0 2 -870z"/>
</g>
</svg>
