<?xml version="1.0" standalone="no"?>
<!DOCTYPE svg PUBLIC "-//W3C//DTD SVG 1.1//EN" "http://www.w3.org/Graphics/SVG/1.1/DTD/svg11.dtd" >
<svg xmlns="http://www.w3.org/2000/svg" xmlns:xlink="http://www.w3.org/1999/xlink" version="1.1">
<metadata>
Created by FontForge 20170731 at Thu Apr 17 13:59:36 2014
 By Aleksey,,,
Created by User's name with Font.My (http://font.my)
</metadata>
<defs>
<font id="In_your_face__Joffrey__" horiz-adv-x="232" >
  <font-face 
    font-family="In your face, Joffrey! "
    font-weight="500"
    font-stretch="normal"
    units-per-em="1000"
    panose-1="2 0 6 3 0 0 0 0 0 0"
    ascent="800"
    descent="-200"
    x-height="711"
    cap-height="721"
    bbox="24.4286 -203.909 627 782.154"
    underline-thickness="50"
    underline-position="-200"
    unicode-range="U+0020-201D"
  />
<missing-glyph horiz-adv-x="364" 
d="M33 0v666h265v-666h-265zM66 33h199v600h-199v-600z" />
    <glyph glyph-name=".notdef" horiz-adv-x="364" 
d="M33 0v666h265v-666h-265zM66 33h199v600h-199v-600z" />
    <glyph glyph-name=".null" horiz-adv-x="0" 
 />
    <glyph glyph-name="nonmarkingreturn" horiz-adv-x="333" 
 />
    <glyph glyph-name="space" unicode=" " horiz-adv-x="425" 
 />
    <glyph glyph-name="exclam" unicode="!" horiz-adv-x="116" 
d="M67 -11q9 -6 10 -19q9 -3 13 -11.5t1 -17.5l-3 -9q-5 -13 -20 -17t-26 4q-16 12 -16 29q-1 12 6 25l4 7q4 8 13.5 10.5t17.5 -1.5zM70 684v-11q0 -10 1 -20q1 -13 2 -28q0 -13 1 -31q1 -19 2 -40.5t1 -43.5t-1 -47v-54q0 -30 -1 -58q-1 -29 -2 -59q0 -31 -2 -61
q-1 -30 -0.5 -59t3.5 -75l3 -48q0 -9 -6 -16t-15.5 -7.5t-16.5 5.5t-7 15l-3 48q-3 48 -3 77q-1 31 0 62q2 30 3 60q0 30 1 59q1 28 1 57v55q1 25 1 46t-1 42t-2 39q-1 20 -1 34q-1 13 -2 23q-1 13 -1 25v11q0 9 6.5 16t16 7t16 -7t6.5 -16z" />
    <glyph glyph-name="quotedbl" unicode="&#x22;" horiz-adv-x="247" 
d="M175 555q-3 1 -6 3l-7 6q-14 11 -17 25q-3 16 8 31q7 9 19 11.5t20 -2.5q17 -6 25 -25q5 -15 5 -28q0 -10 -1 -21q-2 -11 -4 -21t-5 -23l-4 -12q-2 -9 -10 -14t-17 -2.5t-14 10.5t-2 17l3 13q3 11 5 21q1 5 2 11zM93 586q4 -13 5 -25t1 -22t-2 -25q-2 -13 -4 -25l-2 -12
q-1 -9 -8.5 -14.5t-17 -4t-15 9t-3.5 16.5l2 12q2 11 3 25q2 11 2 18q0 8 -1 17q0 5 -1 9q-11 2 -19 8q-11 8 -7.5 25t16.5 21q15 4 29 -4q16 -1 21 -15q3 -6 1 -14z" />
    <glyph glyph-name="numbersign" unicode="#" horiz-adv-x="184" 
d="M129 325l-8 6q-6 5 -10 6h-4q-4 -2 -11 -9q-9 -8 -11 -12q-3 -6 -5 -12t-2 -20t2 -18q2 -8 5.5 -14t12.5 -20q11 -15 17 -24l10 -15q6 -7 12 -21q6 -12 9 -22q2 -9 4 -20q2 -12 0 -30q-3 -18 -6 -27q-2 -8 -4 -15q-3 -9 -8 -21t-14 -24q-13 -13 -36 -17q-22 -4 -35 0
l-8 3q-8 2 -11.5 9t-1.5 15t9 11.5t15 1.5l8 -2q4 -2 17 0q10 2 13 5q5 6 8 14q5 10 6 15q2 8 5 17q2 6 4 20q2 12 1 19q-2 8 -4 15t-7 17q-4 10 -8 14q-4 7 -11 16q-5 9 -16 24q-10 16 -14.5 24t-8.5 18q-4 12 -4 33q0 19 3 29t7 19q6 11 21 25q15 13 27 17q13 3 26 -1
q9 -3 20 -11l9 -5q6 -5 7.5 -13t-3 -14.5t-12.5 -8t-15 2.5zM67 461l11 4q1 1 3 2q-2 9 -3 17q0 8 -1 17q-1 10 -1 39v123q0 11 2 23l1 6h-5q-7 0 -7.5 9.5t3 19.5t6.5 10q12 1 22 1q11 -1 19 -3l6 -2q8 -1 12.5 -8t2.5 -15q-4 -16 -20 -15l-2 -8q-1 -9 -1 -18v-123
q0 -28 1 -36q1 -9 1 -16l2 -14l1 -3q3 0 5 1h9q8 0 14 -5t6.5 -13t-5 -14t-13.5 -7h-9q-9 -1 -20 -1q-7 0 -15 -3l-11 -4q-7 -3 -14.5 0.5t-10.5 10.5t0.5 14.5t10.5 10.5z" />
    <glyph glyph-name="dollar" unicode="$" horiz-adv-x="291" 
d="M152 757l-1 -12q-2 -11 -2 -23q-1 -11 0 -39q4 1 8 1q19 0 38 -10q18 -9 26 -20q7 -8 12 -17q4 -8 7 -16l3 -7q3 -8 -0.5 -17t-12 -12.5t-17.5 0.5t-12 12l-3 7q-2 6 -5 12q-3 5 -7 10q-3 3 -12 8t-15 5q-4 0 -10 -2q1 -15 1 -27q1 -24 3 -53q1 -29 3.5 -89t3.5 -89
q0 -14 2 -35l4 -4q10 -10 28 -30.5t25 -29.5q7 -10 13 -20t14 -27t11 -26q4 -9 6 -18q1 -9 3 -23q1 -16 0 -25q-1 -7 -2 -13q-2 -10 -8 -23t-15 -25t-19 -21q-10 -8 -23 -14q-11 -6 -24 -9q1 -5 1 -6q0 -18 3 -51l3 -34q1 -9 -5 -16.5t-15 -8.5t-16 5t-8 16l-4 33
q-3 34 -3 53q-6 -1 -11 -2l-10 -1q-9 -1 -16.5 4.5t-8.5 15t4.5 16.5t15.5 9l9 1q7 1 16 2q-1 8 -1 17q-1 42 -2 66q-1 25 -2 52t-5 84q-1 18 -2 34q-2 1 -3 2q-9 10 -25 30q-16 19 -24 30q-9 11 -17 23q-9 14 -14 26q-5 13 -8 32q-3 20 -2 32q1 11 2 21q1 11 6 34t10 36
t12 23q6 9 19 24q13 17 23 24q3 3 7 5v4q-1 39 0 53q0 14 2 27l1 12q1 9 8.5 14.5t16.5 4.5t15 -8t5 -17zM166 273q3 -42 4 -65q1 -26 2 -50q1 -25 2 -67v-8q3 1 5 2q8 4 14 9t12 13t10 17q4 7 4 11q1 7 3 13q0 4 -1 14q-1 11 -2 17q-2 6 -4 13q-3 7 -10 22q-7 16 -11 23
q-5 8 -11 16q-5 6 -17 20zM114 398q-1 27 -3 68q-2 60 -3 89q-2 27 -3 51q-9 -12 -13 -18q-4 -5 -7 -13q-3 -9 -8 -30q-4 -21 -5 -30l-2 -18q0 -7 2 -22q2 -14 5 -22q4 -9 10 -18q7 -11 14 -21q5 -6 13 -16z" />
    <glyph glyph-name="percent" unicode="%" horiz-adv-x="450" 
d="M362 112q-3 -5 -5 -11q-2 -8 -2 -15q0 -4 2 -10q2 -2 8 -3t8 0q6 5 7 9q1 5 0 15q0 5 -2 6l-12 6q-2 1 -4 3zM388 148l11 -6q22 -12 26 -39q2 -20 -3 -35q-6 -17 -20 -29q-20 -16 -47 -10t-37 26q-9 16 -8 32q0 14 4 28q4 13 9 21q6 10 17 21l9 9q7 7 16.5 7t15.5 -7
q7 -7 7 -18zM365 559l-14 -24q-14 -24 -22 -43q-9 -20 -19.5 -41t-33.5 -69q-25 -49 -39 -74q-13 -25 -24 -49q-11 -25 -34 -71q-22 -46 -30.5 -65.5t-15.5 -37.5q-8 -19 -20 -54l-12 -34q-3 -9 -11.5 -13t-17.5 -1t-13 11.5t-1 17.5l13 34q12 35 19 55q8 19 17 39.5
t31 67.5q23 46 34 70q11 25 26 51q13 25 37 73q24 49 34 69t19 39q9 21 24 46l13 25q5 8 14 11t17 -1.5t10.5 -14t-1.5 -17.5zM89 572q-4 -8 -7 -16q-4 -11 -7 -22q-3 -10 -4 -18q-1 -6 -1 -11q0 -3 2 -6q0 -1 3 -2q3 -2 8 -2q7 0 13.5 2.5t13.5 8t10 10.5q5 8 8 14q1 2 1 4
t-3 6q-3 7 -9 14q-5 5 -10 7l-9 3q-5 3 -9 8zM122 603q2 0 2 -1q14 -5 26 -18q10 -11 17 -24q7 -14 7 -26t-6 -24q-4 -7 -9 -17q-8 -12 -21 -22.5t-26.5 -15.5t-28.5 -5q-17 0 -31 8t-20 21q-5 10 -7 22q-1 10 1 21t5 24q4 13 8 25q5 14 12 26q10 16 30 23l11 4q9 3 17.5 -1
t11.5 -12q1 -3 1 -8z" />
    <glyph glyph-name="ampersand" unicode="&#x26;" horiz-adv-x="207" 
d="M37 55l9 3q12 4 30 1q16 -3 25 -8q8 -4 22 -18q13 -14 19 -21q6 -9 11 -29q6 -18 7 -29t-2 -33.5t-7 -33.5t-12.5 -26t-14.5 -23q-4 -7 -14 -20l-9 -15q-4 -5 -10.5 -6.5t-12.5 2.5q-10 6 -7 18q-6 0 -11.5 4t-6.5 11v7q-1 8 -1.5 17t-1.5 22t-1 21q-1 9 0 30v29v60v7
l-3 -1q-6 -2 -12 1t-8 9.5t1 12.5t10 8zM34 366q11 10 23 0h1q7 0 12 -4.5t6 -11.5v-10q4 -9 9 -28q6 -20 8 -31t7 -33q5 -20 8 -27q5 -10 8 -20q2 -8 7 -22q2 17 3 29q1 18 8 49q7 30 8 39q1 10 2 17.5t3 19.5q1 8 2 17l1 10q0 7 5.5 11.5t12 4t11 -6t4.5 -12.5l-1 -10
l-2 -20q-2 -11 -3 -18t-2 -17q-2 -11 -9 -42q-6 -29 -7 -45q-2 -17 -5 -44q-4 -28 -6 -39q-1 -3 -7 -9.5t-14.5 -9.5t-15.5 10q-3 7 -8 21t-10 31q-6 17 -9 27q-2 8 -6 15q-2 5 -4 12q-1 -9 -1 -20q0 -24 -1 -34v-14t1 -15l1 -12q1 -6 -3 -11.5t-11 -6.5t-12.5 3t-5.5 11
l-2 11q-1 12 -1 20v16q1 10 1 32q0 24 2 38q2 12 2 37v37q0 8 -1 20q-1 3 -4 5l-5 6q-5 5 -5 12t5 12zM37 427v20q0 9 1.5 23.5t8.5 54.5q8 39 12 59q3 19 7 38t7 44l4 36t1 14q0 11 16.5 7.5t17.5 -8.5q1 -8 2 -19q2 -12 5 -44t4 -50l2 -34q2 -16 7 -48q4 -30 5 -39
q3 -11 4 -19t3 -22t3 -22v-8q1 -7 -3.5 -12t-11.5 -5.5t-12 4t-6 11.5v7q-1 8 -2 21q-2 13 -4 21q-1 6 -2 15h-7q-14 -1 -26 -3h-2v-2q-1 -13 -1 -20v-20q0 -7 -5 -12t-11.5 -5t-11.5 5t-5 12zM86 -160q7 12 11.5 18t12 19t10.5 21t5.5 27t1.5 26q-1 8 -5 23q-4 14 -7 19
q-4 5 -15 16t-15 13q-1 1 -3 1v-5v-60v-30q-1 -20 0 -27q0 -8 1 -21t1.5 -22t1.5 -16v-2zM77 503q10 1 21 2h2q0 5 -1 11q-4 32 -6 49q0 1 -0.5 4t-1 5.5t-0.5 3.5q-4 -20 -11 -59q-2 -8 -3 -16z" />
    <glyph glyph-name="quotesingle" unicode="'" horiz-adv-x="134" 
d="M62 606q-15 -5 -25 7l-6 6q-8 12 -5 26t14 20q21 11 39 -2q12 -9 20 -27q7 -15 9 -25q1 -8 2 -17q0 -9 -1 -19q-1 -9 -4 -21q-3 -13 -7 -23q-5 -10 -10 -17q-4 -7 -9 -14q-4 -5 -6 -9l-2 -7q-4 -8 -12.5 -11.5t-17 0t-12 12.5t-0.5 17l3 7q4 9 10 17q5 7 9 12q3 5 6 12
q3 6 5 15t3 15v11l-2 12q0 1 -1 3z" />
    <glyph glyph-name="parenleft" unicode="(" horiz-adv-x="218" 
d="M181 678l-8 -11q-7 -10 -19 -33q-13 -23 -19 -38q-7 -16 -15 -36q-7 -18 -18 -65q-11 -49 -17 -74q-5 -24 -9 -49q-3 -25 -5 -50q-1 -26 -1 -76q0 -48 5 -76q5 -29 12 -58q7 -28 43 -102q35 -75 47 -93l13 -20q5 -7 3 -16.5t-10 -14.5t-17 -3t-14 10l-13 19
q-13 21 -50 98q-37 79 -45 111q-8 31 -13 62q-6 31 -6 83t1 78q2 28 6 55q4 26 9 51q6 26 17 75q12 50 20 72q8 20 16 37q7 17 20 42t22 37l8 11q6 8 15 9.5t16.5 -4t9 -15t-3.5 -16.5z" />
    <glyph glyph-name="parenright" unicode=")" horiz-adv-x="214" 
d="M95 693l3 -7q3 -7 10 -21q8 -15 17 -38t19 -54t22.5 -94.5t15.5 -97.5q3 -33 5 -63q2 -31 2 -60q0 -30 -3 -61q-3 -32 -21 -91q-16 -59 -28 -88q-11 -27 -23 -55q-12 -27 -22.5 -55.5t-16.5 -50.5l-6 -23q-2 -9 -10.5 -13.5t-17 -2t-13.5 10.5t-2 17l6 23q6 23 17 53.5
t23 58.5q12 27 23 54t27 83t19 84q3 29 3 56q0 28 -2 57q-1 29 -5 61q-3 32 -15 93.5t-21 90.5q-9 28 -18 50l-15 35q-8 16 -11 23l-3 7q-4 9 -0.5 17.5t12 12t17.5 0.5t12 -12z" />
    <glyph glyph-name="asterisk" unicode="*" horiz-adv-x="388" 
d="M119 403l4 10q3 9 6 16q2 8 5 14q2 6 4 13l7 21q4 11 7 22l4.5 4.5t9 8t12.5 8t12.5 -0.5t10.5 -14q4 -9 6 -20q1 -9 3 -17q1 -10 3 -20q1 -8 3 -15q1 -4 2 -9q6 1 14 2q20 5 29 7q10 3 16 5t19 5q12 4 21 6q13 4 22 4q18 1 22.5 -11t0.5 -23l-5 -12q-9 -14 -20 -24
l-19 -19q-12 -11 -27 -23q-6 -5 -11 -9q4 -6 9 -12q6 -4 8 -10q15 -16 24 -27t16 -19q10 -10 15 -22q5 -10 8 -18q6 -18 -10 -26.5t-25 -5.5q-12 4 -26 15q-11 7 -27 15q-17 10 -25 15q-7 4 -19 12q-13 8 -18 12q-7 -9 -15 -16q-7 -6 -17 -17q-11 -11 -25 -23
q-15 -13 -29 -22q-20 -13 -34 -11q-31 3 -22 46q5 20 10 30q4 7 6 14q4 8 8 15q3 7 9 18q3 5 5 11q-8 3 -13 5q-10 4 -22 12q-12 7 -22 15q-9 7 -16 12q-13 12 -5 28t20 17q10 1 19 2q7 0 19.5 1t25.5 4q3 0 7 1zM126 241h-2q0 -1 -1 -2q2 1 3 2z" />
    <glyph glyph-name="plus" unicode="+" horiz-adv-x="223" 
d="M32 285q-2 16 12 24q4 3 9 4q6 2 11 0q10 2 16 2q7 2 25 4t27 2h8q9 0 15.5 -7t6.5 -16t-6.5 -15.5t-15.5 -6.5h-8q-7 0 -22 -2q-17 -2 -23 -3h-2v-1q1 -9 1 -21q-1 -10 -1 -22v-41v-37q9 1 21 3q15 3 22 4l6 1q10 1 17 -5t8 -15t-4.5 -16.5t-15.5 -8.5l-6 -1
q-5 0 -18 -3q-15 -3 -27 -4l2 -28q1 -16 2 -30t3 -38t3 -32t3 -16l2 -10q2 -9 -3.5 -16.5t-14.5 -9.5t-16.5 3t-9.5 14l-2 10q-2 10 -3 20q-1 8 -3 33q-3 25 -4 38.5t-2 29.5t-3 33v11q-4 6 -3 14q0 3 2 7v2q-1 17 -1 47v41t1 24v15q-1 2 -1 6q-7 5 -8 13zM119 706
q-2 -1 -4 -1l-7 -1q-1 0 -1 -1q-6 -7 -10 -13q-3 -5 -5 -10q-2 -7 -8 -26q-5 -17 -6 -26q-1 -11 -2 -24t-1 -26q0 -16 -1 -30q-1 -13 -3 -38q-2 -24 -1 -34q1 -12 2 -23q1 -9 2 -16t3 -13q1 -5 8.5 -14.5t11.5 -11.5q2 -1 3 -1q6 1 13 3q5 1 12 7t9 9q3 5 4 12q3 9 7 31
q5 22 5 29q0 10 1 21q1 10 2 21t1 31.5t-1 30.5t-2 19l-2 20q-2 10 -3 18q-1 5 -4 17q-3 11 -7 18q-5 8 -10 15zM128 743q16 5 25 -7l7 -9q8 -10 14 -21q7 -12 12 -28q3 -15 5 -23l2.5 -17.5t2.5 -20.5q1 -11 2 -22.5t1 -33.5t-1 -34t-2 -23q-1 -9 -1 -18q0 -11 -6 -36
q-4 -23 -7 -33q-3 -12 -8 -22q-6 -11 -21 -23q-14 -12 -28 -16q-11 -3 -22 -4q-15 -1 -28 6q-11 7 -25 24q-13 17 -16 28q-3 9 -5 19q-1 10 -2 22q-1 10 -2 21q-1 14 1 41q2 25 3 39q1 12 1 26q0 15 1 29t2 26q2 13 8 34l9 27q3 10 8.5 19t13.5 19q12 15 30 17l8 1
q11 1 18 -7z" />
    <glyph glyph-name="comma" unicode="," horiz-adv-x="159" 
d="M87 9q-5 -7 -14 -9t-17 3l-7 5q-15 11 -17 30q-1 15 5 27q8 14 23 19q13 5 26 1q16 -3 29 -22q10 -15 13 -27q3 -8 5 -17q3 -13 1 -23l-2 -14q-1 -8 -4 -19q-4 -11 -9.5 -20.5t-15.5 -20.5q-9 -10 -17 -17l-14 -14l-8 -9q-6 -7 -15.5 -7t-16.5 6t-7 15.5t6 16.5l8 8
q9 10 17 18q7 5 14 13q6 8 9.5 13.5t5.5 11.5q2 7 3 12q1 6 2 13q0 2 -1 7v2z" />
    <glyph glyph-name="hyphen" unicode="-" horiz-adv-x="380" 
d="M49 311h8q8 -1 15 -1t21 -0.5t30 -0.5q15 -1 34 0q18 0 38 1q18 0 39 1q22 1 42 3q21 1 38 2l18 1q9 1 16 -5.5t7.5 -15.5t-6 -16t-15.5 -8l-17 -1q-17 -1 -38 -2q-23 -2 -42 -3q-22 -1 -42 -1q-19 -1 -38 -1q-19 -1 -35 -0.5t-30 0.5q-14 1 -22 1t-15 1h-9q-9 1 -15 7.5
t-6 16t7 16t17 5.5z" />
    <glyph glyph-name="period" unicode="." horiz-adv-x="108" 
d="M57 54h2h3q9 -1 15.5 -8t6.5 -16l-1 -8q0 -18 -14 -29q-7 -8 -24.5 -4.5t-19.5 20.5q-1 10 2 22l2 8q3 8 11 13t17 2z" />
    <glyph glyph-name="slash" unicode="/" horiz-adv-x="405" 
d="M375 660l-10 -11q-8 -11 -17 -25q-10 -16 -19 -32q-9 -17 -21 -40q-12 -24 -39 -85t-43 -96q-15 -34 -30 -67q-14 -31 -30 -67q-15 -33 -37 -89q-21 -56 -29 -78q-7 -21 -16 -45q-8 -23 -12 -33l-3 -11q-4 -8 -12.5 -12t-17 -1t-12.5 12t-1 17l4 11q4 10 12 32
q9 25 15 45q8 22 30 79q22 58 38 92q15 33 30 67q15 33 30.5 67t42.5 96q28 61 40 86q12 24 21.5 41.5t19.5 34.5q11 17 22 29l9 12q6 7 15.5 8t16.5 -5t8 -15.5t-5 -16.5z" />
    <glyph glyph-name="zero" unicode="0" horiz-adv-x="290" 
d="M150 661l-5 -6q-8 -11 -13 -22q-6 -12 -10.5 -23.5t-9 -26t-14.5 -46.5q-10 -29 -13 -47q-4 -19 -7 -41q-3 -20 -4 -40q-2 -21 -3 -61t-1 -59q0 -18 1 -36l2 -38q1 -18 6 -47q5 -31 7 -45q1 -11 4 -20q3 -11 6 -19t11 -22q7 -12 13 -19t14 -13q3 -2 5 -2q2 1 7 5
q8 6 11 13q5 9 10 20q5 13 18 41q12 27 16 41q5 13 8 28q4 15 6 48q2 36 3 56q2 20 2 39t-1 65q-2 46 -2 66q0 18 -1 36.5t-4 51.5q-2 33 -4 46t-7 33q-5 22 -7 27t-5 12q-4 7 -10 17q-2 3 -5 5l-9 -10q-6 -6 -15 -7zM137 704l5 6q21 23 47 12q16 -8 27 -25q9 -12 13 -21
t7 -16.5t9 -31.5q6 -23 8 -38q1 -15 4 -48q3 -34 4 -53t1 -39q0 -19 2 -65q1 -46 1 -66q0 -21 -2 -42q-1 -21 -4 -56q-2 -37 -6 -54q-3 -18 -9 -34q-5 -16 -18 -44t-18 -40q-5 -13 -11 -24q-7 -14 -21 -26q-16 -14 -32 -16q-18 -2 -36 11q-12 8 -21 19q-10 10 -20 28
q-9 16 -13 27q-4 10 -7 22q-4 13 -6 28l-7 42q-5 32 -6 52q-1 19 -2 39q-1 19 -1 38t1 61q1 40 2.5 62t5.5 44q3 23 7 42q3 21 14 53q10 31 15 46q5 16 10 29t11 26q7 15 18 30l10 13q6 9 18 9z" />
    <glyph glyph-name="one" unicode="1" horiz-adv-x="174" 
d="M27 18q4 8 12.5 11t16.5 0q0 5 1 12q1 13 1 21l2 18t2 20t2 23t2 26q0 15 2 31q1 14 3 51q2 36 3 55q0 18 2 37q2 23 3 44t4 42q2 19 4 40.5t4 40.5q1 18 2 55t0 52v2l-6 -10q-7 -10 -9 -17l-4 -10q-3 -8 -12 -12t-17.5 -0.5t-12 12t-0.5 17.5l4 9q4 12 13 25q6 10 12 21
q6 14 10 22q5 10 8 17q2 5 3 9q5 16 16 15t21 -8t11 -9q3 -11 4.5 -23t2.5 -28q0 -15 1 -30q1 -16 0 -54.5t-2 -58.5q-2 -18 -4 -41q-2 -22 -5 -42q-2 -19 -3 -39q-2 -21 -3 -44q-2 -18 -2 -35q-1 -19 -3 -56.5t-3 -53.5q-2 -14 -2 -27q-1 -15 -2 -28t-2 -24.5t-2 -20.5
t-2 -17t-1 -20q-1 -10 -1 -15q5 0 12 1l12 1q9 1 16.5 -4.5t8.5 -15t-5 -16.5t-15 -8l-12 -2q-13 -1 -21 -1h-15q-10 0 -19 1q-10 2 -19 6l-6 3q-8 4 -11.5 12.5t0.5 17.5z" />
    <glyph glyph-name="two" unicode="2" horiz-adv-x="246" 
d="M41 698l7 7q10 11 20 16q11 5 33 4t33 -7q10 -5 18 -14q8 -7 15 -17.5t13 -23.5t12 -43q6 -29 7 -47t1 -33t-1 -32t-6 -53q-6 -35 -10 -53q-4 -16 -9 -34t-9 -35q-5 -18 -14 -54q-9 -37 -15 -56t-10 -35q-4 -18 -9 -34t-13 -44t-12 -40t-7 -22q-2 -10 -5 -19
q-2 -7 -5 -19h9q16 -1 23 0q8 0 14 1t20 2q15 2 30 1q14 -1 22 -2h8q9 -1 15 -8t5.5 -16.5t-8 -15.5t-16.5 -5l-8 1q-7 0 -20 1q-12 0 -24 -1q-13 -1 -19 -2q-7 0 -15 -1q-9 -1 -29 0q-18 0 -28 1q-11 0 -21.5 10.5t-6.5 24.5q2 8 5 21q4 12 6 20q2 9 5 18q3 11 8 26
q3 10 11 36q8 28 13 44q4 16 8 33q5 18 11 37t15 54q10 42 13 54q5 18 9 36q5 17 9 33t9 49t6 48q1 16 1 30t-1 30q-1 15 -6 41q-5 25 -9 34t-9 16t-10 12q-3 3 -7 5t-13 2h-13q-3 -2 -6 -5l-6 -7q-7 -7 -16 -7.5t-16 5.5t-7.5 15.5t5.5 16.5z" />
    <glyph glyph-name="three" unicode="3" horiz-adv-x="188" 
d="M50 724l12 -1q15 -2 30 -7q17 -7 30 -21q11 -13 16 -22q4 -7 8 -17.5t7 -23.5q3 -12 5 -22q2 -11 4 -33q1 -22 1 -33q0 -10 -2 -22q-1 -11 -3.5 -21.5t-7.5 -30.5q-6 -21 -11 -32l-8 -18q-4 -10 -15 -27q-10 -17 -18 -29t-17 -27q-6 -9 -9 -14q4 -5 10 -12q12 -12 20 -21
q9 -10 15 -18q4 -7 12 -20q8 -15 11 -23q3 -7 9 -26t8 -28l2 -14q2 -8 1 -28q-2 -18 -4 -30q-2 -11 -6 -26q-5 -18 -12 -29q-4 -8 -9 -16q-6 -10 -15 -20q-8 -8 -18 -19q-12 -13 -26 -20l-10 -5q-8 -4 -17 -1t-13 11t-1 17t11 13l10 6q7 3 14 10q10 11 17 19q6 6 9 12
q5 8 10 17q3 5 6 16q4 14 6 24q2 9 3 24t0 18q-1 6 -2 13q-1 5 -7 22l-8 24q-2 5 -9 17q-6 12 -10 18q-3 4 -10 11q-8 9 -19 20q-13 14 -19 24q-10 19 -2 35q4 7 14 23t18 28q7 12 17 27q9 14 12 22q4 9 8 19q4 7 8 24q5 19 7 28t4 19q1 10 1 17q0 8 -1 28q-2 20 -3 28
q-2 9 -5 20q-2 10 -5 18t-6 13q-2 4 -10 13q-6 6 -12 9q-9 3 -19 4l-12 1q-9 1 -15 8.5t-5 16.5t8.5 15t16.5 5z" />
    <glyph glyph-name="four" unicode="4" horiz-adv-x="267" 
d="M186 696q14 -9 9 -25l1 -6q4 -17 5 -49q1 -29 1 -48t1 -40q0 -20 1 -45q1 -26 1 -78q0 -51 1 -75q1 -26 2 -73v-34l10 1q9 1 16.5 -5t8.5 -15t-5 -16.5t-15 -8.5l-15 -2q0 -15 -1 -30v-55t1 -48q1 -14 2 -29q1 -16 1 -23v-7q0 -9 -7 -15.5t-16 -6.5t-15.5 6.5t-6.5 15.5
v7q0 6 -1 20q-1 15 -2 28q-1 14 -1 52v57q1 10 1 21h-1l-9 -1q-10 -2 -19 -3h-18t-29 4q-19 3 -28 6q-12 4 -21 14q-13 13 -13 30q0 8 2 19q2 8 5 24q3 17 5.5 27.5t6.5 23.5q3 14 14 48t16 52t9 37q4 21 15 61q11 38 14 55q4 18 11 44q6 28 11 39q4 11 7 18q3 6 8 13
q2 11 13 16q12 7 24 -1zM163 218v38q-1 47 -2 72t-1 77q0 51 -1 76q-1 26 -1 47q-1 17 -1 33v-3q-4 -18 -15 -58q-11 -39 -15 -58q-4 -20 -10 -39.5t-16 -53.5q-11 -33 -14 -46t-5.5 -23t-5.5 -25q-3 -17 -5 -25q0 -5 -1 -9q3 -2 4 -3l20 -4q17 -3 23 -3h14l14 2l9 2h2
q4 2 7 3z" />
    <glyph glyph-name="five" unicode="5" horiz-adv-x="239" 
d="M82 676v-7q0 -9 -1 -21q-1 -10 -1 -38q-1 -29 -1.5 -48.5t-1.5 -37.5q-1 -17 -1 -34q-1 -18 -2 -48t-1 -41v-22v-8q8 4 16 5q19 3 36 -6q14 -6 25.5 -16t20.5 -22q9 -13 17 -31q7 -16 10 -24q1 -4 5 -15q2 -8 4 -17q3 -9 4 -26q1 -15 2 -23q2 -10 1 -20q0 -9 -1 -18
q-1 -10 -3 -26q-3 -16 -5 -24q-2 -10 -6 -20q-3 -7 -11 -24q-9 -20 -21 -31q-9 -9 -21 -19q-13 -11 -26 -16q-12 -5 -23 -7q-13 -3 -26 -3h-12q-9 1 -15.5 7.5t-6.5 16t7 16t16 5.5h11q9 0 16 2q8 1 16 5q7 2 15 9q10 9 18 16q6 5 12 18q7 16 10 23q2 5 3 10q2 8 4 23
q3 14 3 22q1 9 1 17q1 7 0 13l-3 24q-1 13 -2 19l-4 14l-5 15q-2 6 -8 20t-12 22q-6 9 -13.5 15t-15.5 10q-5 2 -10.5 1.5t-8.5 -3.5q-4 -4 -7 -10q-5 -11 -9 -18q-2 -5 -13.5 -8t-22 1.5t-10.5 16.5v18q0 12 1 28q2 14 2 23v22q0 13 1 43q1 29 2 47q0 18 1 36q1 17 1.5 36
t1.5 48q0 30 1 41q1 10 1 17q0 8 1 20l1 13q0 9 7 15t16 6q5 0 8 -2q9 3 26 6q17 2 27 4q14 3 30 2h14q9 -1 15.5 -8t6 -16t-7 -15.5t-16.5 -5.5h-14q-11 1 -19 -1q-11 -2 -30 -5q-12 -2 -16 -4z" />
    <glyph glyph-name="six" unicode="6" horiz-adv-x="243" 
d="M71 325q-1 -18 -1 -29v-37.5v-35.5q0 -16 4 -46q3 -30 6 -42q2 -12 5 -24q3 -10 6 -19q3 -8 8.5 -17.5t10.5 -14.5q6 -7 12 -13q3 -3 6 -5h3q3 0 7 3q7 3 13 10q7 7 9 11q3 5 5 11q3 6 4.5 12.5t2.5 23.5q2 19 2 27v21q0 9 -1 19t-5 26q-3 16 -6 23t-7 15l-15 24
q-9 12 -13 15q-7 6 -19 17q-11 9 -20 15t-17 10zM74 372q4 -1 7 -2l9 -5q11 -5 22.5 -12.5t24.5 -18.5l18 -15q9 -7 22 -26q11 -17 17 -27t10 -20q4 -11 8 -30q5 -19 6 -32q1 -12 1 -23v-21q0 -10 -2 -30q-2 -22 -4.5 -31.5t-5.5 -18.5l-8 -16t-15 -19q-11 -13 -24 -20
q-15 -8 -26 -8q-13 -1 -25 5q-10 4 -19 14q-7 7 -13 14q-8 8 -16 21t-12 25q-4 11 -8 24q-3 13 -5 26q-3 14 -7 46t-4 50v36.5v37.5q0 20 2 58q2 37 4 58q2 20 5 40q2 20 5 37q3 18 12.5 58.5t13.5 57.5q5 17 11 32q6 14 12 25t11 19q7 10 22 23t30 19.5t25 7.5l6 1
q9 1 16.5 -4.5t9 -14.5t-4.5 -16.5t-15 -8.5l-6 -1q-3 -1 -13 -5t-19.5 -12.5t-12.5 -12.5q-4 -6 -9 -15q-5 -11 -10 -23t-9 -26q-5 -16 -14 -55.5t-11 -55.5q-3 -17 -6 -36l-4 -38q-1 -14 -2 -36z" />
    <glyph glyph-name="seven" unicode="7" horiz-adv-x="201" 
d="M48 704h10q8 -1 14 1l22 4q12 2 22 2q19 0 31 -14q9 -11 13 -31q4 -16 7.5 -44.5t4.5 -47.5q1 -17 2 -32q2 -16 2 -36q1 -19 1 -37q-1 -18 -2 -57t-2 -58q-1 -18 -1 -36q0 -19 -2 -38q-1 -18 -4 -51.5t-4 -49.5q-1 -17 -3 -34q-1 -15 -1 -28v-36t-1 -33v-18v-11
q0 -9 -7 -15.5t-16 -6.5t-15.5 6.5t-6.5 15.5v11v21q1 9 1 30v36q0 15 2 32q1 17 2 33q2 18 4 50q3 33 4 51q2 18 2 35q0 19 1 38t2 57q1 39 2 57q0 17 -1 35q0 18 -2 33q-1 16 -2 34q-1 17 -4.5 44t-6.5 41q-1 5 -2 9q-6 -1 -13 -2q-10 -1 -19 -3q-12 -3 -25 -2h-10
q-9 0 -15.5 7t-6.5 16t7 15.5t16 6.5z" />
    <glyph glyph-name="eight" unicode="8" horiz-adv-x="226" 
d="M109 418q4 11 5 17q4 16 8 30t7 27t8 30q4 16 4 21q1 8 2 15.5t3 21.5q2 12 2 18q0 9 1 16q0 6 1 15q1 10 1 20q1 12 4 22l2 7q-2 1 -3 0q-5 0 -12 -3q-5 -2 -8 -5q-6 -7 -13 -15q-6 -6 -11.5 -15t-10.5 -20q-4 -12 -10 -42q-5 -28 -5 -41q0 -14 2 -28.5t4.5 -28
t7.5 -30.5q4 -12 11 -32zM113 270q-4 -14 -9 -32q-9 -29 -13 -45q-5 -16 -9 -33q-3 -17 -8 -45q-4 -27 -4 -34t2 -12q1 -5 3 -11q2 -4 11 -12q7 -7 11 -10q3 -1 8.5 -0.5t10.5 4.5q6 5 8 8q3 6 5 12t4 13l4 16q1 7 2 25q0 19 -0.5 29t-2.5 22q-2 14 -4 26t-9 41
q-6 23 -10 38zM135 347q5 -13 9 -25q6 -16 10 -33q5 -16 12 -46q8 -31 10 -44t4 -27q3 -14 3 -26q1 -12 1 -33q-1 -22 -3 -33l-4 -18t-5 -18q-4 -9 -8 -17q-6 -12 -21 -23q-16 -11 -33 -13q-16 -2 -27 2q-12 4 -29 20.5t-21 28.5q-3 8 -5 16q-2 9 -3 20q0 13 5 44q4 30 9 48
l8 34t14 47q9 30 13 46t10 33q1 7 4 16q-2 8 -6 17q-4 10 -9 24q-12 32 -18 50q-5 18 -8.5 34t-5.5 32q-2 17 -2 33q0 17 6 51q6 33 12 49t14 28.5t17 21.5q6 7 14 15q10 10 24 16q12 5 23 6q14 2 27 -4l8 -3q9 -4 12.5 -12.5t0.5 -17.5q6 -9 3 -19l-2 -8q-1 -6 -2 -13
q-1 -10 -1 -19q-1 -11 -2 -18v-10q0 -9 -2 -25q-2 -14 -3 -21.5t-2 -14.5q-1 -9 -6 -27q-4 -17 -8 -30q-3 -13 -6 -27q-4 -14 -8 -30t-15 -53q-4 -13 -8 -24z" />
    <glyph glyph-name="nine" unicode="9" horiz-adv-x="245" 
d="M171 680q-4 -1 -6 -2q-6 -3 -13 -8q-7 -3 -14 -9q-6 -4 -20 -22t-18 -31q-6 -17 -12 -33q-5 -15 -9 -32t-7 -36q-2 -18 -2 -47q0 -30 2 -41q3 -12 6 -23q2 -10 5 -17t9 -16q2 -2 3 -4q6 2 15 10q9 7 12 13q4 9 13 32.5t12 34.5q3 10 5 24q2 16 5 30q2 12 7 37v19
q2 44 3 60q1 20 1 33q1 14 2 25q0 1 1 3zM215 687q1 -7 1 -11v-13q0 -5 1 -14q1 -10 1 -21q1 -13 1 -23q0 -11 -2 -23q-1 -11 -7 -42l-1 -5q-1 -29 -2 -47q-2 -25 -4 -51q-3 -24 -4 -75q-2 -51 -2 -72q0 -22 -1 -64t-1 -61v-38v-45q0 -28 2 -37q1 -11 3 -22q1 -12 2 -27
l1 -15q0 -9 -6 -16t-15.5 -7.5t-16.5 5.5t-7 16l-1 14q-1 14 -2 24q-1 11 -3 21q-2 13 -2 44v46v37q0 20 1 62t1 63q0 18 1 59q-6 -8 -14 -15q-15 -12 -28 -17q-18 -6 -33 0q-13 5 -24 22q-7 12 -12 21q-4 10 -8 24q-3 13 -6 27q-3 15 -3 49q0 33 3 53q3 21 7 40q5 20 11 37
q6 16 11 32q7 21 26 44q17 23 28 31q9 7 18 12q7 5 14 9q11 6 26 7q13 1 25 -2l8 -2q22 -6 18 -23q-3 -8 -5 -11z" />
    <glyph glyph-name="colon" unicode=":" horiz-adv-x="148" 
d="M76 108q6 -1 11 -4l6 -4q14 -9 19 -25q6 -19 -7 -36q-10 -15 -27 -19q-19 -5 -35 6t-18 28q-1 11 2 21q2 9 7 20l4 8q3 8 12 11.5t17 -0.5q5 -2 9 -6zM70 479q3 7 9 11q8 5 17.5 2.5t13.5 -9.5l4 -7q5 -9 8 -21q4 -17 -5 -33q-9 -14 -23 -19q-11 -3 -25 -1q-19 2 -29 20
q-11 18 1 38l4 8q8 14 25 11z" />
    <glyph glyph-name="semicolon" unicode=";" horiz-adv-x="146" 
d="M74 64q-15 3 -24 17q-11 19 1 39q10 17 28 20q12 2 22 -5.5t14 -17.5q5 -13 6 -24q1 -10 -1 -22q-1 -12 -4 -25.5t-8 -26.5q-4 -12 -9 -23t-11 -22q-7 -12 -15 -24l-7 -10q-6 -8 -15 -9.5t-16.5 4t-9 15t3.5 16.5l8 10q6 10 11 19q6 10 10 19.5t8 19.5q3 10 6 21q1 4 2 9
zM74 462q9 4 18.5 1t12.5 -11l3 -7q7 -15 2 -30q-6 -18 -23 -24q-20 -8 -37 8q-18 17 -6 42l5 9q8 16 25 12z" />
    <glyph glyph-name="less" unicode="&#x3c;" horiz-adv-x="400" 
d="M367 407l-10 -9q-12 -10 -24 -17q-10 -6 -21 -13q-13 -7 -29 -16q-15 -7 -49 -26q-35 -19 -55.5 -29.5t-40 -19.5l-32.5 -15q-12 -5 -21 -9q5 -3 10 -7q13 -7 42 -20q32 -14 50 -24q16 -9 33 -16t34.5 -14.5t38.5 -14.5q21 -8 36 -15l13 -6q9 -4 12 -13t-1 -17.5
t-12.5 -11.5t-17.5 1l-13 6q-13 6 -33 14q-21 8 -39 15t-36 15q-18 7 -36 17q-17 9 -47 22q-32 15 -47 24q-13 8 -22 13q-14 8 -21 18q-6 17 -0.5 28t15.5 16q9 4 19.5 9t24.5 12q12 5 31 14t39 19t54 29q35 19 51 27q14 7 25 13q12 8 22 14q9 5 18 13l11 9q7 5 16.5 4
t15 -8t4.5 -16.5t-8 -14.5z" />
    <glyph glyph-name="equal" unicode="=" horiz-adv-x="437" 
d="M46 252h7h22q13 -1 28 -3q12 -1 25 -1q15 -1 33 -1q16 -1 34 0q19 1 40.5 1.5t43.5 -0.5q19 0 39 3q23 3 45 2l19 -1q9 -1 15.5 -8t6 -16.5t-8 -15.5t-16.5 -5l-19 1q-17 1 -36 -2q-23 -4 -47 -3q-21 1 -41 0.5t-39 -1.5q-20 -1 -38 0q-17 0 -31 1q-16 0 -31 1
q-13 2 -25 3h-17h-6q-9 -1 -16 5.5t-7.5 15.5t5.5 16t15 8zM61 433l9 -2q10 -1 20 -2.5t24.5 -3.5t35.5 -4q20 -2 38 -3q19 0 40 -1q20 -1 61 0q44 1 63 1h29h9q9 0 16 -6.5t7 -16t-7 -16t-16 -6.5h-9h-29t-61 -1q-44 -1 -65 0q-20 1 -39 1q-20 1 -42 3q-21 2 -36 4
t-25.5 3.5t-20.5 3.5l-10 1q-9 2 -14.5 9.5t-4 16.5t9.5 14.5t17 4.5z" />
    <glyph glyph-name="greater" unicode="&#x3e;" horiz-adv-x="403" 
d="M59 433l10 -6q10 -6 19 -11q8 -5 19 -11.5t43 -23.5q32 -16 49 -23t34 -13.5t47 -14.5q31 -10 45 -14q13 -4 19 -6q10 -2 18 -6q11 -5 14.5 -12t1 -14t-7 -13t-8.5 -9l-5 -4q-17 -11 -32 -16q-11 -3 -25 -9t-46 -19.5t-49 -20.5q-17 -8 -35 -15q-17 -7 -31 -15
q-15 -7 -26 -14q-10 -6 -21 -14l-12 -9q-7 -6 -16.5 -4.5t-15 8.5t-4 16.5t8.5 15.5l12 9q13 10 25 17t28 15q16 9 35 16q17 7 34 15q17 7 49.5 21t46.5 20q10 4 19 7q-13 4 -34 10q-32 10 -50 16q-19 7 -36 14q-19 8 -52 25q-34 17 -46 24q-11 7 -20 12q-8 5 -17 11l-11 6
q-8 4 -10.5 13t2 17t14 10.5t17.5 -1.5z" />
    <glyph glyph-name="question" unicode="?" horiz-adv-x="326" 
d="M108 -15l3 -3q7 -7 7 -16t-6.5 -15.5t-16 -6.5t-16.5 6l-3 3q-6 7 -6 16t6.5 15.5t16 6.5t15.5 -6zM27 659l6 11q8 17 22 28q11 8 24.5 15t28.5 13q17 6 46 8q31 3 51 -3q18 -6 33 -16q16 -10 30.5 -26.5t22 -34.5t10.5 -58.5t-3 -62.5q-5 -21 -14 -40t-21 -34
q-12 -16 -40 -41q-27 -24 -40 -32q-12 -8 -23 -14q-10 -6 -16 -10q-5 -3 -12 -9q-4 -4 -5.5 -7t-1.5 -6q-1 -6 -2 -28q0 -23 -1 -38q0 -15 -1 -33t-3 -53q-2 -34 -2 -47v-28v-34v-21q0 -9 -6.5 -16t-15.5 -7t-15.5 6.5t-7.5 15.5v22v34v27q-1 15 2 51q2 35 3 52t1 33
q1 16 1 37q1 23 2 31q1 11 6.5 22.5t16.5 20.5q9 8 17 13q7 4 17 10t21 14q11 7 35.5 28.5t33.5 33.5t16 27q7 14 11 31q4 15 2 48q-3 33 -7.5 44.5t-14 23t-20.5 17.5q-10 7 -23 11q-11 3 -33 1q-24 -2 -35 -5q-12 -5 -22 -10.5t-19 -11.5q-5 -4 -9 -11l-5 -12
q-4 -8 -13 -11t-17.5 1t-11.5 12.5t1 17.5z" />
    <glyph glyph-name="at" unicode="@" horiz-adv-x="569" 
d="M381 308q-1 -7 -2 -16q-4 -28 -5 -66t1 -78q2 -38 9.5 -68t12.5 -41q4 -9 14 -21q6 -6 11 -8q6 2 17 11q17 15 23 29q8 16 21 64q13 46 16 96q3 48 -4 88q-6 38 -25 71q-20 34 -47 59q-29 26 -44 36q-13 9 -46 18t-64 8q-28 -1 -58 -19q-31 -19 -45 -34q-13 -16 -36 -66
q-24 -51 -44 -136q-19 -84 -15 -137t35 -116q30 -61 65 -77q36 -16 113 -2q73 13 87 19l10 6q8 5 17 3t14 -9.5t3 -17t-9 -14.5l-11 -6q-15 -10 -87 -23q-11 -2 -16 -3q-91 -16 -140 6q-49 23 -86 98q-35 71 -40 132t16 151t47 145q26 56 43 76q18 20 56 43q39 24 79 26
q38 1 78 -10q40 -10 60 -23q17 -12 48 -41q33 -30 56 -70t31 -86q7 -44 4 -98q-4 -54 -18 -105t-23 -71q-10 -23 -35 -44q-29 -25 -52 -21q-21 3 -38 23q-15 15 -22 31q-7 15 -15.5 49.5t-10.5 76.5q-1 5 -1 8q-6 -14 -12 -27q-26 -54 -51 -88q-1 -1 -5 -6t-5 -6t-4 -5
t-4 -5.5t-4 -4.5t-4.5 -4t-4 -3.5t-4.5 -3.5t-4 -2.5t-5 -2.5q-20 -8 -45 10q-22 16 -29 49q-7 28 -4 62q3 32 6.5 51.5t17.5 62.5t23 63q9 21 30 52q23 33 49 48q25 15 41 17q15 1 37 -6q25 -9 33 -24q5 -9 9 -17l3 -7q5 -14 -6 -25q0 -2 -1 -4q-1 -7 -5 -20zM344 356l-1 2
q-3 2 -10 4q-12 4 -18 4q-7 -1 -23 -11q-17 -10 -34 -35q-19 -27 -26 -44q-8 -18 -21 -58.5t-16.5 -57.5t-5.5 -47q-2 -27 3 -48q3 -17 11 -23l4 -2q9 8 23 26q22 30 46 81q25 51 34 77q2 6 4 13q8 22 15 50q5 18 8 30q3 18 5 31z" />
    <glyph glyph-name="A" unicode="A" horiz-adv-x="327" 
d="M25 12l2 20q2 23 6 46q5 23 11 58.5t17.5 81.5t25.5 96q14 49 36 134q22 84 27.5 111.5t8.5 50.5q4 26 10 47q6 20 8 33q4 14 7 27q-1 2 -1.5 5.5t4.5 10.5t19 8q16 2 22.5 -4.5t4.5 -14.5l-1 -8q1 -12 1 -25q1 -14 3 -65q1 -50 3 -82t5 -64q3 -33 6 -67q2 -33 5 -69
t8 -92q6 -56 9 -78t6 -41q4 -20 6 -36q2 -14 7 -35q4 -21 6 -29l4 -20l1 -9q2 -9 -3.5 -17t-14.5 -9.5t-17 4t-9 14.5l-2 10q-1 9 -3 17q-2 9 -6 30q-5 22 -8 38q-2 15 -5 34q-4 20 -7 43t-9 80q-1 11 -2 21h-6q-9 -1 -29 -1h-24q-8 -1 -19 -2q-11 0 -17 -1h-1
q-8 -29 -15 -56q-11 -45 -17 -79q-6 -35 -10 -58q-5 -22 -6 -41l-2 -21q-1 -9 -8 -15.5t-16.5 -5.5t-15.5 8t-5 17zM132 309h3q11 1 17 1q9 1 29 1q19 0 27 1h4q-1 14 -2 26q-3 36 -5 70q-3 33 -5 66q-3 33 -5 65q-1 5 -1 10q-6 -30 -28 -112q-20 -80 -34 -128z" />
    <glyph glyph-name="B" unicode="B" 
d="M41 731q3 9 11 13.5t17 1.5l10 -3q14 -4 28.5 -13t29.5 -25q14 -16 25 -36q12 -21 19 -47q6 -25 7 -39t-2 -42q-3 -29 -10 -56q-8 -26 -19 -51q-10 -25 -21 -43t-23 -35q-2 -2 -5 -6q12 -3 25 -10q19 -9 33 -23t22 -33q8 -17 11.5 -28t6.5 -29q2 -19 1 -41t-7 -45
q-6 -24 -18 -45q-11 -19 -16 -27q-6 -9 -18 -22.5t-23 -23.5t-21 -18t-18 -12q-10 -5 -21 -7l-8 -1q-9 -2 -16 3t-10 13q-6 6 -6 15v7q0 7 1 22q0 14 1 26q1 11 1 24q0 15 2 55q2 39 3 64t1 80v83v81v78q-1 27 1 73t3 75l2 29q0 2 1 5q-2 7 0 13zM70 36q3 2 7 5q8 6 18 15
q9 8 19 19.5t14 18.5q5 7 15 24q8 16 13 34q5 19 6 36.5t-1 31.5q-2 15 -4.5 22.5t-8.5 22.5q-6 12 -14.5 20.5t-20.5 14.5q-14 6 -23 8q-6 2 -11 2v-16q0 -56 -1 -81.5t-3 -64.5t-2 -53t-1 -27q-1 -12 -1 -26q-1 -3 -1 -6zM79 387q10 13 18 27q10 15 19 37q9 23 16 47
q7 23 9.5 47.5t1.5 33.5q-1 10 -6 32q-5 20 -14 35q-9 17 -20 29q-10 11 -19 17l-1 -11q-2 -28 -3 -74q-2 -44 -1 -70v-79v-36.5v-34.5z" />
    <glyph glyph-name="C" unicode="C" horiz-adv-x="252" 
d="M191 684l-7 6h-4q-6 1 -11 -1q-6 -2 -12 -6q-5 -3 -17 -21q-14 -19 -20 -34q-7 -16 -14 -37t-11 -43q-4 -23 -7.5 -50.5t-8.5 -84.5q-5 -56 -7 -86q-2 -29 -2 -57q0 -29 1 -55.5t3 -49.5q2 -21 10 -58.5t12 -48.5t8 -19q4 -7 9 -12q4 -5 10 -9q4 -3 16 -6q13 -4 19 -4
q3 0 9 3q8 3 12 6l6 6q7 6 16.5 5t15.5 -8t5 -16t-8 -15l-6 -6q-9 -7 -22 -14q-16 -6 -30 -6q-11 0 -29.5 5.5t-29.5 13.5q-10 7 -17 15q-9 9 -15 20t-11.5 26t-13.5 54q-9 40 -11 64t-3 51.5t-1 57.5t2 60q2 29 7 87t9 87q4 28 8 52q5 25 12 48q8 23 15 42q8 19 25 42
q18 25 29 33q11 7 22 11q13 4 27 3q18 0 31 -10l7 -6q7 -5 8 -14.5t-4.5 -16.5t-15 -8.5t-16.5 4.5z" />
    <glyph glyph-name="D" unicode="D" horiz-adv-x="285" 
d="M25 704q1 9 8.5 15t16.5 5l10 -1q9 -1 16 -1q9 -1 30 -5q21 -5 30 -9q10 -4 18 -9t24 -19q17 -13 24 -23q7 -8 13 -19q6 -10 10.5 -19.5t12.5 -28.5q8 -20 11 -32l4 -22q3 -11 5 -40q2 -27 2 -39q1 -14 -1 -46q-2 -30 -3 -44q-1 -15 -3 -30q-2 -14 -5 -46q-4 -33 -6 -47
q-1 -15 -4 -28q-2 -14 -11 -41q-9 -28 -15 -40t-12 -23q-6 -12 -21 -34q-13 -21 -19 -29q-7 -9 -12 -16q-6 -9 -15 -21q-9 -13 -17 -22q-7 -7 -13 -15l-7 -7q-6 -6 -15.5 -6.5t-15.5 5.5q-2 1 -3 3q-14 6 -14 21v6q0 6 -1 13q0 8 -1 20q-1 11 -1 29t0.5 29.5t0.5 24.5
q1 13 1 25q1 12 2 40q1 29 2 47q1 19 2 35q0 16 2 35q1 17 1 54v55.5t-1 34.5q0 18 -1 52q0 33 -1 47q-1 16 -2 31q-2 16 -3.5 41.5t-2.5 35.5t-2 18v16q-9 2 -14 9t-4 15zM91 30l6 8q9 12 14 20q6 9 12 17q5 7 18.5 27.5t19.5 31.5q5 10 11 21q4 9 12 33q8 25 10 36
q2 12 4 26t5 46q4 33 6 47q1 14 2 27t3 45q2 29 1 39q0 12 -2 40q-2 25 -4 34l-4 20q-2 8 -9 25q-7 18 -11 27q-4 7 -9 15q-4 8 -9 14t-18 17t-18.5 14.5t-12.5 6.5q-5 2 -22 6q-4 1 -8 1v-6q1 -9 1.5 -18.5t2.5 -35.5t3 -41q2 -17 3 -32q1 -16 1.5 -49.5t0.5 -50.5
q1 -18 1 -36v-56t-1 -58q-2 -18 -2 -34q-1 -16 -2 -34t-2 -46q-1 -29 -2 -41q0 -12 -1 -25q0 -13 -0.5 -24t-0.5 -28q0 -16 1 -27v-2z" />
    <glyph glyph-name="E" unicode="E" 
d="M42 706q0 9 6 16t15 8h10q10 1 32 1t33 -2q8 -1 18 -2q9 -1 17 -2l9 -1q9 0 15 -7.5t5.5 -16.5t-8 -15t-16.5 -6l-9 1q-9 1 -20 2q-10 2 -18 3q-7 1 -26 1h-9l-1 -8q-2 -13 -3 -22q0 -7 -1 -35q-1 -30 -2 -51q-2 -19 -2 -39q-1 -21 -2 -67q-2 -45 -3 -70q-1 -10 -2 -19h1
l8 -1q7 0 21 1q15 2 23 3l8 1q9 1 16.5 -5t8.5 -15t-4.5 -16.5t-14.5 -8.5l-9 -1q-9 -1 -24 -2q-16 -2 -26 -1h-9h-1q-2 -24 -3 -62q-3 -50 -3 -69q-1 -19 -2 -50q0 -31 0.5 -43.5t2.5 -31.5t3 -27t3 -20q0 -5 1 -10q8 -1 19 -1h31q12 1 33 2l21 2q9 1 16 -5.5t8 -15.5
t-5.5 -16t-15.5 -8l-21 -1q-21 -2 -34 -2.5t-33 -0.5q-21 0 -35 3q-10 2 -19 9.5t-9 21.5q0 5 -2 16q-2 13 -3 20q-1 9 -3 28q-2 21 -2.5 34.5t-0.5 45.5q1 33 2 52.5t3 68.5t4 75q1 27 3 51q1 25 3 70q1 45 2 66q0 21 2 42q1 19 2 48q1 30 2 40q1 8 2 21l1 6q-8 7 -9 17z
" />
    <glyph glyph-name="F" unicode="F" horiz-adv-x="214" 
d="M25 695q0 9 6 16t15 8h6q5 0 16 2q14 3 22 3q6 0 18 2q12 1 19 1q6 1 14 1q7 0 15 1l9 1q9 0 16 -6t8 -15t-5 -16.5t-16 -7.5l-8 -1q-9 -1 -17 -1t-13 -1q-6 0 -17 -1q-13 -2 -21 -2q-4 0 -13 -2v-3q-1 -9 -1.5 -19.5t0.5 -23.5q0 -14 1 -53q2 -38 3 -59l2 -42
q1 -10 2 -21h2h45q9 0 15.5 -6.5t6.5 -16t-6.5 -16t-15.5 -6.5h-45h-2q0 -17 1 -34q1 -25 2 -78q1 -51 0 -75t-1 -45q0 -23 -1 -54q-1 -33 -1 -43v-20q0 -10 -1 -19v-17v-24q0 -10 -6.5 -16.5t-16 -6.5t-16 6.5t-6.5 16.5v24q0 12 1 21v15v20q0 11 1 44q1 31 1 53q0 23 1 47
q1 23 0 72q-1 52 -2 78q-1 27 -1 53q0 25 -1 45q-2 21 -3 42.5t-2.5 60t-1.5 52.5q-1 15 -0.5 27t1.5 22v1q-8 6 -9 16z" />
    <glyph glyph-name="G" unicode="G" horiz-adv-x="325" 
d="M225 662l-2 10q-2 7 -5 14q-1 1 -3 1q-6 1 -8 1q-6 -3 -13 -9q-8 -6 -19 -19q-10 -12 -21 -30q-10 -19 -31 -71q-20 -54 -28 -82t-14 -57t-9 -86.5t-1 -81.5q1 -24 4 -50t7 -50q4 -23 14 -57q11 -34 17 -44t12.5 -17.5t12.5 -12.5q5 -4 19 -9q11 -3 16 -2q7 2 17 7t27 24
q17 18 21 26q4 12 9 25q4 12 6 37q3 26 2 39q-1 14 -3 27t-3.5 24.5t-5.5 27.5q-4 17 -5 26q-1 4 -2 10q-6 1 -15 1q-14 1 -27 0l-14 -2q-9 -1 -16.5 5t-8.5 15.5t5 16.5t15 8l15 2q16 1 33 0q19 0 31 -5q19 -7 25 -26q3 -11 4 -19q0 -7 4 -23q4 -17 6 -29t4 -26t3 -30
t-2 -46q-3 -31 -8 -47q-5 -15 -11 -28q-6 -16 -29 -40q-22 -24 -38 -32q-16 -9 -28 -12q-16 -4 -41 3q-22 7 -33 16q-10 8 -19 19t-17 25t-20 52q-12 37 -17 63q-4 26 -7 53t-4 52q-2 26 1.5 87t9.5 92q6 32 14.5 62t29.5 85q22 55 34 77q13 22 26 38q14 15 25 24
q12 10 23 15q16 7 37 2q24 -6 32 -25q5 -11 8 -23l3 -10q2 -8 -2.5 -16.5t-13.5 -10.5t-17 2.5t-11 13.5z" />
    <glyph glyph-name="H" unicode="H" horiz-adv-x="266" 
d="M238 707l1 -9l2 -20v-21t-1 -50v-59v-49q0 -27 -0.5 -83t-1.5 -84q-1 -25 -1 -78v-73v-55q1 -34 1 -61q1 -27 1 -36q-1 -9 -1 -18v-17v-6q0 -9 -7 -15.5t-16 -6.5t-15.5 7t-6.5 16v6v16t1 19q0 8 -1 35q0 27 -1 61v55v73q0 53 1 80q0 15 1 40q-12 -1 -17 -1q-7 -1 -15 -2
q-10 -2 -25 -3q-16 -1 -28 -2q-14 0 -23 1l-7 1h-2q0 -2 1 -5q0 -31 2 -59q1 -29 1 -81q-1 -51 0 -72v-41t1.5 -46t2.5 -36t2 -22l1 -11q1 -10 -5 -17t-15.5 -8t-16.5 5t-8 15l-1 12l-2 22q-1 10 -2.5 37.5t-1.5 48.5v40q-1 21 0 73q0 51 -1 78q-2 29 -2 61q-1 32 -2 63
t-3 61q-1 31 -2 83t-1 70.5v31t1 24.5l1 12q0 9 7 15.5t16.5 6t15.5 -7.5t6 -16l-1 -12q-1 -12 -1 -23.5v-30.5q0 -18 1 -69q1 -52 2 -82q2 -30 3 -61v-15q4 1 9 1l7 -1q5 -1 15 -1q12 1 26 2t23 2q8 1 15 2q8 1 21 2h2q1 54 1 80v49v59q1 38 1 50v20q0 7 -1 16l-1 9
q-2 9 4 16.5t15 8.5t16.5 -5t8.5 -15z" />
    <glyph glyph-name="I" unicode="I" horiz-adv-x="197" 
d="M52 7l7 -1q3 -1 14 -1v1l-2 9q-2 11 -2 26q-1 13 -1 29v36q-1 22 0 47v50v52l-2 54q0 28 1 56q0 27 1 83t2 81t2 49t2 43q1 21 2 34q2 11 1 18v1q-9 1 -16 2l-7 1q-9 2 -14 9.5t-3.5 16.5t9 14.5t16.5 3.5l7 -1q6 -1 18 -2h21h18q8 1 14 1l7 1q9 1 16.5 -5t8 -15
t-5 -16.5t-15.5 -8.5h-6q-7 -1 -17 -2h-6q1 -10 -1 -23q-1 -12 -2 -31t-2 -43t-2 -49t-2 -80q-1 -56 -1 -83q-1 -27 -1 -54q1 -28 2 -54v-53v-51q-1 -24 -1 -45q1 -21 1 -37q0 -15 1 -28q0 -11 2 -19l1 -10q1 -5 0 -9q8 0 17 1l15 1q9 1 16 -5.5t8 -15.5t-5.5 -16t-15.5 -8
l-14 -1q-15 -1 -30 -1h-31q-18 1 -27 3l-7 1q-9 2 -14 10t-3.5 17t9.5 14t17 3z" />
    <glyph glyph-name="J" unicode="J" horiz-adv-x="338" 
d="M152 716l15 -2q13 -2 30 -1q19 0 36 2q19 1 40 0l19 -1q9 0 15.5 -7t6 -16t-7.5 -15.5t-16 -6.5l-20 1q-4 0 -8 1v-6l-3 -13q-2 -11 -3 -19q-1 -9 -3 -34t-3 -40t-3 -48q-2 -32 -2 -49l-2 -36q-1 -17 -1 -34q0 -18 -1 -55v-54v-36q0 -18 -1 -49q-1 -29 0 -41
q0 -14 -1 -36q-2 -21 -3 -30q-2 -10 -6 -24q-4 -15 -12 -30q-10 -18 -25 -26q-10 -5 -18 -8q-10 -4 -29 -5q-17 -1 -37 1q-19 2 -36 5q-18 4 -28 9l-7 3q-9 4 -12 13t1 17.5t13 11.5t17 -1l8 -4q5 -2 18 -5q14 -3 31 -5q16 -1 29 -1q11 1 15 2l14 7q3 2 6 8q6 10 9 20
q3 11 4 18q1 8 3 28q1 19 1 30q-1 13 0 44q1 30 1 48v36v55q1 36 1 54t1 37l2 34q0 18 2 51t3 48t3 40q2 26 3 36q1 11 4 24l2 7q-9 -1 -18 -1q-21 -1 -38 1l-15 2q-9 2 -14.5 9.5t-4.5 16.5t8.5 14.5t16.5 4.5z" />
    <glyph glyph-name="K" unicode="K" horiz-adv-x="271" 
d="M246 63q-1 -21 -1 -26v-17q-1 -6 0 -11v-15v-7q0 -9 -6.5 -15.5t-15.5 -6.5t-16 6.5t-7 15.5v7v11q-1 9 0 19v13t1 28q1 16 1 19v17q0 6 -2 22t-5 25q-2 10 -5 20q-2 7 -9 23q-8 17 -12 22q-5 8 -11 16q-3 6 -16 16q-16 12 -22 16q-5 4 -10 6.5t-17 7.5q-7 3 -14 8
q-1 -15 -1 -32q-2 -55 -1 -100v-61v-48q0 -7 2 -15q1 -11 2 -20v-9q0 -9 -6 -16t-15.5 -7.5t-16.5 6t-7 15.5v9q-1 7 -2 16q-2 11 -2 21v48v61q-1 45 1 101q1 56 1 84.5t-2 58.5q-1 32 -2 60t-4 80q-2 54 -1 75q1 19 2 34q0 17 1 26t2 19l1 10q1 9 8.5 15t16.5 5t15 -8.5
t5 -16.5l-1 -10q-1 -10 -2 -18t-1 -23q-1 -15 -2 -35q-1 -19 1 -71q3 -60 4 -81q1 -27 2 -58q2 -27 2 -53q4 3 7 7q7 7 15 19q9 13 14 21q5 7 10 18q6 11 19 37q12 26 17 39t8 28q4 15 8 43q4 30 6 44.5t4 38.5t3 32q1 7 2 17v12q1 9 8 15t16.5 5.5t15.5 -8t5 -16.5l-1 -11
q-1 -12 -2 -20q-1 -7 -3 -30q-2 -25 -4 -40l-6 -45q-4 -31 -8 -47q-4 -17 -9.5 -32.5t-19.5 -43.5q-13 -28 -19 -40q-7 -12 -12 -21q-6 -8 -15 -22q-10 -15 -20 -25q-3 -2 -5 -5q12 -5 18 -8q7 -4 15 -9q7 -5 23 -18q19 -14 27 -26q5 -8 10 -15q6 -9 15 -29q10 -19 13 -31
q2 -10 5 -20q3 -12 5 -30q3 -19 3 -28v-17z" />
    <glyph glyph-name="L" unicode="L" horiz-adv-x="280" 
d="M79 697l-1 -9q-1 -7 -1 -13q-1 -8 -1 -19q0 -12 -1 -29q-2 -16 -3 -34t-2 -40v-45q1 -24 2 -49q1 -26 1.5 -52.5t0 -52.5t-1 -50.5t-0.5 -49.5q-1 -25 0 -46v-41v-35v-31q0 -15 1 -37q1 -23 1 -31v-10q1 -5 2 -12l1 -5q7 -2 13 -2q11 -2 22 -2q12 -1 25 -2h29q16 0 40 2
l24 3q10 1 17 -5t8 -15t-5 -16.5t-15 -8.5l-25 -2q-26 -3 -44 -3t-31.5 0.5t-25.5 1.5l-24 2t-24 4q-28 6 -28 31q0 4 -1 9q-2 8 -2 15q-1 8 -1 16q0 6 -1 28q-1 23 -1 39v31v34v41q-1 22 0 48q0 25 0.5 49.5t1 50t0 51t-1.5 51.5t-2 50v48q1 22 2 40q1 19 3 36q1 15 1 25
q0 12 1 19q0 9 1 20l1 9q2 9 9.5 14.5t16.5 4t14.5 -9t4.5 -16.5z" />
    <glyph glyph-name="M" unicode="M" horiz-adv-x="360" 
d="M78 731q9 1 16 -5t8 -15l1 -8q1 -8 3 -15q1 -8 3 -17q1 -7 7 -31t9 -40q4 -15 8 -33t12 -48q8 -31 12 -46q3 -15 6 -27q4 -13 7 -35q0 -3 1 -7q1 2 2 5q13 34 18 49q5 17 9 31q5 14 13 40q8 27 13 42l10 28q4 13 8 30t7 26q2 8 6 23q4 17 6 27q1 5 10.5 11.5t21.5 6.5
t16 -14q3 -9 5 -21q2 -11 5 -41q4 -31 5 -68t3 -58q2 -23 3.5 -69.5t1.5 -69v-45.5q0 -22 1 -64v-60.5v-50.5q-1 -31 -1 -44t-1 -36v-29v-31l1 -22q0 -9 -6.5 -15.5t-15.5 -7t-16 6t-7 15.5l-1 22v31v32q1 21 1 34t1 45v50v59q-1 42 -1 65v45q0 23 -2 68q-1 46 -3 67
q-2 23 -3 60v14l-2 -6q-5 -15 -10 -29t-13 -39q-8 -28 -12.5 -41.5t-9.5 -30.5t-19 -52q-15 -39 -30 -55q-1 -1 -7.5 -4.5t-16 -7t-17.5 1.5t-10 19q-1 8 -2 14q-2 7 -3 15l-4 28q-3 20 -5 31q-3 12 -7 27l-12 45q-8 31 -12 49q-1 5 -2 11q-1 -9 -1 -16q-1 -44 -1 -69
q0 -26 1 -50v-72q-1 -49 -3 -71t-4 -45q-2 -22 -4 -62q-2 -39 -3 -56q0 -13 -1 -26q-1 -11 -1 -26t1 -20q0 -5 2 -14l3 -11q3 -9 -2 -17.5t-14 -10.5t-17 2.5t-10 13.5l-3 11q-3 13 -4 21t-1 25t1 30q1 11 1 23q1 18 3 57q2 41 4 64t4 45q2 21 3 68v70q-1 24 -1 50t1 71
q2 45 3 63q1 17 1 32.5v25.5v34q0 9 7 16t16 7q2 0 4 -1q2 2 6 2z" />
    <glyph glyph-name="N" unicode="N" horiz-adv-x="312" 
d="M78 749q9 0 15.5 -7t6.5 -16v-6q0 -5 2 -17q3 -14 6 -30t7.5 -37t16.5 -73q11 -52 18 -81t15 -57t16 -57t19 -82q10 -52 17 -78t12 -48q4 -17 11 -40q1 24 2 67v80q-1 27 -1 55t-2 81t-3 73q-2 21 -3 56t-1 48t-1 26v35q-1 22 -1 38v35q0 9 6.5 15.5t16 6.5t16 -6.5
t6.5 -15.5v-35q0 -15 1 -37v-35q1 -14 1 -27t1 -47t2 -53q2 -21 4 -75t2 -83q0 -28 1 -54q0 -27 -0.5 -81.5t-2.5 -79.5q-1 -26 -2 -46q-2 -22 -2 -39q-1 -19 -2 -30q0 -1 -0.5 -3.5t-3 -8.5t-6 -9.5t-10.5 -3.5t-16 6q-6 3 -8.5 6.5t-3 6t-0.5 5v2.5q-2 9 -7 27t-9 29
q-3 12 -13 44.5t-15 55.5q-6 22 -13 48q-7 27 -17 80q-11 52 -19 79q-7 29 -15 57q-8 29 -15.5 58.5t-19 81.5t-16.5 74v2q-1 -22 -1 -74q1 -54 2 -82q2 -36 2 -65q0 -28 2 -57q1 -29 2 -60q0 -30 2 -79t3 -69.5t2 -35.5q1 -14 1 -25q1 -11 1 -22q1 -11 2 -26q1 -16 1 -25
v-9q0 -9 -7 -15.5t-16 -6.5t-15.5 6.5t-6.5 15.5v9q0 7 -1 22q-1 16 -2 27q0 10 -1 21q0 12 -1 26q-1 15 -2 35q-1 21 -3 70.5t-2 79.5q-1 30 -2 59q-2 30 -2 59q0 28 -2 59q-1 32 -1.5 87.5t0.5 77.5q1 23 2 39q2 16 2 27q1 15 5 27l3 9q2 9 10.5 13.5t17.5 1.5l4 -2
q4 2 8 2z" />
    <glyph glyph-name="O" unicode="O" horiz-adv-x="321" 
d="M153 684q-6 -3 -11 -3l-9 -1h-3q-3 -2 -6 -7q-6 -7 -14 -17q-6 -8 -12 -19q-6 -13 -10 -23t-7 -22q-4 -10 -4 -20q-1 -12 -3 -41.5t-3 -43.5q-1 -15 -1 -28v-61q0 -14 1 -30l3 -45q2 -31 2 -45q-1 -13 0 -25q0 -12 1 -23q2 -13 3 -25q1 -11 4 -35q3 -23 4 -31q2 -8 5 -18
t5 -19q2 -8 7 -18q5 -11 10 -19l10 -16q4 -7 9 -14q3 -3 8 -6.5t9 -4.5q5 -1 13 0q6 0 11 3q6 5 15 15.5t12 18.5q3 10 5 16t5 21q4 17 7 26q2 8 3 15q2 9 5 26t4 25q1 10 2 18q1 9 5 30q3 20 4 31q0 13 1.5 25t3.5 22q1 8 1 16q0 9 1 30.5t2 35.5v24v23q0 11 -2 32
q-3 22 -4 31q-2 10 -3 18t-3 25t-3 25q-1 7 -3 15q-1 9 -3 17q0 6 -4 14q-3 10 -7 19q-3 7 -9 18q-5 8 -8 10q-5 4 -13 7q-11 5 -18 7q-4 2 -6 2q-6 0 -12 -1zM134 725q5 3 10 3l6 1q7 0 13 1q11 0 22 -4q9 -3 21 -8q15 -6 23 -13q10 -7 20 -23q8 -14 12 -24q3 -9 7 -20
q5 -13 7 -24q1 -7 2 -15q2 -8 3 -17q2 -8 4 -25t3 -26q1 -7 2 -16q2 -9 5 -33q2 -24 2 -37v-23q0 -12 -1 -26q0 -14 -1 -35t-1 -30q0 -11 -2 -22q-1 -9 -3 -20q-1 -11 -1 -22q-1 -14 -5 -36q-3 -20 -4 -28l-2 -18q-1 -10 -5 -28q-3 -17 -4 -25q-2 -10 -5 -21q-2 -8 -6 -22
q-3 -17 -5.5 -24.5l-6.5 -19.5q-6 -15 -19 -31t-26 -24q-13 -9 -30 -11q-15 -2 -27 1q-13 3 -25 10.5t-19 18.5q-6 8 -11 16t-11 17q-6 10 -12 23q-6 14 -9 24q-3 9 -6 20t-5 21t-5 35q-3 24 -4 36q-1 11 -3 24q-1 13 -1 27q-1 13 0 27q0 11 -2 41t-3 46q-1 17 -1 32v61
q0 15 1 30t3 44.5t3 42.5q1 15 5 29q4 13 9 25.5t12 26.5q8 16 17 27q8 9 13 16q7 11 17 17q12 8 27 8h2z" />
    <glyph glyph-name="P" unicode="P" horiz-adv-x="230" 
d="M31 722q4 9 13 12t17 -1l11 -5q12 -6 22 -12q9 -6 19 -14q11 -7 21 -15q12 -9 31 -35q18 -26 25 -44t11 -36q4 -19 4 -60q1 -40 -2 -60t-8 -41q-5 -22 -19 -58t-24 -53q-9 -15 -18 -33q-10 -18 -17 -32l-8 -13q-4 -8 -13 -10.5t-17 1.5q-3 2 -5 4q0 -5 -1 -14
q-2 -46 -2 -65v-53q-1 -33 -1 -45v-19t1 -17l1 -11q1 -9 -5 -16.5t-15 -8t-16.5 5.5t-8.5 15l-1 11q-1 11 -1 20v19.5t1 46.5v52q0 20 3 67q2 47 3 72q1 26 2 53q2 26 3 53t1 52q-1 27 0 78q1 50 1 73t1 41q0 18 1 32q1 11 0 18l-1 9v7q-7 4 -10 12.5t1 16.5zM76 255l1 2
q7 13 17 31q10 19 19 35q8 14 21 46.5t17 51.5q5 19 7 37q3 17 2 54q0 36 -3 51q-3 14 -8 28q-6 13 -21 34t-22 27q-9 7 -19 14h-1v-10q-1 -12 -1 -30q-1 -18 -1 -40.5t-1 -73.5q-1 -50 0 -76q0 -27 -1 -55q-1 -27 -3 -54q-1 -27 -2 -52q-1 -9 -1 -20z" />
    <glyph glyph-name="Q" unicode="Q" horiz-adv-x="309" 
d="M167 100l1 -7q2 -6 4 -15q2 -6 6 -20q4 7 7 14q4 12 13 41q10 30 14 45t7.5 31.5t8.5 52.5q5 35 6 54q1 21 3 64q3 41 2 58q-2 17 -4 33q-2 15 -11 41q-10 29 -14 41q-4 13 -8 27q-4 12 -13 36t-14 34q-6 10 -18 28q-9 15 -15 23q-3 -9 -9 -13l-9 -6q-4 -2 -10 -10
q-6 -10 -11 -28q-6 -22 -9 -35q-3 -14 -5.5 -31.5t-4.5 -35.5t-5 -52t-4 -55q-2 -20 -3 -38.5t-1 -37.5q-1 -18 -1 -37v-56q1 -38 2 -55q1 -16 3 -32q1 -15 6 -44q5 -27 8 -38q4 -13 8 -24q3 -11 6 -19q2 -7 9 -21q5 -12 10 -18l2 -2q9 5 19 17q0 1 1 2q-2 8 -5 18
q-8 26 -10 36q-3 10 -5 17l-1 7q-2 9 3 17t14 10t17 -3t10 -14zM99 700q2 4 5 7l7 7q12 11 29 13q21 2 35 -15q7 -9 20 -29t19 -32q7 -12 17 -39q10 -26 14 -39q3 -13 8 -25q4 -12 14 -41q10 -31 12 -50q3 -17 4 -35q2 -20 -1 -65q-2 -42 -3.5 -63t-6.5 -58q-5 -38 -8.5 -56
t-8.5 -34q-4 -16 -14 -47q-9 -31 -15 -44q-6 -14 -14 -27q-7 -12 -15 -22q-1 -2 -2 -3q4 -13 13 -36q10 -27 14 -40q3 -12 10 -26l6 -15q4 -8 1 -17t-11.5 -12.5t-17.5 -0.5t-13 12l-6 15q-8 17 -12 31q-4 12 -13 37q-3 7 -5 13q-6 -5 -11 -8q-19 -13 -37 -8q-14 5 -25 18
q-9 11 -17 28q-7 16 -11 25q-3 9 -6 20q-4 11 -8 24q-4 14 -9 45q-5 30 -7 46q-2 18 -3 35t-2 57v57q0 17 0.5 37t1.5 39t3 40q2 20 4 54q3 35 5 54t5 37.5t6 33.5t10 38q7 25 17 40q10 16 22 24z" />
    <glyph glyph-name="R" unicode="R" horiz-adv-x="268" 
d="M39 681q-6 7 -4.5 16.5t8.5 15.5l11 8q14 12 31 17q16 4 26 3q12 -1 31 -11q19 -11 28 -24q7 -11 12 -23.5t11 -39.5q6 -26 7 -40q2 -13 2 -41t-3 -43q-2 -15 -9 -41t-11 -37.5t-9 -23.5t-14 -32t-14 -28q-5 -7 -14 -18q-7 -10 -11 -16q-4 -5 -8 -11q5 -9 14 -19
q14 -16 19.5 -23.5t15.5 -24.5q11 -16 16 -25.5t13 -27.5q8 -19 15 -37q7 -20 9 -29q3 -8 7.5 -25.5t6.5 -24.5t6 -23q5 -17 7 -31q1 -11 2 -18l2 -8q3 -9 -2 -17t-14 -10t-17 2.5t-10 13.5l-2 9q-3 10 -4 23q-1 10 -5 23q-5 16 -7 24q-2 7 -6 25q-4 15 -7 25q-2 8 -8 25
q-7 18 -15 35q-7 17 -11 24.5t-13.5 22.5t-14.5 21.5t-17 20.5q-5 7 -10 12v-9q-2 -36 -3 -79t-3 -73q-2 -29 -2 -41q-1 -13 -1 -30q0 -15 1 -26l2 -13q1 -9 -4.5 -16.5t-14.5 -8.5t-16.5 4.5t-9.5 14.5l-1 13q-2 14 -2 33q0 17 1 30q0 13 2 43q2 29 3 71q1 43 3 80
q2 36 2.5 89t-0.5 78q-1 26 1.5 78t6 91t5.5 52q1 9 2 17q-7 2 -12 8zM81 350q5 7 12 16q7 10 11 16q3 5 11 22q9 18 13 29q4 12 8 22t10 35q7 23 9 36q2 11 2 36q0 26 -1 37t-7 35q-5 23 -8.5 31.5t-8.5 15.5q-2 4 -12 9q-8 5 -12 6q-4 0 -10 -1v-5l-1 -13l-4 -26
q-1 -12 -5 -51q-4 -38 -6 -89q-2 -50 -1 -75q1 -26 0 -80v-6z" />
    <glyph glyph-name="S" unicode="S" horiz-adv-x="256" 
d="M186 684v6v14v1q-1 2 -5 5q-2 1 -10 2q-11 0 -17 -2q-6 -1 -22 -14q-17 -13 -24 -22q-8 -11 -14 -23t-10 -27q-5 -17 -8 -33q-3 -15 -4 -33q0 -17 7 -54q7 -38 15 -58q8 -21 16 -37q9 -17 18 -35q10 -18 21 -35q11 -18 28 -54q16 -35 22 -55q7 -21 9 -38q2 -16 4 -34
q1 -20 -4 -57q-6 -36 -12 -53.5t-15 -31.5q-9 -16 -18 -25q-10 -10 -32 -19q-25 -10 -41 -7q-12 3 -23 8q-13 5 -25 16l-9 8q-7 6 -8 15.5t5.5 16.5t15.5 7.5t16 -5.5l9 -8q7 -6 13 -9q7 -3 15 -5q5 0 15 5q13 5 17 9q5 5 12 16q6 11 11 24t9 45q5 31 4 46q-2 17 -4 32
q-2 14 -7 31t-20 49.5t-25 48.5q-12 18 -22 37t-19 37t-18 41q-10 24 -18 66q-7 41 -7 63q1 22 5 41q4 17 9 36t13 35t18 29q11 15 33 32q23 18 37 22q13 3 31 3q22 -1 35 -11q11 -9 17 -19q7 -12 6 -25v-12v-6q0 -9 -6.5 -15.5t-16 -6.5t-16 6.5t-6.5 15.5z" />
    <glyph glyph-name="T" unicode="T" horiz-adv-x="275" 
d="M48 724h6q6 0 22 2q19 1 30 1t22 1q13 1 29 1q14 -1 25.5 -1.5t21.5 -1.5h14l8 1q9 1 16 -5t8 -15.5t-5 -16.5t-15 -8l-8 -1h-22q-9 1 -20 2q-10 0 -21 1q3 -13 2 -30v-24v-22q0 -11 -1 -38.5t-1 -43.5q-1 -14 -2 -33v-50v-52t1 -33v-31t-1 -43v-39v-37v-35v-23
q0 -9 -2 -28q-1 -16 -1 -22v-15q0 -9 -1 -25q-2 -16 -3 -27q-1 -10 -1 -17v-22q0 -9 -7 -15.5t-16 -6.5t-15.5 6.5t-6.5 15.5v22q0 10 1 22q1 10 3 26q1 14 1 21v15q0 8 1 26q2 16 2 26v20v36v37v40q1 27 1 41.5v30.5q-1 29 -1 33v53v52q1 7 1.5 18.5t0.5 14.5q0 15 1 42.5
t1 37.5v22v26q1 10 -1 15l-2 9q-1 1 -1 2h-4q-11 0 -28 -1q-19 -2 -26 -2h-6q-10 0 -16.5 7t-6.5 16t6.5 15.5t16.5 6.5z" />
    <glyph glyph-name="U" unicode="U" horiz-adv-x="318" 
d="M70 688v-6v-23q1 -17 1 -30t1 -30q0 -17 1 -36q1 -20 1.5 -40t0.5 -39q1 -18 1 -39q1 -22 1 -43v-113v-33t-1 -32t-1 -29v-29q-1 -14 -2 -26q0 -11 1 -32q2 -21 2 -27q1 -5 4 -15q2 -9 9 -21q6 -13 11 -19q3 -4 11 -9q10 -6 16 -7.5t13 -2.5t14 0q5 0 10 2t12 5
q3 2 12 11q10 11 12 15q3 5 7 14t6 19q3 10 9 34q5 23 7 38q2 16 5 31q2 12 4 30q1 19 3 35q1 16 4 53q2 36 2.5 56.5t0.5 37.5v83q0 19 -2 53q-3 36 -3 49q-1 11 -2 23q-2 14 -3 23q-1 10 -1 22q-1 10 -2 18l-1 8q-2 9 3.5 16.5t15 9t17 -4t8.5 -14.5l2 -8q1 -10 2 -23
q0 -11 1 -19q1 -9 2 -22q2 -15 3 -28q0 -11 3 -46q2 -37 2 -57v-83q0 -18 -0.5 -39t-3 -58.5t-4 -53.5t-2.5 -35q-2 -20 -5 -35q-2 -13 -4 -28q-2 -17 -9 -43q-6 -24 -8 -35l-8 -24q-5 -12 -10 -20t-18 -22q-15 -16 -25 -21q-8 -4 -17 -7q-10 -4 -21 -5t-22 0t-22 4
q-12 4 -26 13q-16 9 -24 20q-7 9 -15 25q-9 16 -13 30q-3 13 -4 20q-1 8 -3 31q-1 23 -1 37q1 12 2 26v27q0 14 1 30t1 31v33v113q0 20 -1 42q0 21 -1 40q0 18 -0.5 37.5t-1.5 38.5q-1 20 -1 38q-1 17 -1 30t-1 30v24v6q0 9 6.5 16t16 7t16 -7t6.5 -16z" />
    <glyph glyph-name="V" unicode="V" horiz-adv-x="322" 
d="M70 714l2 -13l4 -28q1 -12 4 -34q3 -19 5.5 -44.5t5.5 -54.5q4 -30 8 -62q4 -33 8.5 -67t9 -67t13.5 -96q10 -63 14 -87q5 -24 9 -47q3 -18 5 -33q2 23 5 50q3 35 5 70q2 37 8 111t11 109.5t10.5 70.5t12 67t18 80t16 62t7.5 24l3 9q3 9 11 13t17 1.5t13 -11t1 -17.5
l-3 -9q-2 -9 -6 -22t-15.5 -60.5t-17.5 -77.5q-6 -32 -12 -66.5t-11 -68.5q-4 -35 -10 -108q-7 -73 -8 -109q-2 -36 -5 -71.5t-6 -63.5t-7 -49q-3 -23 -9 -37q-1 -3 -9.5 -10t-20 -10.5t-19.5 13.5q-5 10 -9 30q-4 18 -7 33q-4 15 -6 34q-3 17 -6 39q-4 22 -9 45
q-5 25 -14 89q-10 64 -14.5 97.5t-8.5 66.5q-5 35 -8 67q-5 33 -8 62q-4 30 -7 56q-2 26 -5 45q-2 20 -4 33q-1 12 -3 25l-3 13q-1 9 4 16.5t14.5 9.5t17 -3.5t9.5 -14.5z" />
    <glyph glyph-name="W" unicode="W" horiz-adv-x="370" 
d="M70 707v-14q0 -12 1 -24q1 -14 2 -31q1 -16 6 -59t7 -68t4 -51q2 -27 3.5 -81.5t1.5 -78.5v-51q1 -27 2 -52q0 -20 2 -52q2 18 8 51q7 37 10 56t7 38q3 17 9 44q5 25 7 34q1 9 2 16q1 8 3 16q1 10 5 15t9 5t10.5 -2t10.5 -5.5t9 -7.5l7 -7l2 -2q11 -21 15 -37
q3 -12 7 -24q4 -14 9 -44q5 -28 8 -43q4 -15 7 -31q3 -15 9 -42q0 -2 1 -6q2 18 5 43q5 45 8.5 73.5t7.5 56.5q4 26 10 78q7 52 9 70t4 37t2 45v41v25q0 10 -1 26q0 15 1 27v16v7q0 9 6.5 16t16 7t16 -7t6.5 -16v-7q0 -7 -1 -19v-22q1 -17 1 -28v-25v-41q0 -29 -2 -49
l-4 -38q-3 -19 -9 -71t-10 -79t-8 -55q-3 -28 -8.5 -73t-7.5 -66q-2 -20 -2 -40q0 -21 -1 -51.5t-2 -38.5v-13q1 -12 -20 -17t-25 7q-3 8 -6 23q-3 12 -5.5 23t-4.5 19t-3 18q-1 7 -5 26q-4 20 -6 32q-2 10 -7 37q-6 27 -9 43q-4 15 -7 30q-3 16 -8 45q-5 27 -8 39
q-6 -26 -9 -42q-4 -17 -6 -36q-3 -19 -10 -57q-7 -37 -8 -52q-2 -18 -9 -58q-6 -38 -9 -56t-6 -32q-1 -5 -11.5 -12t-22 -6.5t-15.5 15.5q-3 11 -6 31q-3 19 -4 31t-2 26t-4 54q-3 41 -3.5 67t-1.5 52v52t-1.5 77.5t-3.5 79.5l-4 50t-7 67q-5 44 -6 61t-2 30q-1 14 -1 29v14
q0 9 7 15.5t16 6.5t15.5 -7t6.5 -16z" />
    <glyph glyph-name="X" unicode="X" horiz-adv-x="328" 
d="M178 223q-10 50 -16 79q0 4 -1 8l-8 -30q-8 -31 -17 -64t-25 -87q-15 -53 -22 -71q-5 -17 -10 -32q-5 -13 -7 -23l-3 -9q-2 -9 -10.5 -14t-17 -2.5t-13.5 11t-2 17.5l3 9q2 11 7 25q5 15 11 32t21 70q15 52 24 85q9 34 18 65q8 32 17 65q8 27 16 53q-2 6 -3 11
q-5 28 -15 81.5t-14 76.5q-4 24 -6 40t-3 32q-2 16 -3 27l-2 11q-1 10 5 17t15 8.5t16.5 -4.5t8.5 -15l1 -11q2 -12 3 -28q2 -15 4 -32q2 -15 5 -37q4 -23 14 -76q2 -9 2 -11q10 26 23 62q17 48 22 66q6 19 11 33q5 16 12 28l9 18q4 10 9 18l4 7q5 8 14 10.5t17 -2.5
t10.5 -14t-2.5 -17l-4 -7q-4 -6 -7 -13q-4 -10 -10 -21q-5 -9 -9 -21q-5 -14 -10 -32q-6 -19 -24 -68t-28 -78t-19 -60v-1l6 -36q6 -32 12 -62q5 -29 16 -83q12 -54 16 -78q4 -22 9 -43q5 -22 17 -67q11 -43 13 -50l3 -8q4 -8 0 -16.5t-12.5 -12t-17 0t-12.5 12.5l-2 7
q-4 8 -16 56q-11 46 -17 68q-5 22 -9 45t-17 82z" />
    <glyph glyph-name="Y" unicode="Y" horiz-adv-x="273" 
d="M247 687l-3 -9q-3 -7 -10 -40q-8 -35 -10 -50q-2 -16 -10 -51q-7 -35 -16 -81q-8 -46 -13 -72q-5 -25 -9 -43q-3 -18 -7 -30l-5 -20q-2 -10 -5 -18l-2 -7q-1 -2 -3 -4q1 -7 1 -12q2 -12 4 -34q3 -24 3 -50v-86q0 -10 1 -31l2 -22v-1q1 -11 0 -19q0 -9 -1 -17l-1 -8
q0 -9 -7.5 -15t-16.5 -5.5t-15 8t-5 16.5v8q1 8 1 16q1 6 -1 17l-2 13q0 5 1 10q-1 19 -1 30v86q0 24 -2 44q-3 23 -4 36q-2 13 -3 35q0 9 -1 17q-1 3 -2 5l-4 12q-4 12 -7 28t-11 50t-13 55.5t-12 60.5q-8 39 -15 75q-7 37 -12 65t-5 38l-1 8q-1 9 5.5 16t15.5 7.5t16 -5.5
t8 -15l1 -8q0 -7 4 -34q5 -26 12 -63q7 -36 15 -76q7 -38 12 -58.5t13 -55.5q5 -24 8 -38q2 11 6 28q5 25 13 71q9 46 16 82q7 34 10 49q2 16 10 52q8 37 12 47l3 9q4 9 12.5 12.5t17 0.5t12.5 -12t0 -17z" />
    <glyph glyph-name="Z" unicode="Z" horiz-adv-x="247" 
d="M94 705h7q6 0 15 2l22 2t26 3q19 2 34 -3q10 -4 16 -11t6.5 -17.5t0 -15.5l-1.5 -15q-5 -32 -10 -54q-4 -21 -14.5 -67t-17 -72.5t-13.5 -50.5q-6 -24 -13 -49q-6 -24 -14 -49q-6 -22 -17 -65q-12 -44 -18 -63l-9 -36t-7 -29t-7 -32q-3 -20 -5 -29q-2 -8 -2 -21
q-1 -12 -2 -23q6 -1 9 -1q7 1 16 2q9 2 19 3q9 1 25 3t23 3t15 1t18 -1l8 -1q9 -1 14.5 -8.5t4.5 -16.5t-8.5 -15t-16.5 -5l-8 1q-7 1 -12 1h-9q-7 -1 -23.5 -3t-25.5 -3q-8 -1 -16 -3q-10 -2 -19 -3q-14 -1 -31 4q-13 4 -21 15.5t-7 25.5q1 12 2 26q1 16 3 27q1 9 5 29
q3 19 6.5 33.5t7.5 30.5q4 17 10 37t17.5 63t17.5 65q7 25 14 49q6 24 13 49q7 23 13 49t16 72q11 46 15 67q5 20 9 50q1 6 1 11h-7q-15 -2 -25 -2q-10 -1 -20 -3q-12 -2 -22 -2h-7q-9 0 -16 7t-7 16t7 15.5t16 6.5z" />
    <glyph glyph-name="bracketleft" unicode="[" horiz-adv-x="226" 
d="M143 672l-8 3q-3 2 -6 2q-5 0 -14.5 -1.5t-18 -3t-14.5 -3.5l-8 -2q-1 -1 -1 -2q-3 -12 -3 -21v-94v-40q0 -21 1 -43t3 -72q2 -49 3 -73q1 -25 1 -50q-1 -24 -1 -45t1 -41v-39v-50q0 -32 -1 -45v-23v-53v-10h4h20t26 2q17 2 33 4l16 2q9 1 16.5 -5t8.5 -15t-4.5 -16.5
t-14.5 -8.5l-16 -2l-34 -4t-30 -2h-21q-14 0 -26 5q-21 9 -22 30q-1 9 -1 20v53v25q1 12 1 43v50v38q-1 20 -1 41.5t1 46.5q0 24 -1 47q-1 24 -3 73t-3 73q-1 23 -1 44.5v39.5v94q0 15 5 32q7 28 26 33q6 1 14 3q8 3 18 5t21 3q12 2 20 2q10 0 22 -4l7 -3q9 -3 13 -11.5
t0.5 -17.5t-12 -13t-16.5 -1z" />
    <glyph glyph-name="backslash" unicode="\" horiz-adv-x="390" 
d="M68 654l3 -7q4 -9 7 -17.5t8 -24.5q4 -15 16 -57q11 -40 19 -61t17 -45q10 -24 19 -50q9 -24 19 -48q10 -25 31 -70q20 -45 30 -68q11 -23 21 -42q11 -20 31 -58q20 -36 31 -53q13 -20 29 -55l14 -33q4 -9 0.5 -17.5t-12 -12.5t-17 -0.5t-12.5 11.5l-15 34q-14 31 -24 48
q-13 18 -33 57q-20 37 -31 57q-12 21 -23 45q-10 24 -30.5 69t-31.5 70q-10 26 -19 52q-9 24 -18 47q-10 25 -18 46q-9 23 -21 65q-11 41 -16 56q-4 15 -7 23t-5 15l-3 8q-4 9 0 17.5t12.5 12t17 -0.5t11.5 -13z" />
    <glyph glyph-name="bracketright" unicode="]" horiz-adv-x="213" 
d="M44 736l9 2q10 1 20 1q7 0 14 1q8 0 16 2q10 2 19 2q7 1 17 1q22 0 33 -20q8 -13 8 -28v-17v-22q1 -14 1 -31q0 -16 1 -33q0 -19 1 -40v-44q1 -21 3 -73q2 -53 2.5 -78t0.5 -50t-1 -50v-44q0 -22 -1 -42q-1 -18 -1.5 -35t-0.5 -43v-75q0 -8 1 -17v-21v-16v-18
q-1 -10 -3 -18q-5 -28 -42 -22q-13 2 -17 2h-18q-10 0 -25 -2l-16 -2q-9 -1 -16.5 4.5t-8.5 15t4.5 17t15.5 8.5l16 2q17 2 30 2h16q7 0 19 -1v12v16v18q-1 11 -1 20v75q0 27 0.5 44t1.5 36t1 40v46q1 23 1 47q0 25 -1 50q0 24 -2 77q-2 52 -3 75q0 21 -0.5 42.5t-0.5 39.5
q-1 18 -1 35q0 16 -1 29v24v17q0 1 -1 3q-6 -1 -10 -1q-6 0 -13 -1q-11 -2 -20.5 -3t-17.5 -1q-6 0 -13 -1l-9 -1q-9 -2 -16.5 3.5t-9 15t4 17t14.5 8.5z" />
    <glyph glyph-name="asciicircum" unicode="^" horiz-adv-x="292" 
d="M27 413l5 9q5 9 9 17t8.5 16.5t12.5 20.5l13 26t15 28q6 14 13 29q7 16 13 30t11 26q5 13 9 23t7 17q3 5 5 12q4 12 10.5 16t13 1t12.5 -7.5t10 -9.5l3 -4q6 -14 11 -28q4 -14 8 -29q3 -14 6 -31q3 -15 10 -44q7 -30 10 -42q2 -11 9.5 -32.5t10.5 -27.5l4 -7q3 -9 0 -18
t-11.5 -12.5t-17 -0.5t-12.5 11l-4 8q-3 8 -11.5 31.5t-11.5 37.5q-3 12 -10 41.5t-10 46.5q-3 15 -6 29l-2 6q0 -1 -1 -3q-5 -13 -11.5 -27.5t-12.5 -30.5q-8 -16 -15 -31q-7 -14 -14.5 -28.5t-14.5 -27t-11.5 -21t-8.5 -16t-9 -16.5l-5 -9q-4 -8 -13 -11t-17 1.5t-11 13
t1 17.5z" />
    <glyph glyph-name="underscore" unicode="_" horiz-adv-x="173" 
d="M131 505l2 -15q2 -15 3 -28q1 -11 3 -23q1 -8 1 -15q3 -4 3.5 -8.5t-1.5 -8.5q1 -12 1 -31q0 -22 0.5 -32.5t1.5 -19.5q1 -8 2 -15l1 -7q1 -7 -3 -12.5t-10.5 -6.5t-12 3.5t-6.5 10.5l-1 7q-1 8 -2 17t-2 20.5t-1 34.5q0 11 -1 20h-1q-9 -1 -23 -3l-15 -2h-2
q-1 -9 -1 -16v-20q-1 -9 -4 -22q-2 -11 -4 -20l-1 -9q-1 -6 -6.5 -10.5t-12.5 -3.5t-11 7t-3 12l2 9q1 10 4 22q2 10 3 18v17t0.5 23.5t1.5 24.5q1 9 2 24v26v35q0 7 5 12t12 5t11.5 -5t4.5 -12v-35v-27q-1 -12 -1 -21l11 1q14 2 22 3h4q-1 3 -1 5q-2 13 -3 26q-1 11 -3 26
l-2 14q-1 7 3 12.5t11 6.5t12.5 -3t6.5 -11zM49 772l9 -1q8 -1 25 -3q18 -1 26 -2h8q7 -1 11.5 -6.5t4 -12t-6 -11t-12.5 -3.5l-8 1h-9l-1 -3q-1 -7 -1 -14q-1 -9 -1 -19v-27q0 -14 2 -29t2 -30t-1 -30l-2 -14q-1 -7 -6 -11.5t-12 -3.5t-11 6.5t-4 12.5l2 14q1 12 1 25
t-2 28q-2 16 -2 32v27q0 11 1 20q0 10 2 19q-6 1 -11 1l-9 2q-6 1 -10.5 6.5t-3.5 12t6.5 10.5t12.5 3zM82 78v-10q0 -10 1 -20t1 -18v-17q1 -8 1 -15q2 0 3 1q8 1 17 2q8 2 13 3l6 2q6 2 12.5 -1t8.5 -9t-1 -12.5t-9 -8.5l-6 -2q-8 -3 -18.5 -4.5l-17.5 -2.5q-11 -2 -21 0
q-9 2 -14.5 10t-5.5 16t-1 19v19q0 7 -1 16q-1 11 -1 22v21t-1 22v28v25v22.5t1 27.5v16q0 6 5.5 11t11.5 5q7 -1 11 -5l3 1q12 3 23 0l8 -2q6 -2 9.5 -8t2 -12.5t-7.5 -10t-12 -1.5l-8 2q-3 1 -7 0l-7 -2v-22v-10.5v-11.5v-25v-26q6 3 11 5l9 4q7 2 13 -0.5t9 -8.5t0 -12.5
t-9 -9.5l-9 -4q-9 -3 -18 -7z" />
    <glyph glyph-name="grave" unicode="`" horiz-adv-x="186" 
d="M58 696l11 -5q13 -7 25 -18q11 -11 20 -22q8 -9 18 -22t17 -21l8 -8q6 -7 5 -16.5t-8 -15.5t-16.5 -5t-15.5 8l-7 8q-7 9 -17.5 21.5t-18.5 22.5q-7 9 -15 16t-16 11l-11 6q-8 4 -11 13t1.5 17t13 11t17.5 -1z" />
    <glyph glyph-name="a" unicode="a" horiz-adv-x="327" 
d="M25 12l2 20q2 23 6 46q5 23 11 58.5t17.5 81.5t25.5 96q14 49 36 134q22 84 27.5 111.5t8.5 50.5q4 26 10 47q6 20 8 33q4 14 7 27q-1 2 -1.5 5.5t4.5 10.5t19 8q16 2 22.5 -4.5t4.5 -14.5l-1 -8q1 -12 1 -25q1 -14 3 -65q1 -50 3 -82t5 -64q3 -33 6 -67q2 -33 5 -69
t8 -92q6 -56 9 -78t6 -41q4 -20 6 -36q2 -14 7 -35q4 -21 6 -29l4 -20l1 -9q2 -9 -3.5 -17t-14.5 -9.5t-17 4t-9 14.5l-2 10q-1 9 -3 17q-2 9 -6 30q-5 22 -8 38q-2 15 -5 34q-4 20 -7 43t-9 80q-1 11 -2 21h-6q-9 -1 -29 -1h-24q-8 -1 -19 -2q-11 0 -17 -1h-1
q-8 -29 -15 -56q-11 -45 -17 -79q-6 -35 -10 -58q-5 -22 -6 -41l-2 -21q-1 -9 -8 -15.5t-16.5 -5.5t-15.5 8t-5 17zM132 309h3q11 1 17 1q9 1 29 1q19 0 27 1h4q-1 14 -2 26q-3 36 -5 70q-3 33 -5 66q-3 33 -5 65q-1 5 -1 10q-6 -30 -28 -112q-20 -80 -34 -128z" />
    <glyph glyph-name="b" unicode="b" 
d="M41 731q3 9 11 13.5t17 1.5l10 -3q14 -4 28.5 -13t29.5 -25q14 -16 25 -36q12 -21 19 -47q6 -25 7 -39t-2 -42q-3 -29 -10 -56q-8 -26 -19 -51q-10 -25 -21 -43t-23 -35q-2 -2 -5 -6q12 -3 25 -10q19 -9 33 -23t22 -33q8 -17 11.5 -28t6.5 -29q2 -19 1 -41t-7 -45
q-6 -24 -18 -45q-11 -19 -16 -27q-6 -9 -18 -22.5t-23 -23.5t-21 -18t-18 -12q-10 -5 -21 -7l-8 -1q-9 -2 -16 3t-10 13q-6 6 -6 15v7q0 7 1 22q0 14 1 26q1 11 1 24q0 15 2 55q2 39 3 64t1 80v83v81v78q-1 27 1 73t3 75l2 29q0 2 1 5q-2 7 0 13zM70 36q3 2 7 5q8 6 18 15
q9 8 19 19.5t14 18.5q5 7 15 24q8 16 13 34q5 19 6 36.5t-1 31.5q-2 15 -4.5 22.5t-8.5 22.5q-6 12 -14.5 20.5t-20.5 14.5q-14 6 -23 8q-6 2 -11 2v-16q0 -56 -1 -81.5t-3 -64.5t-2 -53t-1 -27q-1 -12 -1 -26q-1 -3 -1 -6zM79 387q10 13 18 27q10 15 19 37q9 23 16 47
q7 23 9.5 47.5t1.5 33.5q-1 10 -6 32q-5 20 -14 35q-9 17 -20 29q-10 11 -19 17l-1 -11q-2 -28 -3 -74q-2 -44 -1 -70v-79v-36.5v-34.5z" />
    <glyph glyph-name="c" unicode="c" horiz-adv-x="252" 
d="M191 684l-7 6h-4q-6 1 -11 -1q-6 -2 -12 -6q-5 -3 -17 -21q-14 -19 -20 -34q-7 -16 -14 -37t-11 -43q-4 -23 -7.5 -50.5t-8.5 -84.5q-5 -56 -7 -86q-2 -29 -2 -57q0 -29 1 -55.5t3 -49.5q2 -21 10 -58.5t12 -48.5t8 -19q4 -7 9 -12q4 -5 10 -9q4 -3 16 -6q13 -4 19 -4
q3 0 9 3q8 3 12 6l6 6q7 6 16.5 5t15.5 -8t5 -16t-8 -15l-6 -6q-9 -7 -22 -14q-16 -6 -30 -6q-11 0 -29.5 5.5t-29.5 13.5q-10 7 -17 15q-9 9 -15 20t-11.5 26t-13.5 54q-9 40 -11 64t-3 51.5t-1 57.5t2 60q2 29 7 87t9 87q4 28 8 52q5 25 12 48q8 23 15 42q8 19 25 42
q18 25 29 33q11 7 22 11q13 4 27 3q18 0 31 -10l7 -6q7 -5 8 -14.5t-4.5 -16.5t-15 -8.5t-16.5 4.5z" />
    <glyph glyph-name="d" unicode="d" horiz-adv-x="285" 
d="M25 704q1 9 8.5 15t16.5 5l10 -1q9 -1 16 -1q9 -1 30 -5q21 -5 30 -9q10 -4 18 -9t24 -19q17 -13 24 -23q7 -8 13 -19q6 -10 10.5 -19.5t12.5 -28.5q8 -20 11 -32l4 -22q3 -11 5 -40q2 -27 2 -39q1 -14 -1 -46q-2 -30 -3 -44q-1 -15 -3 -30q-2 -14 -5 -46q-4 -33 -6 -47
q-1 -15 -4 -28q-2 -14 -11 -41q-9 -28 -15 -40t-12 -23q-6 -12 -21 -34q-13 -21 -19 -29q-7 -9 -12 -16q-6 -9 -15 -21q-9 -13 -17 -22q-7 -7 -13 -15l-7 -7q-6 -6 -15.5 -6.5t-15.5 5.5q-2 1 -3 3q-14 6 -14 21v6q0 6 -1 13q0 8 -1 20q-1 11 -1 29t0.5 29.5t0.5 24.5
q1 13 1 25q1 12 2 40q1 29 2 47q1 19 2 35q0 16 2 35q1 17 1 54v55.5t-1 34.5q0 18 -1 52q0 33 -1 47q-1 16 -2 31q-2 16 -3.5 41.5t-2.5 35.5t-2 18v16q-9 2 -14 9t-4 15zM91 30l6 8q9 12 14 20q6 9 12 17q5 7 18.5 27.5t19.5 31.5q5 10 11 21q4 9 12 33q8 25 10 36
q2 12 4 26t5 46q4 33 6 47q1 14 2 27t3 45q2 29 1 39q0 12 -2 40q-2 25 -4 34l-4 20q-2 8 -9 25q-7 18 -11 27q-4 7 -9 15q-4 8 -9 14t-18 17t-18.5 14.5t-12.5 6.5q-5 2 -22 6q-4 1 -8 1v-6q1 -9 1.5 -18.5t2.5 -35.5t3 -41q2 -17 3 -32q1 -16 1.5 -49.5t0.5 -50.5
q1 -18 1 -36v-56t-1 -58q-2 -18 -2 -34q-1 -16 -2 -34t-2 -46q-1 -29 -2 -41q0 -12 -1 -25q0 -13 -0.5 -24t-0.5 -28q0 -16 1 -27v-2z" />
    <glyph glyph-name="e" unicode="e" 
d="M42 706q0 9 6 16t15 8h10q10 1 32 1t33 -2q8 -1 18 -2q9 -1 17 -2l9 -1q9 0 15 -7.5t5.5 -16.5t-8 -15t-16.5 -6l-9 1q-9 1 -20 2q-10 2 -18 3q-7 1 -26 1h-9l-1 -8q-2 -13 -3 -22q0 -7 -1 -35q-1 -30 -2 -51q-2 -19 -2 -39q-1 -21 -2 -67q-2 -45 -3 -70q-1 -10 -2 -19h1
l8 -1q7 0 21 1q15 2 23 3l8 1q9 1 16.5 -5t8.5 -15t-4.5 -16.5t-14.5 -8.5l-9 -1q-9 -1 -24 -2q-16 -2 -26 -1h-9h-1q-2 -24 -3 -62q-3 -50 -3 -69q-1 -19 -2 -50q0 -31 0.5 -43.5t2.5 -31.5t3 -27t3 -20q0 -5 1 -10q8 -1 19 -1h31q12 1 33 2l21 2q9 1 16 -5.5t8 -15.5
t-5.5 -16t-15.5 -8l-21 -1q-21 -2 -34 -2.5t-33 -0.5q-21 0 -35 3q-10 2 -19 9.5t-9 21.5q0 5 -2 16q-2 13 -3 20q-1 9 -3 28q-2 21 -2.5 34.5t-0.5 45.5q1 33 2 52.5t3 68.5t4 75q1 27 3 51q1 25 3 70q1 45 2 66q0 21 2 42q1 19 2 48q1 30 2 40q1 8 2 21l1 6q-8 7 -9 17z
" />
    <glyph glyph-name="f" unicode="f" horiz-adv-x="214" 
d="M25 695q0 9 6 16t15 8h6q5 0 16 2q14 3 22 3q6 0 18 2q12 1 19 1q6 1 14 1q7 0 15 1l9 1q9 0 16 -6t8 -15t-5 -16.5t-16 -7.5l-8 -1q-9 -1 -17 -1t-13 -1q-6 0 -17 -1q-13 -2 -21 -2q-4 0 -13 -2v-3q-1 -9 -1.5 -19.5t0.5 -23.5q0 -14 1 -53q2 -38 3 -59l2 -42
q1 -10 2 -21h2h45q9 0 15.5 -6.5t6.5 -16t-6.5 -16t-15.5 -6.5h-45h-2q0 -17 1 -34q1 -25 2 -78q1 -51 0 -75t-1 -45q0 -23 -1 -54q-1 -33 -1 -43v-20q0 -10 -1 -19v-17v-24q0 -10 -6.5 -16.5t-16 -6.5t-16 6.5t-6.5 16.5v24q0 12 1 21v15v20q0 11 1 44q1 31 1 53q0 23 1 47
q1 23 0 72q-1 52 -2 78q-1 27 -1 53q0 25 -1 45q-2 21 -3 42.5t-2.5 60t-1.5 52.5q-1 15 -0.5 27t1.5 22v1q-8 6 -9 16z" />
    <glyph glyph-name="g" unicode="g" horiz-adv-x="325" 
d="M225 662l-2 10q-2 7 -5 14q-1 1 -3 1q-6 1 -8 1q-6 -3 -13 -9q-8 -6 -19 -19q-10 -12 -21 -30q-10 -19 -31 -71q-20 -54 -28 -82t-14 -57t-9 -86.5t-1 -81.5q1 -24 4 -50t7 -50q4 -23 14 -57q11 -34 17 -44t12.5 -17.5t12.5 -12.5q5 -4 19 -9q11 -3 16 -2q7 2 17 7t27 24
q17 18 21 26q4 12 9 25q4 12 6 37q3 26 2 39q-1 14 -3 27t-3.5 24.5t-5.5 27.5q-4 17 -5 26q-1 4 -2 10q-6 1 -15 1q-14 1 -27 0l-14 -2q-9 -1 -16.5 5t-8.5 15.5t5 16.5t15 8l15 2q16 1 33 0q19 0 31 -5q19 -7 25 -26q3 -11 4 -19q0 -7 4 -23q4 -17 6 -29t4 -26t3 -30
t-2 -46q-3 -31 -8 -47q-5 -15 -11 -28q-6 -16 -29 -40q-22 -24 -38 -32q-16 -9 -28 -12q-16 -4 -41 3q-22 7 -33 16q-10 8 -19 19t-17 25t-20 52q-12 37 -17 63q-4 26 -7 53t-4 52q-2 26 1.5 87t9.5 92q6 32 14.5 62t29.5 85q22 55 34 77q13 22 26 38q14 15 25 24
q12 10 23 15q16 7 37 2q24 -6 32 -25q5 -11 8 -23l3 -10q2 -8 -2.5 -16.5t-13.5 -10.5t-17 2.5t-11 13.5z" />
    <glyph glyph-name="h" unicode="h" horiz-adv-x="266" 
d="M238 707l1 -9l2 -20v-21t-1 -50v-59v-49q0 -27 -0.5 -83t-1.5 -84q-1 -25 -1 -78v-73v-55q1 -34 1 -61q1 -27 1 -36q-1 -9 -1 -18v-17v-6q0 -9 -7 -15.5t-16 -6.5t-15.5 7t-6.5 16v6v16t1 19q0 8 -1 35q0 27 -1 61v55v73q0 53 1 80q0 15 1 40q-12 -1 -17 -1q-7 -1 -15 -2
q-10 -2 -25 -3q-16 -1 -28 -2q-14 0 -23 1l-7 1h-2q0 -2 1 -5q0 -31 2 -59q1 -29 1 -81q-1 -51 0 -72v-41t1.5 -46t2.5 -36t2 -22l1 -11q1 -10 -5 -17t-15.5 -8t-16.5 5t-8 15l-1 12l-2 22q-1 10 -2.5 37.5t-1.5 48.5v40q-1 21 0 73q0 51 -1 78q-2 29 -2 61q-1 32 -2 63
t-3 61q-1 31 -2 83t-1 70.5v31t1 24.5l1 12q0 9 7 15.5t16.5 6t15.5 -7.5t6 -16l-1 -12q-1 -12 -1 -23.5v-30.5q0 -18 1 -69q1 -52 2 -82q2 -30 3 -61v-15q4 1 9 1l7 -1q5 -1 15 -1q12 1 26 2t23 2q8 1 15 2q8 1 21 2h2q1 54 1 80v49v59q1 38 1 50v20q0 7 -1 16l-1 9
q-2 9 4 16.5t15 8.5t16.5 -5t8.5 -15z" />
    <glyph glyph-name="i" unicode="i" horiz-adv-x="197" 
d="M52 7l7 -1q3 -1 14 -1v1l-2 9q-2 11 -2 26q-1 13 -1 29v36q-1 22 0 47v50v52l-2 54q0 28 1 56q0 27 1 83t2 81t2 49t2 43q1 21 2 34q2 11 1 18v1q-9 1 -16 2l-7 1q-9 2 -14 9.5t-3.5 16.5t9 14.5t16.5 3.5l7 -1q6 -1 18 -2h21h18q8 1 14 1l7 1q9 1 16.5 -5t8 -15
t-5 -16.5t-15.5 -8.5h-6q-7 -1 -17 -2h-6q1 -10 -1 -23q-1 -12 -2 -31t-2 -43t-2 -49t-2 -80q-1 -56 -1 -83q-1 -27 -1 -54q1 -28 2 -54v-53v-51q-1 -24 -1 -45q1 -21 1 -37q0 -15 1 -28q0 -11 2 -19l1 -10q1 -5 0 -9q8 0 17 1l15 1q9 1 16 -5.5t8 -15.5t-5.5 -16t-15.5 -8
l-14 -1q-15 -1 -30 -1h-31q-18 1 -27 3l-7 1q-9 2 -14 10t-3.5 17t9.5 14t17 3z" />
    <glyph glyph-name="j" unicode="j" horiz-adv-x="338" 
d="M152 716l15 -2q13 -2 30 -1q19 0 36 2q19 1 40 0l19 -1q9 0 15.5 -7t6 -16t-7.5 -15.5t-16 -6.5l-20 1q-4 0 -8 1v-6l-3 -13q-2 -11 -3 -19q-1 -9 -3 -34t-3 -40t-3 -48q-2 -32 -2 -49l-2 -36q-1 -17 -1 -34q0 -18 -1 -55v-54v-36q0 -18 -1 -49q-1 -29 0 -41
q0 -14 -1 -36q-2 -21 -3 -30q-2 -10 -6 -24q-4 -15 -12 -30q-10 -18 -25 -26q-10 -5 -18 -8q-10 -4 -29 -5q-17 -1 -37 1q-19 2 -36 5q-18 4 -28 9l-7 3q-9 4 -12 13t1 17.5t13 11.5t17 -1l8 -4q5 -2 18 -5q14 -3 31 -5q16 -1 29 -1q11 1 15 2l14 7q3 2 6 8q6 10 9 20
q3 11 4 18q1 8 3 28q1 19 1 30q-1 13 0 44q1 30 1 48v36v55q1 36 1 54t1 37l2 34q0 18 2 51t3 48t3 40q2 26 3 36q1 11 4 24l2 7q-9 -1 -18 -1q-21 -1 -38 1l-15 2q-9 2 -14.5 9.5t-4.5 16.5t8.5 14.5t16.5 4.5z" />
    <glyph glyph-name="k" unicode="k" horiz-adv-x="271" 
d="M246 63q-1 -21 -1 -26v-17q-1 -6 0 -11v-15v-7q0 -9 -6.5 -15.5t-15.5 -6.5t-16 6.5t-7 15.5v7v11q-1 9 0 19v13t1 28q1 16 1 19v17q0 6 -2 22t-5 25q-2 10 -5 20q-2 7 -9 23q-8 17 -12 22q-5 8 -11 16q-3 6 -16 16q-16 12 -22 16q-5 4 -10 6.5t-17 7.5q-7 3 -14 8
q-1 -15 -1 -32q-2 -55 -1 -100v-61v-48q0 -7 2 -15q1 -11 2 -20v-9q0 -9 -6 -16t-15.5 -7.5t-16.5 6t-7 15.5v9q-1 7 -2 16q-2 11 -2 21v48v61q-1 45 1 101q1 56 1 84.5t-2 58.5q-1 32 -2 60t-4 80q-2 54 -1 75q1 19 2 34q0 17 1 26t2 19l1 10q1 9 8.5 15t16.5 5t15 -8.5
t5 -16.5l-1 -10q-1 -10 -2 -18t-1 -23q-1 -15 -2 -35q-1 -19 1 -71q3 -60 4 -81q1 -27 2 -58q2 -27 2 -53q4 3 7 7q7 7 15 19q9 13 14 21q5 7 10 18q6 11 19 37q12 26 17 39t8 28q4 15 8 43q4 30 6 44.5t4 38.5t3 32q1 7 2 17v12q1 9 8 15t16.5 5.5t15.5 -8t5 -16.5l-1 -11
q-1 -12 -2 -20q-1 -7 -3 -30q-2 -25 -4 -40l-6 -45q-4 -31 -8 -47q-4 -17 -9.5 -32.5t-19.5 -43.5q-13 -28 -19 -40q-7 -12 -12 -21q-6 -8 -15 -22q-10 -15 -20 -25q-3 -2 -5 -5q12 -5 18 -8q7 -4 15 -9q7 -5 23 -18q19 -14 27 -26q5 -8 10 -15q6 -9 15 -29q10 -19 13 -31
q2 -10 5 -20q3 -12 5 -30q3 -19 3 -28v-17z" />
    <glyph glyph-name="l" unicode="l" horiz-adv-x="280" 
d="M79 697l-1 -9q-1 -7 -1 -13q-1 -8 -1 -19q0 -12 -1 -29q-2 -16 -3 -34t-2 -40v-45q1 -24 2 -49q1 -26 1.5 -52.5t0 -52.5t-1 -50.5t-0.5 -49.5q-1 -25 0 -46v-41v-35v-31q0 -15 1 -37q1 -23 1 -31v-10q1 -5 2 -12l1 -5q7 -2 13 -2q11 -2 22 -2q12 -1 25 -2h29q16 0 40 2
l24 3q10 1 17 -5t8 -15t-5 -16.5t-15 -8.5l-25 -2q-26 -3 -44 -3t-31.5 0.5t-25.5 1.5l-24 2t-24 4q-28 6 -28 31q0 4 -1 9q-2 8 -2 15q-1 8 -1 16q0 6 -1 28q-1 23 -1 39v31v34v41q-1 22 0 48q0 25 0.5 49.5t1 50t0 51t-1.5 51.5t-2 50v48q1 22 2 40q1 19 3 36q1 15 1 25
q0 12 1 19q0 9 1 20l1 9q2 9 9.5 14.5t16.5 4t14.5 -9t4.5 -16.5z" />
    <glyph glyph-name="m" unicode="m" horiz-adv-x="360" 
d="M78 731q9 1 16 -5t8 -15l1 -8q1 -8 3 -15q1 -8 3 -17q1 -7 7 -31t9 -40q4 -15 8 -33t12 -48q8 -31 12 -46q3 -15 6 -27q4 -13 7 -35q0 -3 1 -7q1 2 2 5q13 34 18 49q5 17 9 31q5 14 13 40q8 27 13 42l10 28q4 13 8 30t7 26q2 8 6 23q4 17 6 27q1 5 10.5 11.5t21.5 6.5
t16 -14q3 -9 5 -21q2 -11 5 -41q4 -31 5 -68t3 -58q2 -23 3.5 -69.5t1.5 -69v-45.5q0 -22 1 -64v-60.5v-50.5q-1 -31 -1 -44t-1 -36v-29v-31l1 -22q0 -9 -6.5 -15.5t-15.5 -7t-16 6t-7 15.5l-1 22v31v32q1 21 1 34t1 45v50v59q-1 42 -1 65v45q0 23 -2 68q-1 46 -3 67
q-2 23 -3 60v14l-2 -6q-5 -15 -10 -29t-13 -39q-8 -28 -12.5 -41.5t-9.5 -30.5t-19 -52q-15 -39 -30 -55q-1 -1 -7.5 -4.5t-16 -7t-17.5 1.5t-10 19q-1 8 -2 14q-2 7 -3 15l-4 28q-3 20 -5 31q-3 12 -7 27l-12 45q-8 31 -12 49q-1 5 -2 11q-1 -9 -1 -16q-1 -44 -1 -69
q0 -26 1 -50v-72q-1 -49 -3 -71t-4 -45q-2 -22 -4 -62q-2 -39 -3 -56q0 -13 -1 -26q-1 -11 -1 -26t1 -20q0 -5 2 -14l3 -11q3 -9 -2 -17.5t-14 -10.5t-17 2.5t-10 13.5l-3 11q-3 13 -4 21t-1 25t1 30q1 11 1 23q1 18 3 57q2 41 4 64t4 45q2 21 3 68v70q-1 24 -1 50t1 71
q2 45 3 63q1 17 1 32.5v25.5v34q0 9 7 16t16 7q2 0 4 -1q2 2 6 2z" />
    <glyph glyph-name="n" unicode="n" horiz-adv-x="312" 
d="M78 749q9 0 15.5 -7t6.5 -16v-6q0 -5 2 -17q3 -14 6 -30t7.5 -37t16.5 -73q11 -52 18 -81t15 -57t16 -57t19 -82q10 -52 17 -78t12 -48q4 -17 11 -40q1 24 2 67v80q-1 27 -1 55t-2 81t-3 73q-2 21 -3 56t-1 48t-1 26v35q-1 22 -1 38v35q0 9 6.5 15.5t16 6.5t16 -6.5
t6.5 -15.5v-35q0 -15 1 -37v-35q1 -14 1 -27t1 -47t2 -53q2 -21 4 -75t2 -83q0 -28 1 -54q0 -27 -0.5 -81.5t-2.5 -79.5q-1 -26 -2 -46q-2 -22 -2 -39q-1 -19 -2 -30q0 -1 -0.5 -3.5t-3 -8.5t-6 -9.5t-10.5 -3.5t-16 6q-6 3 -8.5 6.5t-3 6t-0.5 5v2.5q-2 9 -7 27t-9 29
q-3 12 -13 44.5t-15 55.5q-6 22 -13 48q-7 27 -17 80q-11 52 -19 79q-7 29 -15 57q-8 29 -15.5 58.5t-19 81.5t-16.5 74v2q-1 -22 -1 -74q1 -54 2 -82q2 -36 2 -65q0 -28 2 -57q1 -29 2 -60q0 -30 2 -79t3 -69.5t2 -35.5q1 -14 1 -25q1 -11 1 -22q1 -11 2 -26q1 -16 1 -25
v-9q0 -9 -7 -15.5t-16 -6.5t-15.5 6.5t-6.5 15.5v9q0 7 -1 22q-1 16 -2 27q0 10 -1 21q0 12 -1 26q-1 15 -2 35q-1 21 -3 70.5t-2 79.5q-1 30 -2 59q-2 30 -2 59q0 28 -2 59q-1 32 -1.5 87.5t0.5 77.5q1 23 2 39q2 16 2 27q1 15 5 27l3 9q2 9 10.5 13.5t17.5 1.5l4 -2
q4 2 8 2z" />
    <glyph glyph-name="o" unicode="o" horiz-adv-x="321" 
d="M153 684q-6 -3 -11 -3l-9 -1h-3q-3 -2 -6 -7q-6 -7 -14 -17q-6 -8 -12 -19q-6 -13 -10 -23t-7 -22q-4 -10 -4 -20q-1 -12 -3 -41.5t-3 -43.5q-1 -15 -1 -28v-61q0 -14 1 -30l3 -45q2 -31 2 -45q-1 -13 0 -25q0 -12 1 -23q2 -13 3 -25q1 -11 4 -35q3 -23 4 -31q2 -8 5 -18
t5 -19q2 -8 7 -18q5 -11 10 -19l10 -16q4 -7 9 -14q3 -3 8 -6.5t9 -4.5q5 -1 13 0q6 0 11 3q6 5 15 15.5t12 18.5q3 10 5 16t5 21q4 17 7 26q2 8 3 15q2 9 5 26t4 25q1 10 2 18q1 9 5 30q3 20 4 31q0 13 1.5 25t3.5 22q1 8 1 16q0 9 1 30.5t2 35.5v24v23q0 11 -2 32
q-3 22 -4 31q-2 10 -3 18t-3 25t-3 25q-1 7 -3 15q-1 9 -3 17q0 6 -4 14q-3 10 -7 19q-3 7 -9 18q-5 8 -8 10q-5 4 -13 7q-11 5 -18 7q-4 2 -6 2q-6 0 -12 -1zM134 725q5 3 10 3l6 1q7 0 13 1q11 0 22 -4q9 -3 21 -8q15 -6 23 -13q10 -7 20 -23q8 -14 12 -24q3 -9 7 -20
q5 -13 7 -24q1 -7 2 -15q2 -8 3 -17q2 -8 4 -25t3 -26q1 -7 2 -16q2 -9 5 -33q2 -24 2 -37v-23q0 -12 -1 -26q0 -14 -1 -35t-1 -30q0 -11 -2 -22q-1 -9 -3 -20q-1 -11 -1 -22q-1 -14 -5 -36q-3 -20 -4 -28l-2 -18q-1 -10 -5 -28q-3 -17 -4 -25q-2 -10 -5 -21q-2 -8 -6 -22
q-3 -17 -5.5 -24.5l-6.5 -19.5q-6 -15 -19 -31t-26 -24q-13 -9 -30 -11q-15 -2 -27 1q-13 3 -25 10.5t-19 18.5q-6 8 -11 16t-11 17q-6 10 -12 23q-6 14 -9 24q-3 9 -6 20t-5 21t-5 35q-3 24 -4 36q-1 11 -3 24q-1 13 -1 27q-1 13 0 27q0 11 -2 41t-3 46q-1 17 -1 32v61
q0 15 1 30t3 44.5t3 42.5q1 15 5 29q4 13 9 25.5t12 26.5q8 16 17 27q8 9 13 16q7 11 17 17q12 8 27 8h2z" />
    <glyph glyph-name="p" unicode="p" horiz-adv-x="230" 
d="M31 722q4 9 13 12t17 -1l11 -5q12 -6 22 -12q9 -6 19 -14q11 -7 21 -15q12 -9 31 -35q18 -26 25 -44t11 -36q4 -19 4 -60q1 -40 -2 -60t-8 -41q-5 -22 -19 -58t-24 -53q-9 -15 -18 -33q-10 -18 -17 -32l-8 -13q-4 -8 -13 -10.5t-17 1.5q-3 2 -5 4q0 -5 -1 -14
q-2 -46 -2 -65v-53q-1 -33 -1 -45v-19t1 -17l1 -11q1 -9 -5 -16.5t-15 -8t-16.5 5.5t-8.5 15l-1 11q-1 11 -1 20v19.5t1 46.5v52q0 20 3 67q2 47 3 72q1 26 2 53q2 26 3 53t1 52q-1 27 0 78q1 50 1 73t1 41q0 18 1 32q1 11 0 18l-1 9v7q-7 4 -10 12.5t1 16.5zM76 255l1 2
q7 13 17 31q10 19 19 35q8 14 21 46.5t17 51.5q5 19 7 37q3 17 2 54q0 36 -3 51q-3 14 -8 28q-6 13 -21 34t-22 27q-9 7 -19 14h-1v-10q-1 -12 -1 -30q-1 -18 -1 -40.5t-1 -73.5q-1 -50 0 -76q0 -27 -1 -55q-1 -27 -3 -54q-1 -27 -2 -52q-1 -9 -1 -20z" />
    <glyph glyph-name="q" unicode="q" horiz-adv-x="309" 
d="M167 100l1 -7q2 -6 4 -15q2 -6 6 -20q4 7 7 14q4 12 13 41q10 30 14 45t7.5 31.5t8.5 52.5q5 35 6 54q1 21 3 64q3 41 2 58q-2 17 -4 33q-2 15 -11 41q-10 29 -14 41q-4 13 -8 27q-4 12 -13 36t-14 34q-6 10 -18 28q-9 15 -15 23q-3 -9 -9 -13l-9 -6q-4 -2 -10 -10
q-6 -10 -11 -28q-6 -22 -9 -35q-3 -14 -5.5 -31.5t-4.5 -35.5t-5 -52t-4 -55q-2 -20 -3 -38.5t-1 -37.5q-1 -18 -1 -37v-56q1 -38 2 -55q1 -16 3 -32q1 -15 6 -44q5 -27 8 -38q4 -13 8 -24q3 -11 6 -19q2 -7 9 -21q5 -12 10 -18l2 -2q9 5 19 17q0 1 1 2q-2 8 -5 18
q-8 26 -10 36q-3 10 -5 17l-1 7q-2 9 3 17t14 10t17 -3t10 -14zM99 700q2 4 5 7l7 7q12 11 29 13q21 2 35 -15q7 -9 20 -29t19 -32q7 -12 17 -39q10 -26 14 -39q3 -13 8 -25q4 -12 14 -41q10 -31 12 -50q3 -17 4 -35q2 -20 -1 -65q-2 -42 -3.5 -63t-6.5 -58q-5 -38 -8.5 -56
t-8.5 -34q-4 -16 -14 -47q-9 -31 -15 -44q-6 -14 -14 -27q-7 -12 -15 -22q-1 -2 -2 -3q4 -13 13 -36q10 -27 14 -40q3 -12 10 -26l6 -15q4 -8 1 -17t-11.5 -12.5t-17.5 -0.5t-13 12l-6 15q-8 17 -12 31q-4 12 -13 37q-3 7 -5 13q-6 -5 -11 -8q-19 -13 -37 -8q-14 5 -25 18
q-9 11 -17 28q-7 16 -11 25q-3 9 -6 20q-4 11 -8 24q-4 14 -9 45q-5 30 -7 46q-2 18 -3 35t-2 57v57q0 17 0.5 37t1.5 39t3 40q2 20 4 54q3 35 5 54t5 37.5t6 33.5t10 38q7 25 17 40q10 16 22 24z" />
    <glyph glyph-name="r" unicode="r" horiz-adv-x="268" 
d="M39 681q-6 7 -4.5 16.5t8.5 15.5l11 8q14 12 31 17q16 4 26 3q12 -1 31 -11q19 -11 28 -24q7 -11 12 -23.5t11 -39.5q6 -26 7 -40q2 -13 2 -41t-3 -43q-2 -15 -9 -41t-11 -37.5t-9 -23.5t-14 -32t-14 -28q-5 -7 -14 -18q-7 -10 -11 -16q-4 -5 -8 -11q5 -9 14 -19
q14 -16 19.5 -23.5t15.5 -24.5q11 -16 16 -25.5t13 -27.5q8 -19 15 -37q7 -20 9 -29q3 -8 7.5 -25.5t6.5 -24.5t6 -23q5 -17 7 -31q1 -11 2 -18l2 -8q3 -9 -2 -17t-14 -10t-17 2.5t-10 13.5l-2 9q-3 10 -4 23q-1 10 -5 23q-5 16 -7 24q-2 7 -6 25q-4 15 -7 25q-2 8 -8 25
q-7 18 -15 35q-7 17 -11 24.5t-13.5 22.5t-14.5 21.5t-17 20.5q-5 7 -10 12v-9q-2 -36 -3 -79t-3 -73q-2 -29 -2 -41q-1 -13 -1 -30q0 -15 1 -26l2 -13q1 -9 -4.5 -16.5t-14.5 -8.5t-16.5 4.5t-9.5 14.5l-1 13q-2 14 -2 33q0 17 1 30q0 13 2 43q2 29 3 71q1 43 3 80
q2 36 2.5 89t-0.5 78q-1 26 1.5 78t6 91t5.5 52q1 9 2 17q-7 2 -12 8zM81 350q5 7 12 16q7 10 11 16q3 5 11 22q9 18 13 29q4 12 8 22t10 35q7 23 9 36q2 11 2 36q0 26 -1 37t-7 35q-5 23 -8.5 31.5t-8.5 15.5q-2 4 -12 9q-8 5 -12 6q-4 0 -10 -1v-5l-1 -13l-4 -26
q-1 -12 -5 -51q-4 -38 -6 -89q-2 -50 -1 -75q1 -26 0 -80v-6z" />
    <glyph glyph-name="s" unicode="s" horiz-adv-x="256" 
d="M186 684v6v14v1q-1 2 -5 5q-2 1 -10 2q-11 0 -17 -2q-6 -1 -22 -14q-17 -13 -24 -22q-8 -11 -14 -23t-10 -27q-5 -17 -8 -33q-3 -15 -4 -33q0 -17 7 -54q7 -38 15 -58q8 -21 16 -37q9 -17 18 -35q10 -18 21 -35q11 -18 28 -54q16 -35 22 -55q7 -21 9 -38q2 -16 4 -34
q1 -20 -4 -57q-6 -36 -12 -53.5t-15 -31.5q-9 -16 -18 -25q-10 -10 -32 -19q-25 -10 -41 -7q-12 3 -23 8q-13 5 -25 16l-9 8q-7 6 -8 15.5t5.5 16.5t15.5 7.5t16 -5.5l9 -8q7 -6 13 -9q7 -3 15 -5q5 0 15 5q13 5 17 9q5 5 12 16q6 11 11 24t9 45q5 31 4 46q-2 17 -4 32
q-2 14 -7 31t-20 49.5t-25 48.5q-12 18 -22 37t-19 37t-18 41q-10 24 -18 66q-7 41 -7 63q1 22 5 41q4 17 9 36t13 35t18 29q11 15 33 32q23 18 37 22q13 3 31 3q22 -1 35 -11q11 -9 17 -19q7 -12 6 -25v-12v-6q0 -9 -6.5 -15.5t-16 -6.5t-16 6.5t-6.5 15.5z" />
    <glyph glyph-name="t" unicode="t" horiz-adv-x="275" 
d="M48 724h6q6 0 22 2q19 1 30 1t22 1q13 1 29 1q14 -1 25.5 -1.5t21.5 -1.5h14l8 1q9 1 16 -5t8 -15.5t-5 -16.5t-15 -8l-8 -1h-22q-9 1 -20 2q-10 0 -21 1q3 -13 2 -30v-24v-22q0 -11 -1 -38.5t-1 -43.5q-1 -14 -2 -33v-50v-52t1 -33v-31t-1 -43v-39v-37v-35v-23
q0 -9 -2 -28q-1 -16 -1 -22v-15q0 -9 -1 -25q-2 -16 -3 -27q-1 -10 -1 -17v-22q0 -9 -7 -15.5t-16 -6.5t-15.5 6.5t-6.5 15.5v22q0 10 1 22q1 10 3 26q1 14 1 21v15q0 8 1 26q2 16 2 26v20v36v37v40q1 27 1 41.5v30.5q-1 29 -1 33v53v52q1 7 1.5 18.5t0.5 14.5q0 15 1 42.5
t1 37.5v22v26q1 10 -1 15l-2 9q-1 1 -1 2h-4q-11 0 -28 -1q-19 -2 -26 -2h-6q-10 0 -16.5 7t-6.5 16t6.5 15.5t16.5 6.5z" />
    <glyph glyph-name="u" unicode="u" horiz-adv-x="318" 
d="M70 688v-6v-23q1 -17 1 -30t1 -30q0 -17 1 -36q1 -20 1.5 -40t0.5 -39q1 -18 1 -39q1 -22 1 -43v-113v-33t-1 -32t-1 -29v-29q-1 -14 -2 -26q0 -11 1 -32q2 -21 2 -27q1 -5 4 -15q2 -9 9 -21q6 -13 11 -19q3 -4 11 -9q10 -6 16 -7.5t13 -2.5t14 0q5 0 10 2t12 5
q3 2 12 11q10 11 12 15q3 5 7 14t6 19q3 10 9 34q5 23 7 38q2 16 5 31q2 12 4 30q1 19 3 35q1 16 4 53q2 36 2.5 56.5t0.5 37.5v83q0 19 -2 53q-3 36 -3 49q-1 11 -2 23q-2 14 -3 23q-1 10 -1 22q-1 10 -2 18l-1 8q-2 9 3.5 16.5t15 9t17 -4t8.5 -14.5l2 -8q1 -10 2 -23
q0 -11 1 -19q1 -9 2 -22q2 -15 3 -28q0 -11 3 -46q2 -37 2 -57v-83q0 -18 -0.5 -39t-3 -58.5t-4 -53.5t-2.5 -35q-2 -20 -5 -35q-2 -13 -4 -28q-2 -17 -9 -43q-6 -24 -8 -35l-8 -24q-5 -12 -10 -20t-18 -22q-15 -16 -25 -21q-8 -4 -17 -7q-10 -4 -21 -5t-22 0t-22 4
q-12 4 -26 13q-16 9 -24 20q-7 9 -15 25q-9 16 -13 30q-3 13 -4 20q-1 8 -3 31q-1 23 -1 37q1 12 2 26v27q0 14 1 30t1 31v33v113q0 20 -1 42q0 21 -1 40q0 18 -0.5 37.5t-1.5 38.5q-1 20 -1 38q-1 17 -1 30t-1 30v24v6q0 9 6.5 16t16 7t16 -7t6.5 -16z" />
    <glyph glyph-name="v" unicode="v" horiz-adv-x="322" 
d="M70 714l2 -13l4 -28q1 -12 4 -34q3 -19 5.5 -44.5t5.5 -54.5q4 -30 8 -62q4 -33 8.5 -67t9 -67t13.5 -96q10 -63 14 -87q5 -24 9 -47q3 -18 5 -33q2 23 5 50q3 35 5 70q2 37 8 111t11 109.5t10.5 70.5t12 67t18 80t16 62t7.5 24l3 9q3 9 11 13t17 1.5t13 -11t1 -17.5
l-3 -9q-2 -9 -6 -22t-15.5 -60.5t-17.5 -77.5q-6 -32 -12 -66.5t-11 -68.5q-4 -35 -10 -108q-7 -73 -8 -109q-2 -36 -5 -71.5t-6 -63.5t-7 -49q-3 -23 -9 -37q-1 -3 -9.5 -10t-20 -10.5t-19.5 13.5q-5 10 -9 30q-4 18 -7 33q-4 15 -6 34q-3 17 -6 39q-4 22 -9 45
q-5 25 -14 89q-10 64 -14.5 97.5t-8.5 66.5q-5 35 -8 67q-5 33 -8 62q-4 30 -7 56q-2 26 -5 45q-2 20 -4 33q-1 12 -3 25l-3 13q-1 9 4 16.5t14.5 9.5t17 -3.5t9.5 -14.5z" />
    <glyph glyph-name="w" unicode="w" horiz-adv-x="370" 
d="M70 707v-14q0 -12 1 -24q1 -14 2 -31q1 -16 6 -59t7 -68t4 -51q2 -27 3.5 -81.5t1.5 -78.5v-51q1 -27 2 -52q0 -20 2 -52q2 18 8 51q7 37 10 56t7 38q3 17 9 44q5 25 7 34q1 9 2 16q1 8 3 16q1 10 5 15t9 5t10.5 -2t10.5 -5.5t9 -7.5l7 -7l2 -2q11 -21 15 -37
q3 -12 7 -24q4 -14 9 -44q5 -28 8 -43q4 -15 7 -31q3 -15 9 -42q0 -2 1 -6q2 18 5 43q5 45 8.5 73.5t7.5 56.5q4 26 10 78q7 52 9 70t4 37t2 45v41v25q0 10 -1 26q0 15 1 27v16v7q0 9 6.5 16t16 7t16 -7t6.5 -16v-7q0 -7 -1 -19v-22q1 -17 1 -28v-25v-41q0 -29 -2 -49
l-4 -38q-3 -19 -9 -71t-10 -79t-8 -55q-3 -28 -8.5 -73t-7.5 -66q-2 -20 -2 -40q0 -21 -1 -51.5t-2 -38.5v-13q1 -12 -20 -17t-25 7q-3 8 -6 23q-3 12 -5.5 23t-4.5 19t-3 18q-1 7 -5 26q-4 20 -6 32q-2 10 -7 37q-6 27 -9 43q-4 15 -7 30q-3 16 -8 45q-5 27 -8 39
q-6 -26 -9 -42q-4 -17 -6 -36q-3 -19 -10 -57q-7 -37 -8 -52q-2 -18 -9 -58q-6 -38 -9 -56t-6 -32q-1 -5 -11.5 -12t-22 -6.5t-15.5 15.5q-3 11 -6 31q-3 19 -4 31t-2 26t-4 54q-3 41 -3.5 67t-1.5 52v52t-1.5 77.5t-3.5 79.5l-4 50t-7 67q-5 44 -6 61t-2 30q-1 14 -1 29v14
q0 9 7 15.5t16 6.5t15.5 -7t6.5 -16z" />
    <glyph glyph-name="x" unicode="x" horiz-adv-x="328" 
d="M178 223q-10 50 -16 79q0 4 -1 8l-8 -30q-8 -31 -17 -64t-25 -87q-15 -53 -22 -71q-5 -17 -10 -32q-5 -13 -7 -23l-3 -9q-2 -9 -10.5 -14t-17 -2.5t-13.5 11t-2 17.5l3 9q2 11 7 25q5 15 11 32t21 70q15 52 24 85q9 34 18 65q8 32 17 65q8 27 16 53q-2 6 -3 11
q-5 28 -15 81.5t-14 76.5q-4 24 -6 40t-3 32q-2 16 -3 27l-2 11q-1 10 5 17t15 8.5t16.5 -4.5t8.5 -15l1 -11q2 -12 3 -28q2 -15 4 -32q2 -15 5 -37q4 -23 14 -76q2 -9 2 -11q10 26 23 62q17 48 22 66q6 19 11 33q5 16 12 28l9 18q4 10 9 18l4 7q5 8 14 10.5t17 -2.5
t10.5 -14t-2.5 -17l-4 -7q-4 -6 -7 -13q-4 -10 -10 -21q-5 -9 -9 -21q-5 -14 -10 -32q-6 -19 -24 -68t-28 -78t-19 -60v-1l6 -36q6 -32 12 -62q5 -29 16 -83q12 -54 16 -78q4 -22 9 -43q5 -22 17 -67q11 -43 13 -50l3 -8q4 -8 0 -16.5t-12.5 -12t-17 0t-12.5 12.5l-2 7
q-4 8 -16 56q-11 46 -17 68q-5 22 -9 45t-17 82z" />
    <glyph glyph-name="y" unicode="y" horiz-adv-x="273" 
d="M247 687l-3 -9q-3 -7 -10 -40q-8 -35 -10 -50q-2 -16 -10 -51q-7 -35 -16 -81q-8 -46 -13 -72q-5 -25 -9 -43q-3 -18 -7 -30l-5 -20q-2 -10 -5 -18l-2 -7q-1 -2 -3 -4q1 -7 1 -12q2 -12 4 -34q3 -24 3 -50v-86q0 -10 1 -31l2 -22v-1q1 -11 0 -19q0 -9 -1 -17l-1 -8
q0 -9 -7.5 -15t-16.5 -5.5t-15 8t-5 16.5v8q1 8 1 16q1 6 -1 17l-2 13q0 5 1 10q-1 19 -1 30v86q0 24 -2 44q-3 23 -4 36q-2 13 -3 35q0 9 -1 17q-1 3 -2 5l-4 12q-4 12 -7 28t-11 50t-13 55.5t-12 60.5q-8 39 -15 75q-7 37 -12 65t-5 38l-1 8q-1 9 5.5 16t15.5 7.5t16 -5.5
t8 -15l1 -8q0 -7 4 -34q5 -26 12 -63q7 -36 15 -76q7 -38 12 -58.5t13 -55.5q5 -24 8 -38q2 11 6 28q5 25 13 71q9 46 16 82q7 34 10 49q2 16 10 52q8 37 12 47l3 9q4 9 12.5 12.5t17 0.5t12.5 -12t0 -17z" />
    <glyph glyph-name="z" unicode="z" horiz-adv-x="247" 
d="M94 705h7q6 0 15 2l22 2t26 3q19 2 34 -3q10 -4 16 -11t6.5 -17.5t0 -15.5l-1.5 -15q-5 -32 -10 -54q-4 -21 -14.5 -67t-17 -72.5t-13.5 -50.5q-6 -24 -13 -49q-6 -24 -14 -49q-6 -22 -17 -65q-12 -44 -18 -63l-9 -36t-7 -29t-7 -32q-3 -20 -5 -29q-2 -8 -2 -21
q-1 -12 -2 -23q6 -1 9 -1q7 1 16 2q9 2 19 3q9 1 25 3t23 3t15 1t18 -1l8 -1q9 -1 14.5 -8.5t4.5 -16.5t-8.5 -15t-16.5 -5l-8 1q-7 1 -12 1h-9q-7 -1 -23.5 -3t-25.5 -3q-8 -1 -16 -3q-10 -2 -19 -3q-14 -1 -31 4q-13 4 -21 15.5t-7 25.5q1 12 2 26q1 16 3 27q1 9 5 29
q3 19 6.5 33.5t7.5 30.5q4 17 10 37t17.5 63t17.5 65q7 25 14 49q6 24 13 49q7 23 13 49t16 72q11 46 15 67q5 20 9 50q1 6 1 11h-7q-15 -2 -25 -2q-10 -1 -20 -3q-12 -2 -22 -2h-7q-9 0 -16 7t-7 16t7 15.5t16 6.5z" />
    <glyph glyph-name="braceleft" unicode="{" horiz-adv-x="326" 
d="M274 689l-8 1l-2 -2q-7 -4 -12 -9q-7 -5 -13 -11t-17 -19q-11 -12 -16 -21t-9 -18q-4 -10 -8 -21q-3 -10 -8 -39t-7 -47q-2 -20 -4 -37t-3 -35l-6 -51q-3 -33 -6 -48q-2 -16 -5 -29q-3 -12 -6 -26q-4 -15 -13 -38q-11 -25 -19 -37q-8 -10 -21 -23q-2 -1 -4 -3
q9 -6 17 -12q13 -13 22 -29q7 -14 10 -25q3 -9 5 -20q3 -11 6 -33q3 -21 4 -32.5t1 -23.5q0 -10 0.5 -19.5t4.5 -29.5q3 -19 6 -27q3 -9 7 -16q3 -6 16 -21q12 -12 17 -16q3 -2 8 -3q6 -1 24 -2q18 0 27 2l12 3q9 2 17 -3t10 -14t-3 -17t-14 -10l-12 -3q-14 -3 -37 -3
q-24 1 -34.5 3.5t-19.5 7.5q-10 5 -28 25q-18 19 -23 31q-5 9 -9 20q-5 12 -9 35q-3 22 -4 33.5t-1 23.5q0 10 -1 20t-4 30q-2 19 -5 29q-2 10 -4 18q-2 6 -7 17q-5 8 -13 15q-7 7 -19 11t-17 4q-7 1 -11 23t9 23q2 1 5 3q8 7 19 18q11 10 17 18q5 6 13 26t11 32q3 13 6 25
q3 11 5 25q2 15 6 47q3 33 4.5 50.5t4 35.5t4.5 36q2 20 7 51q5 32 10 46q4 12 9 23q4 11 11 23q7 13 21 28q13 16 20 23q7 6 13 12q8 7 19 13q15 10 31 9l8 -1q9 -1 15 -8.5t5 -16.5t-8.5 -15t-16.5 -5z" />
    <glyph glyph-name="bar" unicode="|" horiz-adv-x="104" 
d="M79 714l-2 -8q-1 -7 -2 -16q-1 -10 -2 -27t-1 -39t-1 -48q0 -27 -1 -56q0 -28 1 -59q1 -32 2 -92q1 -58 2 -86q1 -29 1 -57v-54.5t-0.5 -51t-1.5 -52.5q0 -27 1 -57q1 -32 2 -53l1 -21q0 -9 -6.5 -16t-15.5 -7t-16 6.5t-7 15.5l-1 21q-1 21 -2 52t-1 60q1 27 1 52
q1 25 1 51v53t-1 56t-2 88q-1 58 -2 90q-1 33 -1 62q1 29 1 55q1 27 1 49q0 23 1 40.5t2 28.5t3 20l1 8q2 9 9.5 14.5t17 4t14.5 -9.5t4 -17z" />
    <glyph glyph-name="braceright" unicode="}" horiz-adv-x="301" 
d="M31 728l9 10q14 16 28 19q10 3 21.5 3t23.5 -3q17 -4 29 -17q10 -13 13 -26q1 -8 4 -30q3 -24 2 -37v-21t-1 -24v-24q-1 -11 -1 -23q0 -13 1 -37q0 -23 1 -35l4 -24t4 -23l4 -20q3 -9 11 -27q9 -18 13 -24q3 -5 12 -14q11 -10 21 -16q12 -8 20 -14q7 -4 11 -6
q15 -7 15.5 -23.5t-6.5 -21.5q-8 -10 -23 -22q-11 -8 -18 -19q-9 -10 -12 -16.5t-9 -25.5t-7 -30q-2 -10 -3 -23q-1 -15 -2 -27q-2 -11 -3 -24q-1 -15 -6 -43q-5 -26 -7 -38l-4 -24q-3 -14 -12 -34q-8 -19 -14 -29q-7 -10 -18 -20q-13 -12 -26 -17q-13 -6 -31 -5h-12
q-9 0 -15.5 7t-6.5 16t7 15.5t16 6.5h13q7 0 12 2q6 2 12 8q8 7 12 12q3 6 10 21.5t9 25.5q2 12 4 23q2 9 7 38q4 25 5 38q1 15 3 27q2 11 2 24q2 15 3 27q2 13 9 36q7 22 12 32t16 25t27 26q1 2 2 3q-7 5 -16 11q-13 8 -27 20q-14 13 -21 24q-5 9 -15 29q-9 21 -13 34
q-3 12 -5 24q-3 12 -5 24t-3 26q-2 14 -2 40q-1 24 -1 37t1 25q0 11 0.5 23t0.5 23v24q1 9 -2 28q-2 20 -3 28l-4 4q-2 3 -4 4q-7 1 -13 1q-5 0 -10 -1l-6 -6l-10 -10q-6 -7 -15.5 -7.5t-16 5.5t-7 15.5t5.5 16.5z" />
    <glyph glyph-name="asciitilde" unicode="~" horiz-adv-x="540" 
d="M25 233l2 7q2 10 8.5 21t24.5 26q18 14 26 18q7 4 16 7q11 3 26 2q13 -2 26 -6q12 -4 28 -12q17 -8 32 -16q16 -9 34 -19t35 -19q16 -8 32 -15q15 -6 29 -9t27 -5q11 -2 34 4q24 5 33 9.5t18 11.5t13.5 12.5t7.5 11.5t4 12q2 4 1 11t-3 12l-4 7q-3 6 -1 12.5t8 9.5t13 1
t10 -8l3 -7q5 -10 6.5 -23.5t-1.5 -23.5q-2 -8 -6 -17q-5 -10 -12 -18.5t-19 -17.5t-23.5 -15t-40.5 -13q-29 -6 -46 -4q-15 2 -30 6q-16 4 -34 11q-17 7 -34 16q-17 8 -36 19q-19 10 -34 19l-30 16q-15 7 -25 10q-9 3 -19 4q-8 1 -12 -1q-6 -1 -11 -4t-20 -15
q-13 -11 -17 -17t-5 -11l-1 -7q-2 -7 -7.5 -11t-12.5 -2.5t-10.5 7.5t-2.5 13z" />
    <glyph glyph-name="cent" unicode="&#xa2;" horiz-adv-x="324" 
d="M189 750l-2 -16q-1 -15 -1 -22v-16t-1 -26v-16q0 -3 -1 -5q9 1 19 0q19 -2 30 -7q13 -5 26 -17q10 -10 16 -19l5 -6q5 -8 3.5 -17t-9 -14.5t-17 -4t-14.5 9.5l-5 7q-4 5 -11 12q-6 6 -10 7q-6 3 -19 4q-11 1 -16 0q-6 -2 -18 -10q-13 -8 -17 -14q-6 -6 -12 -14
q-5 -8 -11 -18t-16 -34q-10 -22 -14 -34q-3 -13 -7 -29.5t-7 -31.5q-2 -14 -6 -47q-3 -35 -3 -51q-1 -18 -1 -34t3 -48q3 -33 6 -47l6 -30q3 -14 10 -37.5t11 -32.5t9 -18t10 -16q4 -5 16 -12q13 -8 20 -10q6 -2 13 -2q10 0 21 2q8 1 24 10q19 10 26 14q3 2 8 8l7 9
q6 7 15.5 8t16.5 -5t8 -15.5t-5 -16.5l-7 -9q-10 -12 -21 -18q-7 -4 -27 -15q-22 -12 -38 -15h-5v-13q0 -7 1 -30q2 -23 3 -37l1 -15q1 -9 -5 -16t-15.5 -8t-16.5 5t-8 16l-1 14q-1 15 -3 39q-1 24 -1 32v13q-3 1 -5 2q-12 4 -30 15q-19 12 -27 23q-7 10 -13.5 21t-11.5 22
q-5 12 -13 37.5t-11 41.5q-3 15 -6 31t-7 50q-3 35 -3 54q0 17 1 35q0 18 4 53q3 36 6 52t7 33t8 30q4 16 16 42q11 25 18 37t14 22t14 18q8 10 26 22q6 3 9 5q-9 8 -8 19v16q1 16 1 24v16q0 9 2 26l1 16q1 9 8 15t16.5 5t15.5 -8t5 -16z" />
    <glyph glyph-name="sterling" unicode="&#xa3;" horiz-adv-x="275" 
d="M50 447l7 -1q8 -1 18 -2h1q3 40 8 80q7 57 12 80q5 25 16 57q13 35 27 50q17 17 40 20q22 3 39 -5l10 -6q8 -4 10.5 -13t-2 -17t-13.5 -11t-17 2l-10 5q-3 2 -11 1t-13 -7q-8 -8 -17 -34q-11 -29 -15 -50q-4 -23 -11 -78q-5 -37 -8 -77q20 0 35 -3q18 -2 31 -4l14 -3
q9 -1 14.5 -8.5t4.5 -16.5t-8.5 -14.5t-16.5 -4.5l-14 2q-15 2 -32 5q-12 2 -30 2q-3 -53 -4 -77q-1 -26 -3 -71t-6 -84q-3 -39 -5.5 -54.5t-8.5 -37.5q-5 -22 -10 -37l-4 -12q10 0 29 2q23 1 43 4q30 4 44 5q12 0 21 2l9 1q9 2 16.5 -3.5t9 -14.5t-4 -17t-14.5 -9l-9 -2
q-11 -1 -25 -2q-13 -1 -37 -4q-25 -4 -50 -5q-24 -2 -35 -2q-15 -1 -27 4q-14 5 -18 20t1 24q4 10 9 23q4 14 9 33q4 21 6.5 35t6.5 51q3 38 5 82q2 45 3 71q1 24 4 78h-5q-9 1 -16 2l-8 1q-9 1 -15 8t-5 16t8 15t17 6z" />
    <glyph glyph-name="yen" unicode="&#xa5;" horiz-adv-x="302" 
d="M49 222h21h27v4q1 6 3 19q1 14 3 22q-27 0 -41 1l-16 1q-9 1 -15.5 8t-5.5 16t8 15t16 6l16 -1q11 -1 31 -1q-3 12 -7 29q-8 33 -12 56q-3 22 -10 79q-7 55 -14 107q-6 53 -10 85t-6 41l-3 11q-2 9 2.5 17.5t13.5 10.5t17 -2.5t10 -13.5l3 -11q4 -13 8 -47q4 -33 10 -85
q7 -51 14 -108q6 -55 10 -77q2 -13 5 -28q1 4 2 9q6 27 12 60q7 32 14 71q7 38 16 74t14 65q6 29 7 38q1 10 3 21l2 10q2 9 10 14t17 3.5t14 -9.5t4 -17l-2 -10q-2 -9 -3 -18q-2 -10 -7 -40q-6 -31 -15 -68q-9 -35 -16 -71q-7 -39 -13 -72q-7 -34 -13 -61t-9 -46
q-2 -8 -3 -15q7 1 15 2q32 3 54 6l22 3q9 1 16.5 -5t8.5 -15t-4.5 -16.5t-15.5 -8.5l-21 -3q-22 -2 -55 -6q-16 -2 -31 -3q-2 -6 -3 -10q-1 -5 -3 -17q-1 -10 -2 -17h6q12 1 40 5l28 3q9 2 16.5 -4t9 -15t-4.5 -16.5t-15 -8.5l-29 -4q-29 -4 -42 -5h-13q-1 -8 -1 -16
q-1 -21 -1 -30q0 -8 -1 -25q-1 -15 -1 -28v-58q0 -9 -7 -16t-16 -7t-15.5 7t-6.5 16v58q0 15 1 32q1 15 1 23t1 29q0 7 1 13h-23h-21q-9 0 -16 6.5t-7 15.5t7 16t16 7z" />
    <glyph glyph-name="section" unicode="&#xa7;" horiz-adv-x="270" 
d="M201 654v8q0 3 -1 5q-2 4 -7 10q-2 4 -8 6q-8 4 -12 5q-6 -1 -18 -5q-16 -5 -20 -8q-5 -4 -16 -21q-12 -19 -17 -31t-8 -24q-3 -10 -3 -37q1 -27 5 -39q4 -14 19 -44q14 -28 23 -38q10 -13 20 -23q10 -11 29 -33q19 -24 29.5 -44t13.5 -32q2 -14 -5 -37q-7 -24 -23 -39
l-11 -11q-8 -8 -20 -6q2 -2 3 -4q9 -10 21 -30q12 -21 16 -32q4 -14 1 -37t-11 -37q-8 -13 -32 -38q-25 -24 -44 -36l-17 -11q-8 -4 -17.5 -2t-14 10t-2.5 17t10 14l17 10q15 10 36 30q20 20 24 28q4 6 6 21q2 13 1 18q-2 6 -12 22q-10 17 -16 24q-8 9 -18 21q-9 12 -32 36
q-25 27 -34 40q-8 13 -18 37q-12 26 -13 37q-1 10 1 22q2 11 8 29t11 26q4 10 18 27l7 9q-12 27 -17 42q-6 18 -7 52t4 51q5 14 11 29t21 38q14 22 25 31q12 9 35 16q25 8 37 6q9 -1 23 -7q17 -7 27 -21q9 -11 12 -20q5 -11 5 -22v-8q0 -9 -7 -15.5t-16 -6.5t-15.5 6.5
t-6.5 15.5zM94 424q-7 -8 -9 -12q-3 -7 -8 -22q-5 -14 -6 -21q-1 -6 -1 -11q1 -6 9 -23q9 -21 16 -31q6 -10 28 -33l30 -33q0 9 6 16l12 11q7 7 11 20q3 11 4 16q-2 6 -9 19q-9 16 -25 36q-17 21 -27 31q-11 11 -22 24q-4 6 -9 13z" />
    <glyph glyph-name="copyright" unicode="&#xa9;" horiz-adv-x="651" 
d="M309 605q-5 -3 -9 -4l-11 -2q-10 -2 -21 -5t-16 -6q-6 -2 -20 -11q-15 -9 -24 -14q-7 -5 -16 -14q-9 -8 -27 -30q-19 -22 -28 -35q-8 -11 -23 -40q-15 -30 -20.5 -45t-12.5 -46.5t-8 -44.5q-2 -14 -3 -30q-1 -14 3 -40.5t14 -51.5q10 -26 16 -38q6 -11 13.5 -19.5
t29.5 -26t34 -24.5t37 -17t36 -12.5t33 -4.5q22 -1 35 -1q12 0 37.5 6t35.5 11q12 5 33 18q22 12 32 18q9 6 29.5 25t30.5 31q9 12 22 40q14 30 19 44q5 16 13 46q8 29 9 41q0 14 -4 45t-12.5 59.5t-15.5 40.5q-6 12 -15 23q-7 11 -30 31q-24 20 -33 26q-10 7 -36 20
q-25 14 -35 18t-32 10q-22 5 -38 7q-14 2 -22 2zM264 639q6 7 14 8l8 1q10 1 20.5 1.5t29.5 -1.5q20 -2 44 -9q25 -7 37.5 -11.5t39.5 -19.5t39 -22t38 -30t37 -37q11 -15 19 -30q9 -15 19 -47.5t14 -67.5t4 -52q-1 -18 -10 -52q-9 -31 -14 -48q-6 -17 -21 -49
q-16 -33 -28 -49q-12 -15 -35 -36t-35 -29q-11 -7 -35 -21q-23 -13 -36 -19q-15 -6 -45 -13t-46 -8q-15 0 -39 1q-26 2 -40.5 5.5t-42.5 14.5q-28 12 -42 20t-40 28q-26 21 -36 33t-18 26q-8 15 -19 44q-12 30 -16.5 61.5t-3.5 49.5q2 16 3 31q2 17 9.5 50.5t14 51.5
t22.5 50t27 46q9 14 29 38q20 23 31 34t22 18q10 6 26 16q17 10 24 13q8 4 22 8q4 1 9 2zM366 408l1 7q1 6 1 21q0 13 -2 17t-5 8q-2 2 -8 5q-9 4 -18 5q-9 2 -14 2t-9 -1q-5 -2 -18 -7t-18 -8q-5 -2 -14 -10q-6 -6 -8 -9q-3 -5 -8 -21q-6 -18 -11 -38q-6 -19 -7 -28.5
t-2 -30.5t1 -37q2 -18 4 -26q1 -7 7 -18q5 -10 13 -19q9 -9 14 -11q7 -4 22 -10q14 -7 21 -9q5 -1 20 -1t27 5q11 4 20 12l11 11q7 7 16.5 6.5t16 -7t6 -16t-6.5 -15.5l-12 -11q-16 -15 -36 -22q-19 -7 -41 -8q-22 0 -33 3q-10 3 -28 11q-16 7 -24 11q-11 6 -25 19
q-14 14 -22 32q-7 15 -10 27q-2 11 -4.5 30.5t-1.5 44.5q1 24 3 35q1 12 7 34q6 21 12 40t10 27q6 11 20 23q13 11 21 16q8 4 23 10t23 8q9 2 19 3t25 -2q14 -3 27 -9q15 -7 23 -16t13 -20q6 -12 6 -35q0 -19 -2 -29l-1 -7q-2 -9 -9.5 -14.5t-16.5 -4t-14.5 9.5t-3.5 17z
" />
    <glyph glyph-name="registered" unicode="&#xae;" horiz-adv-x="640" 
d="M255 646q2 1 3 2l8 5q11 6 48 12t76 -4q37 -10 58 -23q21 -11 58.5 -44.5t51.5 -51.5q14 -19 34 -64q19 -45 22 -67q3 -21 1 -65q-3 -44 -17 -93q-15 -48 -26 -71q-11 -24 -32 -56q-22 -31 -33 -45q-14 -15 -40 -31t-41 -21q-16 -6 -47 -9q-29 -2 -46 0q-16 2 -51 9.5
t-52 12.5t-55 21t-58 30q-20 15 -44.5 48.5t-31.5 52.5q-6 18 -11.5 57.5t-4.5 59.5q2 18 10 56q8 37 14.5 56t14.5 36q9 18 29 48q21 29 32.5 43t33.5 34q23 22 35 30q12 7 30 17q17 10 31 15zM315 620q-6 -7 -13 -8l-9 -2q-8 -1 -19 -5q-11 -3 -27 -13q-18 -10 -29 -17
q-9 -5 -28 -23q-21 -19 -30.5 -31t-29.5 -40q-18 -27 -25 -41q-7 -15 -13 -31.5t-13 -51.5q-8 -34 -9 -49t4 -50.5t10 -48.5q4 -13 24.5 -41t35.5 -38q15 -11 49 -26q35 -15 50 -19q15 -5 49 -12q32 -7 46 -9q13 -1 37.5 1t35.5 6t32 17q21 12 29 22q11 12 30.5 41.5
t28.5 49.5q10 20 23 65q14 44 16 83t0 56q-2 16 -20 55q-17 40 -28 55q-11 14 -45.5 44.5t-50.5 39.5q-16 10 -48 18q-30 8 -57 4q-3 -1 -6 -1zM311 306q-4 -2 -7 -3q-27 -9 -36 -11q-5 -1 -13 -4l-10 -4q-1 -1 -3 -1q-1 -17 -1 -27q-1 -13 -1 -24t1.5 -30t3.5 -29l2 -11
q1 -9 -4.5 -16.5t-14.5 -9t-16.5 4t-9.5 14.5l-1 11q-2 12 -4 33t-2 33t1 26q1 13 2 39t2 40q1 12 1 25v36v37q-1 11 -1 19q-1 9 -1 20l-1 11q-1 9 5 16t15 8l4 4l6 5q11 10 29 14q13 2 23 4l16 2q11 1 33 -1q23 -1 34 -5q12 -4 27 -13q17 -11 29 -33t13 -35q0 -7 -1 -17
q0 -11 -5 -28t-10 -26q-5 -10 -21 -26q-12 -13 -31 -24q8 -5 16 -12q13 -12 26 -35q12 -20 16 -30q3 -9 7 -19q3 -9 9 -21q6 -14 8.5 -21t6.5 -17l3 -9q3 -9 -1.5 -17.5t-13 -11.5t-17 1.5t-11.5 13.5l-3 9q-3 9 -5.5 15l-7.5 18q-7 14 -10 25q-4 9 -7 17q-3 7 -13 25
q-9 16 -17 23q-8 8 -17 12q-9 5 -14 7l-7 2q-1 0 -1 1zM245 332q8 3 15 5q6 1 29 8q23 9 44 19q19 10 30 21q11 12 14 16q2 5 5.5 17.5t4.5 18.5v12q-2 4 -7 15q-7 13 -14 17q-10 6 -16 8q-7 2 -24 3q-18 2 -25 1l-16 -2q-7 -1 -18 -3q-7 -2 -9 -4l-7 -5q-3 -3 -7 -4
q0 -10 1 -18q0 -10 1 -22v-36v-38q0 -14 -1 -28v-1z" />
    <glyph glyph-name="degree" unicode="&#xb0;" horiz-adv-x="251" 
d="M117 613l-5 -1q-5 -1 -10 -3q-4 -2 -11 -7q-6 -3 -10 -9t-8 -15q-3 -8 -3 -13v-12q1 -4 3 -9q3 -7 6 -16q2 -4 5 -8.5t12 -10.5q8 -5 14 -6q7 -1 14 0q8 1 14 4q8 4 15 8q7 5 12.5 10.5t10.5 12.5q3 4 4 8q1 6 2 10q0 3 -1 7q-2 6 -5 12q-2 5 -7 11q-4 6 -9 10
q-5 5 -12 9q-3 1 -4 1l-6 -1q-12 -1 -21 8zM130 650h2l6 1q15 2 31 -7q12 -6 21 -14q8 -8 15 -17t12 -19t7 -20q3 -11 2 -21q0 -9 -3 -19q-3 -12 -11 -23q-6 -9 -14.5 -17t-18.5 -16q-10 -7 -22 -12q-14 -6 -28 -8q-14 -1 -27 1q-14 2 -30 13q-15 9 -23 19t-12 21l-6 16
q-4 10 -5 20q-1 9 -1 19q1 12 6 27q6 14 14 26q9 12 21 20q10 7 19 10q7 3 15 6l7 1q13 4 23 -7z" />
    <glyph glyph-name="plusminus" unicode="&#xb1;" horiz-adv-x="409" 
d="M49 61l15 -1q14 -1 47.5 -1.5t75 0t80.5 3.5q41 3 53 3h11q9 0 15.5 -7t6.5 -16t-6.5 -15.5t-15.5 -6.5h-11q-10 0 -50 -3t-82.5 -3.5t-76.5 0.5q-34 0 -50 1l-15 1q-9 0 -15 7t-6 16t7 15.5t17 6.5zM63 344l16 1q16 1 33 0.5t34 -1.5q14 0 46 1q0 3 1 10q2 19 7 57
q4 39 5 56q1 19 3 49q3 32 5 43l2 10q2 9 10 14t17 3t14 -10t3 -17l-2 -9q-2 -9 -4 -38q-2 -30 -3 -47q-1 -19 -6 -59q-4 -39 -6 -57q0 -1 -0.5 -1.5l-0.5 -0.5q13 1 21 1q19 1 36 3q18 1 35 2q15 0 23 1l8 1q9 1 16 -5t8 -15.5t-5 -16.5t-15 -8l-8 -1q-9 -1 -26 -1
q-15 -1 -32 -2q-18 -2 -38 -3q-11 0 -28 -1q-2 -15 -3 -34q-2 -27 -2 -40q1 -15 1 -25q1 -9 3 -21l3 -13q1 -9 -4 -17t-14 -9.5t-17 3.5t-10 14l-2 14q-3 15 -4 27q0 11 -1 25q0 15 2 45q1 16 2 28q-27 -1 -42 -1q-18 1 -33 1q-15 1 -29 0l-15 -1q-9 -1 -16.5 5t-8 15.5
t5.5 16.5t15 8z" />
    <glyph glyph-name="uni00B2" unicode="&#xb2;" horiz-adv-x="209" 
d="M40 654l4 8q4 11 13 21q9 12 24 20q17 8 36 5q18 -2 33 -15q15 -11 22 -26q6 -13 9 -30q4 -16 3 -34q-1 -16 -3 -32q-2 -18 -6.5 -36t-12.5 -36.5t-16 -33.5l-18 -28q-10 -14 -18 -26q-10 -13 -16 -21t-11 -15t-10 -16l-2 -4l2 -2q4 -6 6 -7q4 -1 10 -2q9 0 21.5 -1
t24.5 -1l11 -1q10 -1 16 -8t5.5 -16t-7.5 -15.5t-16 -5.5l-12 1q-11 0 -24 1q-12 1 -22 1q-14 1 -25 6q-12 6 -23 19q-13 16 -13 30q0 12 9 28q6 10 12 18.5t13 17.5q5 7 14 19t18 25l16 26q7 12 13.5 27.5t10.5 31t6 30.5t2 28q1 11 -1.5 22.5t-6.5 19.5q-3 6 -9 12
q-5 4 -11 5q-5 0 -10 -2q-6 -3 -9 -7q-5 -5 -7 -11l-3 -8q-4 -8 -12.5 -11.5t-17 0t-12 12t-0.5 17.5z" />
    <glyph glyph-name="uni00B3" unicode="&#xb3;" horiz-adv-x="201" 
d="M29 675l6 8q7 10 16.5 19.5t21.5 15.5q13 8 28 10q17 2 33 -6t27 -25q9 -15 12 -25q2 -10 3 -19v-16q1 -11 -1 -22.5t-11 -32.5q-8 -19 -12 -27q-5 -8 -9 -15q-4 -8 -10 -16q-6 -7 -13 -15q-5 -6 -5 -9q-1 -1 -1 -3q1 -4 7 -13q8 -13 11.5 -21t6 -17t4.5 -24q3 -18 2 -28
q-1 -9 -4 -19t-8 -20q-5 -11 -18.5 -24.5t-25.5 -19.5l-8 -4q-8 -4 -17 -1t-13 11.5t-1 17t11 13.5l8 4q5 2 13.5 10.5t10.5 12.5q3 6 4 12q2 7 3 13v2.5t-0.5 5t-0.5 7.5q-2 13 -4 18.5l-4 11t-9 16.5q-9 15 -11 26q-4 13 0 26q4 12 14 24q7 9 12 15q4 5 7 11l8 14
q4 6 11 23q6 16 7.5 22.5t1.5 12.5q-1 9 -1 16q0 4 -2 9q-1 4 -6 13q-4 7 -9 9q-4 2 -7 1q-6 0 -12 -4q-7 -4 -13 -10t-11 -12l-5 -7q-6 -8 -15 -9.5t-16.5 3.5t-9 14.5t3.5 16.5z" />
    <glyph glyph-name="uni00B5" unicode="&#xb5;" horiz-adv-x="361" 
d="M310 373v-23q1 -32 3 -100v-24q2 -50 2 -73q1 -27 1 -50q0 -21 3.5 -52.5t5.5 -44.5q3 -12 6 -20l4 -10q3 -9 -0.5 -17.5t-12.5 -12t-17.5 0.5t-11.5 13l-4 10q-4 11 -8 27q-3 15 -6 48q-3 25 -4 45q-5 -15 -9 -25q-11 -21 -24 -37q-14 -17 -28 -26q-17 -11 -39 -13
q-27 -2 -43 12q-11 10 -20 25q-8 14 -23 58q-9 25 -14 44v-27v-52q0 -25 -1 -47q0 -21 1 -67q1 -44 4 -64q4 -21 6 -34l3 -12q2 -9 -3 -17t-14 -10t-17 3t-10 14l-3 13q-3 13 -6 36q-4 23 -5 70t-0.5 69t0.5 46v52q0 28 2 85q2 56 3 83q2 27 4 54.5t5 45.5t6 33l3 13v4
q-1 9 5.5 16t15.5 7.5t16 -5.5t8 -16l1 -11v-27v-32q0 -17 2 -65t5 -74q2 -26 7 -50q5 -23 18 -63q14 -40 20 -50q5 -9 11 -14q3 -1 9 -1q11 1 18 5q9 6 18 18q10 12 19 28q8 17 17 62q10 48 13 77q0 8 1 15q2 23 5 45q3 28 6 80q0 6 1 10v37q1 28 1 59q1 13 25 22
q21 8 21 -4v-25v-30q0 -16 -2 -60z" />
    <glyph glyph-name="periodcentered" unicode="&#xb7;" horiz-adv-x="141" 
d="M37 352q0 16 14 21l9 4q16 6 32 1q22 -7 24 -29q2 -19 -15 -35q-13 -13 -35 -17q-35 -4 -40 23q-4 17 11 32z" />
    <glyph glyph-name="onequarter" unicode="&#xbc;" horiz-adv-x="538" 
d="M434 410h1l7 8q6 7 15.5 8t16.5 -5t7.5 -15.5t-5.5 -16.5l-8 -9l-10 -14q1 -18 -1 -46q-2 -34 -4 -57q-2 -21 -4 -69q-1 -10 -1 -19q8 1 17 3l22 4q9 2 16.5 -3.5t9.5 -14.5t-3.5 -17t-14.5 -9l-22 -4q-15 -3 -27 -4v-11q0 -25 5 -73q6 -48 8 -57l2 -10q2 -9 -3 -17
t-14 -10t-17 3.5t-10 14.5l-2 9q-3 11 -8 62q-6 52 -6 79v8h-15q-29 1 -40 2q-13 1 -22 3q-14 3 -19.5 17.5t1.5 24.5q3 7 7 15q4 10 17 35t25 43q10 17 19 33t23 44q10 20 16 31l-1 11q0 9 6.5 16t15.5 7zM468 648l-12 -17q-12 -15 -22 -34q-11 -20 -41 -72
q-29 -52 -46 -81q-18 -30 -58 -91q-40 -59 -62 -95t-43 -72q-20 -35 -50 -102q-31 -65 -34 -77l-4 -14q-2 -9 -10.5 -13.5t-17 -2t-13.5 10.5t-2 17l4 14q4 15 36 84q31 68 52 105t43.5 73.5t62.5 96.5t57 88q17 29 46.5 80.5t39.5 71.5q12 22 25 40l13 16q5 8 14.5 9.5
t17 -4t8.5 -15t-4 -16.5zM43 320l8 2q7 1 18 3q1 8 1 12q0 7 1 16q0 9 4 34q3 23 5 39t5 34q2 17 7 53q5 35 6 54t2 32q0 1 -1 3q-5 -4 -10 -7l-11 -7q-7 -5 -16.5 -3t-14 10t-2.5 17t9 14l12 7q9 6 21 16t29.5 6t23 -21.5t5.5 -34.5q-1 -16 -2.5 -35.5t-5.5 -56.5
q-5 -36 -8 -54q-2 -18 -4 -33q-3 -16 -6 -39t-3 -30q-1 -8 -1 -16v-3l2 1q9 1 16.5 -4.5t9 -14.5t-4 -16.5t-14.5 -9.5l-16 -2q-2 -1 -5 -1q-6 -4 -13 -4q-3 0 -5 1q-3 -1 -6 -1q-12 -2 -19 -3l-8 -2q-9 -2 -17 3t-9.5 14t3.5 17t14 10zM403 173q0 11 1 22q2 50 4 73v1
q-7 -12 -15 -25q-11 -16 -23 -40l-15 -30q12 0 32 -1h16z" />
    <glyph glyph-name="onehalf" unicode="&#xbd;" horiz-adv-x="473" 
d="M304 373l5 6q8 11 25 18q13 6 29 9q19 5 41 -3q25 -8 34 -21q6 -10 9 -24q3 -12 0 -49q-4 -34 -9 -56q-6 -21 -19 -57t-20.5 -52.5t-21.5 -44.5q-14 -29 -24 -45q-4 -5 -7 -10q11 -1 18 -1q8 0 29 -1h20q9 -1 15.5 -7.5t6 -16t-7.5 -16t-16 -5.5h-20q-19 1 -27 1
q-10 0 -24 1q-19 1 -30 6q-15 7 -16.5 23t4.5 23q7 11 17 27q9 14 22 41t20 42q7 16 20 51q12 34 17 52t8 49q2 29 1 36q-1 5 -2 7q-4 2 -11 5q-10 3 -17 2q-12 -3 -21 -7q-5 -2 -7 -4l-5 -6q-5 -8 -14.5 -9t-16.5 4.5t-8.5 14.5t3.5 17zM394 596l-8 -18q-9 -20 -18 -38
q-10 -18 -32 -64q-22 -47 -36 -72q-13 -24 -28 -52q-16 -28 -49 -78q-32 -48 -48 -75t-41 -71q-24 -44 -31 -59l-8 -17q-4 -9 -12.5 -12t-17 0.5t-12 12.5t0.5 17l8 17q8 18 33 63t41.5 72.5t49.5 76.5q32 48 46 75q16 27 29 52q13 24 35 69q22 47 32 65q9 18 17 36l8 19
q4 8 13 11.5t17 -0.5t11.5 -12.5t-0.5 -17.5zM65 360h5v3v15q1 9 3 35q3 25 4 41q1 17 2 36t2.5 53.5t1.5 52.5v4q-9 -9 -14 -13l-6 -6q-7 -6 -16.5 -5.5t-15.5 7t-6 16t7 15.5l7 6q6 6 22 20q13 13 16 18q9 13 26.5 10t21.5 -16q5 -13 4 -29q-1 -11 -1 -28
q0 -18 -1.5 -53.5t-2.5 -54.5t-2 -36t-4 -43q-2 -25 -3 -32v-14v-3h9q9 0 16 -7t7 -16t-7 -15.5t-16 -6.5h-19h-32l-11 1q-9 1 -15 8t-5.5 16t7.5 15t16 6z" />
    <glyph glyph-name="multiply" unicode="&#xd7;" horiz-adv-x="380" 
d="M346 445l-11 -8q-9 -7 -17 -14q-11 -12 -25 -25q-13 -14 -26 -27.5t-43 -43.5q-8 -9 -12 -13q1 -1 3 -4q15 -19 39 -47q25 -29 34 -39q10 -10 18 -20q7 -9 17 -18q11 -10 17 -16l7 -5q7 -6 7.5 -15.5t-5.5 -16.5t-15.5 -7.5t-16.5 5.5l-6 5q-7 6 -19 17q-11 11 -20 21.5
t-17 20.5q-9 10 -34 38q-25 29 -41 48q0 -1 -1 -1l-30 -32q-14 -13 -26 -29t-23 -33.5t-21 -38.5l-12 -22q-4 -8 -13 -11t-17 1.5t-11 13.5t1 17l12 22q11 22 23 41.5t25 36.5q14 18 30 34q15 15 30 31l5 5q-7 8 -13 15q-27 32 -39 49q-12 16 -25 31q-10 12 -19 25
q-7 10 -12 14l-7 6q-7 6 -8 15.5t5 16.5t15.5 7.5t16.5 -5.5l7 -6q9 -8 19 -22q9 -12 19 -24q12 -14 25 -31q12 -16 37 -47q6 -7 10 -11l8 8q30 32 43 45l28 28q14 13 23 23q10 11 24 21l11 8q8 5 17 3.5t14.5 -9t4 -17t-9.5 -14.5z" />
    <glyph glyph-name="divide" unicode="&#xf7;" horiz-adv-x="451" 
d="M220 181l2 -2q13 8 25 -1q7 -4 9 -12q2 -3 3 -5q5 -12 -2 -22q0 -10 -6 -17t-15.5 -7.5t-16.5 5.5l-30 27q-6 7 -6.5 16t5.5 16t15.5 7.5t16.5 -5.5zM48 353h12h28.5t39.5 -1l49 -3q25 -1 49 -1t66 4q42 3 57 5q16 2 27 3q12 1 20 1h7q9 1 16 -5.5t7 -16t-6 -16t-16 -7.5
h-7q-7 0 -17 -1t-25 -3q-16 -2 -59 -5q-44 -4 -70 -4q-25 0 -51 1l-49 3q-22 1 -38 1h-28h-12q-10 0 -16.5 6.5t-6.5 16t6.5 16t16.5 6.5zM224 519q4 2 9 3l11 2q12 2 25 -13t0 -29q-12 -13 -31 -15q-17 -2 -31 4q-19 9 -23 26l-2 8q-3 9 1.5 17t13.5 11q8 2 16 -2.5
t11 -11.5z" />
    <glyph glyph-name="oslash" unicode="&#xf8;" horiz-adv-x="415" 
d="M267 498q-5 -10 -10 -22q-13 -32 -20 -51q-7 -17 -20 -70t-17 -84q-2 -22 -3 -63q8 15 14 27q18 37 33 73q15 37 29 72q10 23 23 52q-2 6 -4 13q-11 30 -15 38q-5 7 -10 15zM234 533q-2 11 4 19q6 7 15 8l7 7q7 7 16.5 7t15.5 -7q6 -6 6.5 -15t-5.5 -16q3 -4 7 -8
q9 -11 16 -22q3 -7 7 -17q14 29 19 39l7 11q4 8 13 11t17 -1.5t11 -14t-2 -17.5l-7 -11q-6 -12 -29 -60q-4 -9 -8 -17q4 -16 7 -29q5 -25 7 -51q3 -28 0 -93q-2 -65 -10 -103q-8 -37 -19 -77q-10 -41 -31 -87q-1 -3 -4.5 -10l-4.5 -9t-3.5 -7.5t-3.5 -8t-3.5 -6.5t-4 -6
t-4 -5t-5 -5t-4.5 -4q-19 -13 -44 -2q-21 9 -36 45q-12 30 -17 54q-3 12 -5 25q-15 -24 -24 -39q-19 -28 -32 -52q-14 -24 -24 -47l-11 -23q-4 -8 -13 -11.5t-17 0.5t-11.5 13t0.5 17l11 23q11 24 25 50q14 25 34 55q18 28 56 92q-1 21 -1 48q0 67 4 101q4 33 17 88
q14 56 22 77q7 19 21 51q11 28 18 40zM198 117q1 -21 2 -34q3 -27 8 -48q4 -21 15 -47q7 -17 13 -21q8 11 21 40q19 43 29 81t18 74q7 34 10 96q2 62 0 86l-2 12q-13 -32 -27 -65q-15 -38 -34 -76q-17 -36 -53 -98z" />
    <glyph glyph-name="Delta" unicode="&#x394;" horiz-adv-x="552" 
d="M290 518q-2 -4 -4 -13q-16 -48 -28 -79q-11 -30 -22 -58t-35 -79.5t-39 -78.5q-15 -26 -25 -48q-11 -22 -29 -57q-17 -35 -22 -46q-6 -13 -10 -21q-2 -4 -4 -9q8 -3 15 -4q10 -2 49 -1q40 0 62 2q24 2 49 4q26 3 71 3h64t38 -0.5t40 -2.5q13 -2 22 -2q-2 6 -4 11
q-7 13 -15.5 32t-29.5 64.5t-34.5 77.5t-36.5 90q-23 59 -33.5 89.5t-25.5 80.5q-8 26 -13 45zM272 609q-2 10 -2 15q-1 7 -2 13l-1 6q-1 9 5 16.5t15 8.5t16.5 -5t8.5 -15l1 -6v-3q15 -11 8 -27l-3 -8q0 -1 0.5 -3.5t0.5 -3.5q3 -18 6 -33q1 -5 2 -11q5 -20 19 -68
t24.5 -77.5t33.5 -87.5t36 -90q13 -30 34 -76q21 -45 30 -64q8 -18 14 -30q8 -17 10 -38q2 -40 -29 -40h-14q-7 1 -29 3q-21 2 -38 2.5t-36 0.5h-64q-43 0 -67 -3q-25 -2 -49 -4q-25 -2 -66 -2q-43 -1 -56 2q-14 2 -29 8q-25 10 -26 31q0 11 4 22q3 9 7 17q4 7 9 18
q5 12 23 48q17 35 28 57q12 23 27 49q14 26 37 76.5t34 77.5q11 28 22 57q12 29 27 77t20 65q5 13 9 25z" />
    <glyph glyph-name="quoteleft" unicode="&#x2018;" horiz-adv-x="133" 
d="M106 617l-5 -9q-3 -6 -4 -11l-7 -21q-3 -10 -5 -16l-4 -14q-2 -9 -4 -16q-2 -6 -4 -17q-2 -13 -2 -20q-1 0 -2 -1t-1 -2q22 -3 22 -23v-6q0 -12 -10.5 -20.5t-21.5 -7.5q-18 3 -27 21q-5 11 -6 26q0 11 1 20q1 7 3 20q2 14 5 22q2 7 4 15t4 15q2 8 6 19q3 10 5 17
q3 10 8 21l5 9q4 8 13 10.5t17 -1.5t11 -13t-1 -17z" />
    <glyph glyph-name="quoteright" unicode="&#x2019;" horiz-adv-x="128" 
d="M52 585q-13 0 -20.5 11t-6.5 20q2 11 8.5 16t14.5 4.5t14 -2.5t8 -3q13 -10 19 -20q5 -10 8 -19q2 -8 4 -17q2 -11 2 -21q1 -9 0 -19q-2 -11 -6 -24t-9 -26q-6 -13 -13 -23l-6 -9q-5 -7 -14 -9t-17 3t-9.5 14.5t3.5 16.5l6 9q4 7 9 17q4 10 7 20t4 16v13q0 6 -1 13
q-2 9 -4 15q0 2 -1 4z" />
    <glyph glyph-name="quotedblleft" unicode="&#x201c;" horiz-adv-x="269" 
d="M168 494h8q10 0 20.5 -6.5t11.5 -20.5q2 -17 -16 -33q-14 -12 -29 -14q-23 -2 -37 21q-8 15 -8 30q0 10 3 22q2 10 11 34.5t16 38.5q8 16 26 39q17 21 23 29l7 9q5 8 14.5 9.5t17 -4t9 -15t-4.5 -16.5l-6 -9q-7 -10 -25 -31q-15 -19 -20 -30q-6 -13 -14 -35
q-4 -10 -7 -18zM70 525q10 -2 15 -11l5 -7q11 -19 -2 -39q-7 -11 -20.5 -14t-25.5 6q-13 12 -16 35q-1 15 -1 27q1 13 6 34q5 22 10 33t10 19q6 11 25 27q17 15 24 20l7 5q7 6 16.5 4.5t15 -8.5t4 -16.5t-8.5 -15.5l-6 -5q-6 -4 -23 -18q-13 -11 -16 -16q-3 -6 -6.5 -14
t-7.5 -26q-4 -12 -5 -20z" />
    <glyph glyph-name="quotedblright" unicode="&#x201d;" horiz-adv-x="278" 
d="M193 580q-6 -6 -15.5 -6t-15.5 7l-7 6q-10 11 -15 26q-5 20 4 35q11 22 39 19q20 -2 38 -20q17 -15 23 -27q6 -13 9 -40q2 -24 0 -41q-1 -17 -12 -48q-10 -31 -18 -48l-8 -14q-4 -8 -13 -11t-17 1t-11 13t1 17l8 15q7 13 16 41q8 26 9 38q1 13 0 34q-2 17 -4 22
q-2 4 -7 9q4 -5 3 -13.5t-7 -14.5zM73 584q-7 -2 -13 0l-7 2q-17 6 -26 26q-6 15 2 28t22 17q26 8 42 -10q11 -11 19 -37q7 -24 8 -38q0 -13 -2 -38q-3 -26 -10 -50q-7 -23 -13 -33q-5 -10 -10 -19l-5 -7q-5 -7 -14 -9t-17 3t-10 14t4 17l4 7q4 6 8 14q4 7 10 27q6 19 8 40
q2 22 2 32q0 5 -2 14z" />
    <glyph glyph-name="NULL" horiz-adv-x="0" 
 />
  </font>
</defs>
</svg>
