<svg version="1" xmlns="http://www.w3.org/2000/svg" width="666.667" height="666.667" viewBox="0 0 500.000000 500.000000"><path d="M55.4 51.1c-1.1.6-2.8 2.3-3.7 3.9-1.6 2.6-1.7 17.3-1.7 195 0 177.5.1 192.4 1.7 195 .9 1.6 2.7 3.3 4 3.9 1.7.8 58.8 1.1 194.4 1.1 178 0 192.3-.1 194.9-1.7 1.6-.9 3.3-2.7 3.9-4 .8-1.7 1.1-58.5 1.1-194.4 0-177.4-.1-192.3-1.7-194.9-.9-1.6-2.7-3.3-4-3.9-3.2-1.5-385.9-1.4-388.9 0zM430 250v180h-26.9l2.4-4.3c4.1-7.3 9.2-24.7 11-37.2 2.7-19.1 2.7-70.2-.1-92-.6-5.3-1.2-9.8-1.9-16.5-1.1-8.9-4.3-24.5-6.4-30.5-3-8.5-6.7-12.5-15.3-16.3-7.5-3.3-26.4-7.4-34.6-7.5-2 0-2.9-2.8-4.8-14.7-2.2-13.7-7.5-35.2-11.4-46.5-12.3-34.6-27-46.2-67-53-7.7-1.3-38.6-1.3-47.5.1-19.5 3-41.9 11.5-55.2 21-11.7 8.4-28.7 27.4-34.2 38.3-2.6 5.1-3.4 5.9-8.8 8-19.1 7.8-32.1 23-37.2 43.2-5 20.3-.9 38.1 11.9 50.8l5.8 5.8.5 60.9c.3 33.5.7 62.2 1 63.9.2 1.6.8 5.9 1.2 9.5.3 3.6 1.1 8.7 1.6 11.4.5 2.7.9 5 .9 5.2 0 .2-10.1.4-22.5.4H70V70h360v180zM273.5 131.5c27 5.5 34.1 9.6 42.2 24.5 5.4 9.9 13.4 32.8 14.8 42.3.4 2.3.9 4.5 1.1 4.9.5.7 1.8 7.8 2.9 15.8.3 1.9.7 4.4 1 5.5.2 1.1.7 4.2 1 7 .3 2.7.8 6.3 1 8 1.6 12.6 2 23.2 1.9 52 0 30.5-.8 66.4-1.9 93-.8 16.3-1.4 35.4-1.5 40.7v4.8H135.3l-1.2-7.3c-3.4-20.9-3.8-30.7-4-82.6-.2-47.9-.1-50.3 1.6-49.8 1 .2 5.8 1.7 10.7 3.1 4.9 1.4 10.3 2.9 12 3.1 1.7.3 3.8.8 4.6 1 8.1 2.2 38.1 2.6 50 .6 47.9-8 71.7-29.3 70.9-63.5-.6-25.9-7.6-42-22.9-52.2-15-10.1-28.1-12.4-68.2-12.1-23.7.2-26.5.1-25.4-1.3 11.9-14.3 18-19.9 27.4-25.1 9.6-5.3 28.9-11.2 41.2-12.5 3-.4 5.7-.8 6-1.1.6-.6 31.9.4 35.5 1.2zm-50 59.9c27.1 4.1 36.4 15.5 36.1 44.1-.1 12.8-1.8 17.4-8.9 24.4-7.4 7.4-16.7 11.8-35.2 16.7-.5.1-5.3.9-10.5 1.8-12 1.8-27.6 1.4-44-1.3-21.1-3.4-33.7-8.2-41.8-16-6.5-6.2-8.7-11.8-8.7-22.1 0-4.7.3-10.1.6-12.1 1.1-6.4 5.6-14.8 10.7-19.7 6.5-6.2 19.2-12.5 28-13.8 2-.3 4.4-.7 5.2-1 .8-.3 4.2-.8 7.5-1.1 3.3-.3 6.2-.7 6.4-.9.6-.6 50 .4 54.6 1zm147 56.1c5.4 1 10.9 2.6 14.2 4.2 3.7 1.7 5.4 5.6 7.7 17.3 1.4 7.2 1.8 10.2 3.1 21.5 3.7 30.9 4.1 77.1.9 96.5-3.4 20.9-11 37.6-19.1 41.9-1.2.6-6.5 1.1-11.8 1.1h-9.6l.6-18.8c.4-10.3.8-21.9 1-25.7 1.7-34 2.6-115.6 1.4-131.3l-.7-8.4 4.7.6c2.5.3 6 .8 7.6 1.1z"/></svg>