<svg version="1" xmlns="http://www.w3.org/2000/svg" width="133.333" height="133.333" viewBox="0 0 100.000000 100.000000"><path d="M9.1 20.4C4.4 23 4.1 24.9 4 49.8c0 25.3.4 27.7 5.5 30 1.9.9 13.2 1.2 40.5 1.2 40.8 0 42-.1 44.6-5.1 1.9-3.7 2.1-47.4.2-51.4-2.4-5.4-3.4-5.5-45-5.5-29.9.1-38.8.4-40.7 1.4zM90 25c1.9 1.9 2 3.3 2 25s-.1 23.1-2 25c-1.9 1.9-3.3 2-40 2s-38.1-.1-40-2c-1.9-1.9-2-3.3-2-25s.1-23.1 2-25c1.9-1.9 3.3-2 40-2s38.1.1 40 2z"/><path d="M13.5 27.1c-.9 1.4.3 5.9 1.5 5.9.6 0 .8-1.2.5-2.8-.6-2.6-.6-2.6.9-.8.8 1 1.8 2.4 2.1 3 .3.8.7.8 1.1-.1.3-.7 1.1-1 1.9-.7 1.5.6 3.9-3.1 3-4.6-.9-1.5-3.1-1.2-4.6.6-1.1 1.4-1.3 1.4-2.1 0-1-1.8-3.4-2.1-4.3-.5zM37 29.5c0 1.9.5 3.5 1 3.5.6 0 1-1.6 1-3.5s-.4-3.5-1-3.5c-.5 0-1 1.6-1 3.5zM40 29.6c0 2.9.3 3.5 1.6 3 .9-.3 2.2-.6 3-.6.8 0 1.4-.5 1.4-1 0-.6-.9-1-2-1-1.3 0-2-.7-2-2 0-1.1-.4-2-1-2-.5 0-1 1.6-1 3.6zM30 29.4c0 1.4.5 2.8 1.1 3.1 1.5 1 1.8.4 1.2-2.8-.7-3.4-2.3-3.6-2.3-.3zM25.7 28.7C24.2 30.2 25 33 27 33c1.1 0 2-.5 2-1 0-.6-.4-1-1-1-.5 0-.7-.7-.4-1.5.6-1.5-.7-2.1-1.9-.8zM33 28.7c0 .5.4 1.5 1 2.3 1.1 1.8 2.5.7 1.7-1.5-.6-1.5-2.7-2.1-2.7-.8zM12 53v18h27V35H12v18zm25-11c0 4.2-.3 5-1.8 5-1 0-2.9-1.1-4.2-2.5-4-4.2-10.6-3.1-13.4 2.3-1.1 2.2-1.3 5.1-.9 12.5.5 8.6.4 9.7-1.1 9.7-1.4 0-1.6-1.8-1.6-16V37h23v5zM26 52c0 1.7-.7 2-4 2s-4-.3-4-2 .7-2 4-2 4 .3 4 2z"/><path d="M19.5 52c-.4.6.7 1 2.4 1s3.1-.5 3.1-1c0-.6-1.1-1-2.4-1-1.4 0-2.8.4-3.1 1zM43 46c0 .5.5 1 1 1 .6 0 1-.5 1-1 0-.6-.4-1-1-1-.5 0-1 .4-1 1zM47 46c0 .6 5.5 1 14.5 1S76 46.6 76 46s-5.5-1-14.5-1-14.5.4-14.5 1zM43 51c0 .6 3.7 1 9 1s9-.4 9-1-3.7-1-9-1-9 .4-9 1zM43 56c0 .5.5 1 1 1 .6 0 1-.5 1-1 0-.6-.4-1-1-1-.5 0-1 .4-1 1zM47 56c0 .6 4.5 1 11.5 1S70 56.6 70 56s-4.5-1-11.5-1-11.5.4-11.5 1z"/></svg>