<?xml version="1.0" standalone="no"?>
<!DOCTYPE svg PUBLIC "-//W3C//DTD SVG 20010904//EN"
 "http://www.w3.org/TR/2001/REC-SVG-20010904/DTD/svg10.dtd">
<svg version="1.0" xmlns="http://www.w3.org/2000/svg"
 width="1024.000000pt" height="1024.000000pt" viewBox="0 0 1024.000000 1024.000000"
 preserveAspectRatio="xMidYMid meet">
<metadata>
Created by potrace 1.14, written by Peter Selinger 2001-2017
</metadata>
<g transform="translate(0.000000,1024.000000) scale(0.100000,-0.100000)"
fill="#000000" stroke="none">
<path d="M6246 9764 c-10 -40 -77 -63 -229 -79 -147 -16 -238 -40 -339 -91
-37 -19 -76 -34 -87 -34 -10 0 -50 -11 -89 -24 l-69 -23 15 38 c20 52 9 101
-29 133 -53 45 -120 31 -145 -30 -20 -48 -7 -62 20 -22 52 78 147 18 105 -65
-6 -12 -44 -56 -84 -97 -84 -87 -156 -190 -180 -257 -10 -27 -36 -89 -59 -140
-43 -96 -57 -96 -37 -2 16 73 14 113 -7 132 -27 25 -33 21 -17 -10 15 -28 13
-46 -12 -125 -32 -103 -11 -252 53 -367 13 -24 23 -45 21 -47 -12 -12 -88 25
-121 57 -44 44 -55 45 -33 2 30 -57 104 -103 166 -103 31 0 51 -18 33 -29 -6
-4 -68 -15 -137 -25 l-127 -18 -14 21 c-20 27 -62 27 -150 0 -240 -73 -448
-271 -539 -512 -14 -37 -25 -76 -25 -86 0 -14 -129 -212 -160 -245 -5 -5 -40
1 -80 13 -39 12 -80 19 -90 16 -44 -14 -45 -127 -2 -218 16 -34 40 -95 52
-136 55 -189 163 -397 311 -601 82 -112 84 -116 81 -166 -4 -64 12 -125 39
-150 20 -18 22 -18 83 14 68 37 68 37 199 -5 51 -16 75 -29 70 -36 -3 -7 -21
-30 -38 -52 -50 -63 -146 -210 -216 -330 -34 -60 -82 -131 -105 -157 -23 -26
-60 -82 -82 -125 l-40 -78 -191 -28 c-105 -16 -199 -31 -209 -34 -15 -3 -52
37 -172 189 -85 106 -171 214 -192 240 -21 26 -38 51 -38 56 0 33 352 172 550
217 94 21 119 31 126 50 8 21 -69 247 -88 259 -26 16 -219 -9 -371 -48 -149
-38 -307 -95 -414 -150 -40 -20 -79 -36 -87 -36 -8 0 -178 195 -377 434 l-363
434 0 109 c-1 94 -4 115 -25 158 -33 66 -100 131 -169 163 -49 23 -70 27 -147
27 -83 0 -95 -2 -153 -34 -75 -41 -125 -94 -160 -170 -38 -80 -37 -192 0 -273
54 -116 159 -194 275 -205 l58 -5 324 -467 c179 -256 326 -471 328 -476 1 -6
-35 -54 -82 -108 -150 -176 -275 -381 -350 -575 -27 -71 -33 -97 -25 -112 9
-16 137 -106 199 -139 34 -18 56 2 103 92 62 118 175 283 269 393 45 52 83 94
84 92 29 -30 192 -264 187 -269 -4 -3 -65 -22 -137 -43 -71 -21 -138 -45 -149
-54 -17 -16 -18 -29 -12 -212 9 -247 22 -425 46 -615 l20 -150 -23 -15 c-56
-38 -117 -105 -138 -153 -46 -106 -35 -279 30 -474 27 -81 27 -99 0 -67 -19
23 -101 62 -166 79 -77 20 -273 20 -362 -1 -94 -21 -169 -67 -201 -124 -24
-43 -25 -55 -30 -244 l-5 -199 -27 -20 c-38 -28 -120 -32 -240 -13 -236 38
-340 2 -491 -170 -65 -74 -71 -103 -27 -136 25 -18 26 -18 97 7 67 23 143 33
143 19 0 -3 -17 -26 -39 -50 -53 -60 -114 -187 -115 -238 -1 -33 4 -42 25 -55
30 -17 26 -18 124 59 98 78 218 91 345 36 168 -72 246 -98 315 -103 127 -10
230 38 276 129 24 48 27 113 9 216 -7 40 -11 74 -9 76 2 2 19 7 37 11 l33 7
-8 -54 c-4 -29 -8 -87 -8 -128 1 -121 52 -192 162 -227 63 -20 327 -27 656
-16 l248 8 74 -130 c40 -71 96 -165 124 -208 28 -43 51 -82 51 -87 0 -6 -112
-152 -250 -325 -137 -173 -256 -325 -264 -337 -13 -20 -136 -713 -136 -767 0
-30 35 -61 67 -61 25 0 678 295 708 320 7 6 95 123 196 260 l183 249 70 -77
c176 -196 456 -458 675 -631 145 -115 145 -115 173 -100 96 51 618 511 618
544 0 7 8 15 18 17 10 3 69 61 132 129 63 68 117 125 120 126 3 1 91 -116 197
-260 l192 -262 337 -155 c362 -167 391 -176 426 -130 18 25 17 29 -42 385 -33
198 -62 369 -65 381 -2 11 -126 175 -275 363 -148 188 -270 344 -270 346 0 2
24 42 53 87 29 46 84 138 123 205 l69 122 60 6 c298 32 515 179 569 386 7 30
17 95 21 145 10 141 21 187 77 325 56 139 53 137 127 123 29 -6 31 -9 31 -53
0 -145 97 -241 274 -272 93 -16 326 -7 387 15 62 23 113 67 141 123 22 45 23
60 23 232 l1 184 29 23 c44 35 102 39 234 19 239 -36 325 -12 469 134 90 92
103 118 78 156 -20 31 -52 32 -124 5 -29 -11 -73 -20 -98 -20 l-47 0 42 45
c47 52 131 215 131 256 0 60 -63 69 -118 17 -50 -47 -117 -85 -176 -98 -66
-15 -131 -1 -258 53 -162 70 -203 81 -298 81 -68 0 -94 -5 -132 -23 -58 -28
-100 -74 -123 -135 -17 -45 -17 -52 -2 -149 10 -56 17 -105 17 -109 0 -8 -60
-22 -66 -15 -3 3 0 41 6 85 23 157 -15 249 -127 304 l-68 33 -233 -2 -234 -2
6 42 c41 282 72 834 50 891 -5 14 -45 28 -262 94 -22 7 -18 14 78 144 l100
136 49 -51 c113 -121 219 -274 317 -455 21 -39 47 -75 57 -78 12 -4 55 18 125
64 84 54 108 74 110 94 5 45 -93 266 -181 408 -55 87 -167 237 -228 304 -27
29 -49 59 -49 66 0 6 146 222 325 479 l326 468 54 6 c113 12 211 78 266 179
32 60 34 68 34 163 0 90 -3 105 -28 153 -36 69 -98 129 -167 161 -47 22 -69
26 -145 26 -78 -1 -97 -4 -145 -28 -30 -16 -74 -47 -97 -69 -75 -73 -117 -209
-95 -306 l10 -43 -78 -94 c-58 -70 -77 -100 -73 -115 4 -16 0 -20 -18 -20 -19
-1 -81 -69 -294 -325 -148 -179 -275 -325 -281 -325 -6 0 -53 20 -105 44 -242
112 -522 188 -704 190 l-80 1 -38 -118 c-23 -70 -36 -128 -33 -142 5 -19 19
-26 103 -45 54 -12 152 -40 218 -62 129 -43 357 -146 353 -160 -2 -4 -90 -117
-195 -251 l-193 -244 -62 13 c-34 7 -100 18 -147 25 l-86 12 0 87 c0 79 -3 92
-38 162 -25 51 -54 91 -86 120 -49 45 -101 132 -260 443 -92 180 -87 209 75
425 280 373 347 811 178 1179 -37 80 -100 179 -146 227 l-29 31 43 12 c24 7
77 34 118 61 89 58 131 68 185 46 l38 -16 -6 -64 c-10 -109 -73 -236 -117
-236 -17 0 -50 30 -50 45 0 5 7 17 17 27 21 23 8 38 -14 16 -23 -24 -19 -79 8
-100 36 -30 68 -22 113 25 22 23 36 33 31 22 -50 -114 -69 -194 -70 -280 0
-98 18 -149 72 -203 21 -21 26 -37 30 -103 5 -63 3 -83 -11 -104 -21 -33 -59
-31 -64 3 -4 26 -22 20 -22 -8 0 -51 67 -66 110 -25 l26 25 32 -49 c18 -26 48
-61 68 -76 77 -59 199 -85 300 -65 92 18 93 18 38 50 -53 30 -98 72 -59 55 32
-14 139 -17 183 -6 46 13 102 55 102 77 0 10 -13 14 -46 14 l-46 0 35 40 c72
79 112 200 88 263 -14 36 -23 34 -43 -11 -40 -85 -121 -153 -180 -151 -22 1
-22 1 4 12 50 23 84 64 103 127 l7 25 -28 -26 c-40 -37 -67 -49 -108 -49 -48
0 -65 8 -81 41 -17 32 -20 129 -5 129 6 0 10 -8 10 -18 0 -10 14 -31 30 -47
51 -49 125 -33 144 32 5 15 1 28 -14 43 -25 25 -53 23 -59 -5 -3 -17 -1 -17
12 -6 21 17 37 6 37 -25 0 -33 -35 -47 -72 -28 -61 31 -57 152 9 273 40 74 88
214 99 285 4 27 15 63 24 80 10 17 35 83 56 146 36 110 38 120 38 255 1 120
-2 151 -22 215 -26 81 -55 143 -96 203 -14 20 -24 37 -23 37 2 0 23 -10 48
-22 51 -24 139 -37 139 -19 0 6 -15 11 -33 11 -45 0 -121 41 -186 100 l-55 50
47 0 c54 0 111 21 144 52 31 29 29 44 -3 19 -38 -30 -118 -43 -182 -31 -30 5
-99 30 -155 54 -134 58 -237 93 -317 110 l-65 13 32 17 c35 18 53 43 53 75 0
30 -17 26 -24 -5z m-316 -128 c0 -3 -26 -19 -57 -37 -63 -36 -177 -145 -207
-200 -16 -27 -4 -20 60 41 143 136 338 209 491 185 l48 -8 -67 -13 c-65 -12
-165 -50 -157 -59 3 -2 25 3 49 12 89 31 315 25 337 -10 4 -6 0 -8 -10 -4 -19
7 -133 -10 -156 -23 -10 -5 13 -7 59 -3 84 6 193 -18 278 -61 53 -27 131 -102
97 -93 -54 15 -106 17 -148 6 -26 -6 -47 -16 -47 -21 0 -5 8 -7 18 -5 56 16
80 17 127 7 81 -17 134 -57 174 -130 l34 -64 -29 21 c-35 25 -100 53 -123 53
-9 0 11 -13 44 -29 71 -34 122 -83 141 -137 8 -21 14 -41 14 -43 0 -2 -17 13
-37 33 -57 57 -84 66 -35 12 48 -52 78 -111 87 -171 10 -59 -11 -199 -42 -290
l-28 -80 -8 95 c-7 83 -17 140 -42 230 l-7 25 18 -24 c10 -14 31 -48 47 -75
28 -50 28 -50 23 -16 -10 61 -67 163 -115 207 -24 23 -42 45 -39 49 14 13 114
-66 138 -108 13 -23 25 -37 27 -31 5 14 -21 66 -55 111 -26 34 -114 91 -142
92 -8 1 -35 26 -60 55 -61 76 -69 69 -13 -12 25 -38 64 -104 85 -149 110 -227
47 -433 -149 -490 -29 -8 -53 -18 -53 -21 0 -13 93 8 137 31 51 25 129 98 139
128 27 87 26 -133 -2 -232 -30 -107 -123 -208 -227 -247 -26 -10 -47 -21 -47
-25 0 -10 -3 -11 61 8 30 9 70 25 89 37 l35 20 -29 -31 c-16 -17 -65 -50 -108
-73 -44 -22 -78 -43 -75 -45 7 -7 107 34 139 58 16 11 31 18 34 15 11 -10 -87
-102 -171 -160 -49 -34 -103 -81 -121 -104 -35 -46 -53 -118 -35 -136 8 -8 11
-2 11 21 0 44 22 92 56 123 36 33 224 160 224 151 -1 -16 -70 -95 -132 -152
-38 -34 -68 -66 -68 -71 0 -5 34 16 74 46 41 30 77 55 80 55 3 0 -4 -26 -15
-57 -14 -41 -35 -73 -79 -119 -33 -34 -64 -74 -70 -89 -13 -35 -13 -108 2
-140 15 -33 30 -33 18 1 -13 33 -13 86 0 119 5 14 43 58 84 98 l74 72 5 -85
c3 -47 13 -103 21 -125 l16 -40 -6 70 -6 70 21 -32 c21 -33 93 -77 114 -70 7
2 -2 11 -18 19 -17 9 -39 26 -50 38 l-20 23 22 -12 c73 -38 192 22 246 124 18
33 22 36 25 19 5 -37 -36 -127 -84 -182 -53 -60 -74 -74 -128 -81 -39 -6 -39
-6 -21 -25 19 -19 45 -19 160 0 l40 6 -25 -18 c-36 -27 -166 -32 -225 -10 -62
24 -120 69 -135 105 -15 38 -33 41 -24 4 20 -84 81 -164 156 -205 l33 -17 -62
-1 c-102 0 -219 47 -271 110 -26 31 -61 108 -76 167 -28 108 -15 317 25 416
23 55 -1 39 -26 -18 -31 -69 -53 -151 -57 -206 -1 -21 -5 -39 -9 -39 -4 0 -15
17 -25 38 -30 60 -24 167 16 277 57 158 71 217 71 297 1 120 -53 213 -160 276
-41 24 -56 27 -136 27 -78 0 -97 -4 -141 -27 -49 -26 -124 -97 -124 -119 0 -6
23 10 51 35 54 49 123 76 190 76 61 0 54 -17 -9 -23 -56 -5 -132 -33 -132 -49
0 -11 2 -10 38 7 39 20 150 30 182 17 23 -10 21 -11 -18 -11 -37 -1 -112 -23
-112 -34 0 -2 37 -2 83 0 l82 3 -42 -16 c-24 -9 -43 -20 -43 -25 0 -5 11 -4
26 1 41 16 62 11 24 -6 -19 -8 -57 -32 -85 -54 -65 -50 -93 -60 -170 -60 -73
0 -95 15 -34 23 63 8 75 28 14 22 l-50 -5 40 18 c22 11 46 27 54 36 17 20 11
20 -25 1 -36 -19 -78 -18 -129 1 -22 9 -67 24 -100 35 -32 11 -61 21 -63 24
-2 2 15 24 38 49 46 49 38 58 -23 27 l-37 -19 22 39 c12 22 42 53 67 69 24 17
37 30 28 30 -28 0 -71 -21 -99 -48 l-28 -26 0 38 c0 80 63 146 174 181 33 11
36 13 15 14 -45 2 -116 -29 -163 -71 -26 -22 -46 -35 -46 -30 0 14 58 91 89
118 21 19 23 23 8 24 -9 0 -42 -24 -73 -54 -49 -47 -55 -50 -49 -27 16 69 84
121 159 121 42 1 48 3 32 11 -10 6 -40 9 -67 7 -63 -6 -52 9 34 47 116 52 232
30 297 -58 16 -22 30 -47 30 -54 0 -7 5 -13 10 -13 15 0 12 20 -9 65 -39 83
-115 128 -221 128 -61 1 -63 1 -35 13 17 7 51 16 78 20 71 10 58 27 -18 22
-58 -4 -64 -2 -50 11 23 23 141 27 190 7 l40 -16 -29 26 c-15 13 -41 28 -57
31 -16 3 -32 10 -35 14 -10 17 76 9 137 -11 34 -12 63 -19 66 -17 4 5 -26 30
-63 54 -18 11 -17 12 7 12 48 2 143 -21 190 -44 101 -51 169 -172 155 -274 -5
-36 -4 -43 6 -33 7 7 14 46 16 86 4 62 0 80 -21 123 -36 71 -115 138 -191 163
l-61 21 73 -5 c44 -3 70 -1 67 5 -4 5 -15 9 -25 9 -10 0 -22 5 -25 10 -4 6 11
10 37 10 62 0 137 -39 186 -96 23 -27 42 -42 42 -34 0 22 -35 71 -72 102 l-33
27 45 -5 c79 -9 20 15 -69 28 l-80 12 30 18 c46 28 144 58 191 59 37 0 40 2
21 11 -32 15 -163 -14 -248 -56 -114 -56 -160 -57 -95 -3 17 14 30 28 30 32 0
10 -43 -16 -84 -52 -22 -18 -44 -33 -50 -33 -19 0 69 82 119 111 28 16 43 29
35 29 -33 -1 -99 -40 -165 -98 -58 -52 -125 -93 -125 -76 0 2 12 23 26 45 14
23 24 43 21 45 -2 2 -27 -21 -56 -51 -29 -30 -54 -55 -57 -55 -3 0 8 19 25 43
44 64 138 147 211 186 79 42 64 54 -17 13 -87 -44 -176 -115 -232 -185 -49
-62 -131 -146 -131 -135 0 3 7 24 15 47 22 63 2 49 -35 -24 -18 -36 -35 -63
-38 -61 -8 8 28 108 54 154 30 51 19 55 -19 7 -39 -49 -79 -139 -85 -191 -2
-24 -8 -44 -12 -44 -14 0 -30 52 -30 98 0 34 -3 43 -10 32 -6 -8 -9 -55 -8
-105 1 -82 -1 -96 -29 -155 -17 -36 -34 -74 -38 -85 -7 -19 -8 -19 -17 5 -10
27 -7 82 7 115 8 18 7 18 -8 7 -23 -19 -40 -77 -35 -123 2 -21 1 -39 -2 -39
-4 0 -17 19 -31 43 -20 35 -24 56 -24 122 0 44 4 96 9 115 6 26 5 32 -3 24
-19 -18 -43 -155 -38 -212 4 -34 17 -71 37 -105 39 -67 83 -157 78 -162 -4 -4
-73 81 -116 143 -42 59 -35 27 12 -58 26 -45 46 -84 46 -86 0 -3 -10 2 -22 10
-13 8 -34 17 -48 21 -24 7 -23 5 9 -29 42 -44 29 -47 -21 -6 -21 17 -51 58
-67 93 -18 37 -31 54 -31 41 0 -32 20 -86 46 -121 13 -17 24 -35 24 -39 0 -14
-71 60 -88 91 -21 40 -22 204 0 260 l15 40 8 -60 c9 -72 39 -156 66 -187 18
-20 20 -21 13 -3 -4 11 -15 43 -25 70 -36 99 -16 255 46 361 56 96 196 206
304 239 22 7 20 3 -13 -30 -49 -52 -98 -128 -129 -200 -30 -72 -45 -141 -28
-131 6 4 11 13 11 21 0 7 20 54 45 104 35 68 66 112 127 176 86 91 117 108 50
28 -40 -48 -97 -151 -89 -159 3 -3 19 21 37 53 40 70 135 171 207 219 29 19
84 43 125 53 40 11 74 20 76 20 1 1 2 -1 2 -3z m-603 -1061 c242 -57 485 -264
599 -509 57 -125 75 -205 81 -366 3 -80 1 -160 -3 -178 -6 -23 -9 7 -10 100
-1 205 -31 312 -133 483 -61 102 -149 220 -157 212 -3 -2 21 -40 52 -83 68
-96 86 -130 119 -228 33 -100 32 -110 -7 -37 -73 134 -195 255 -327 325 -72
38 -204 79 -288 91 l-53 7 0 99 0 99 33 0 c17 0 60 -7 94 -15z m-524 -180 c55
-196 181 -448 347 -697 84 -126 86 -164 3 -50 -59 79 -166 251 -213 340 -18
34 -35 60 -38 57 -8 -7 108 -236 158 -313 31 -49 38 -67 30 -77 -6 -8 -18 -11
-26 -8 -11 4 -12 9 -3 19 15 18 4 44 -18 43 -11 0 -13 -3 -5 -6 6 -2 12 -12
12 -20 0 -13 -2 -13 -16 -2 -15 12 -16 11 -10 -8 7 -21 6 -21 -44 -8 -64 17
-66 2 -2 -16 70 -20 28 -22 -83 -4 -54 8 -100 13 -103 10 -6 -6 12 -12 73 -24
43 -9 37 -10 -40 -5 -94 6 -108 -1 -34 -15 33 -7 1 -9 -121 -10 -159 -1 -435
18 -563 39 -34 5 -66 10 -70 10 -5 0 30 56 78 125 62 90 90 141 101 183 57
217 243 425 456 507 101 39 100 39 131 -70z m326 79 c-42 -51 -174 -79 -242
-51 -34 15 -37 15 -37 -1 1 -40 11 -42 115 -27 55 8 118 16 140 17 38 3 40 5
46 43 6 39 6 39 8 -12 l1 -53 -73 0 c-64 0 -138 -9 -214 -25 -17 -4 -24 2 -33
30 -6 19 -9 39 -6 44 3 5 48 16 99 25 126 22 137 23 176 25 29 1 32 -1 20 -15z
m131 -129 c52 -8 113 -21 135 -29 51 -19 27 -19 -50 -1 -125 30 -407 27 -438
-4 -10 -10 37 -143 100 -280 50 -111 39 -100 -24 24 -60 119 -113 240 -113
260 0 8 25 17 68 24 144 24 200 25 322 6z m172 -111 c149 -47 287 -179 347
-331 34 -86 47 -207 32 -302 -12 -80 -53 -217 -70 -234 -5 -5 -1 22 9 61 22
82 35 264 22 307 -7 25 -10 17 -14 -50 -7 -93 -43 -211 -95 -302 -19 -35 -37
-63 -38 -61 -2 2 2 28 9 58 19 81 30 194 18 186 -5 -3 -13 -25 -16 -48 -14
-90 -121 -289 -182 -339 -15 -11 -14 -9 3 16 29 42 85 156 80 162 -3 2 -19
-21 -37 -52 -17 -30 -51 -72 -75 -92 -39 -32 -44 -41 -50 -92 -9 -82 -44 -281
-54 -316 -6 -21 -8 1 -5 70 2 55 6 155 8 221 l5 122 50 96 c42 79 51 105 51
147 0 28 -5 59 -10 70 -14 25 -62 49 -99 49 -26 0 -37 10 -84 78 -100 142
-190 355 -191 452 l-1 45 110 0 c61 0 124 -4 140 -8 22 -6 27 -6 19 3 -6 6
-49 22 -95 35 l-84 24 69 0 c78 1 174 -20 254 -55 31 -14 52 -19 50 -12 -8 23
-143 87 -215 104 -40 9 -73 18 -73 21 0 12 140 -11 212 -33z m335 -182 c194
-261 233 -642 96 -917 -120 -238 -358 -443 -618 -532 -154 -52 -346 -67 -519
-39 -48 8 -90 16 -91 18 -2 2 90 3 203 3 178 0 222 4 311 23 401 88 712 430
763 839 22 172 -25 359 -141 560 -32 57 -56 103 -53 103 4 0 26 -26 49 -58z
m-3666 -429 c179 -92 179 -344 0 -435 -126 -64 -267 -19 -334 107 -30 56 -30
164 0 221 26 49 95 111 138 123 64 19 138 13 196 -16z m1799 17 c176 -51 658
-89 1142 -91 147 0 280 -4 295 -8 15 -4 35 -19 46 -33 17 -23 18 -32 9 -68
-17 -68 -72 -147 -182 -263 -186 -195 -366 -325 -742 -536 -71 -39 -133 -71
-139 -71 -16 0 -4 68 16 90 9 10 64 39 123 66 59 26 131 60 160 76 28 17 52
27 52 24 0 -8 -70 -52 -175 -108 -117 -64 -71 -51 70 19 130 65 291 170 431
281 177 142 357 350 357 415 0 35 -33 67 -69 67 -33 0 -30 -18 3 -22 38 -4 54
-49 28 -78 -37 -41 -104 -13 -106 45 0 19 -1 18 -11 -3 -9 -17 -9 -32 0 -56
21 -58 15 -91 -27 -143 -58 -74 -264 -244 -341 -283 -31 -16 -24 -9 75 71 94
76 265 237 265 251 0 5 -33 -17 -72 -50 -121 -98 -263 -188 -272 -173 -3 5 40
43 97 84 145 106 174 141 47 57 -106 -70 -168 -101 -176 -88 -4 7 0 16 10 22
44 27 49 36 11 21 -37 -15 -41 -15 -52 1 -27 37 -92 173 -113 237 l-23 67 -54
0 c-63 0 -62 9 -9 -126 37 -93 101 -209 158 -284 21 -29 33 -50 26 -47 -7 2
-22 0 -33 -5 -18 -8 -19 -8 -3 5 17 13 17 15 -1 31 -18 16 -21 16 -51 1 -27
-14 -34 -15 -41 -3 -14 21 -11 26 21 33 17 4 30 11 30 17 0 10 -27 6 -65 -9
-13 -4 -16 -2 -13 8 2 8 14 15 26 17 12 2 22 10 22 18 0 11 -6 13 -22 8 -13
-4 -29 -7 -37 -8 -18 -1 -82 123 -131 253 -40 106 -42 107 -142 110 l-47 1 18
-62 c39 -136 129 -313 228 -452 l37 -51 -35 32 c-31 29 -38 32 -66 24 -24 -7
-35 -6 -44 5 -9 11 -6 15 20 20 18 4 30 12 28 18 -4 11 -12 12 -56 5 -13 -2
-26 2 -28 9 -3 8 6 12 26 12 17 0 31 4 31 8 0 19 -24 30 -54 25 -30 -5 -33 -2
-74 71 -24 41 -64 126 -88 188 -25 62 -49 123 -54 135 -8 19 -18 22 -84 25
-91 4 -90 7 -46 -122 50 -152 151 -338 267 -495 l44 -60 -54 59 c-40 42 -60
57 -72 52 -17 -6 -8 -22 98 -168 l19 -26 132 55 c149 62 169 70 141 52 -24
-15 -243 -119 -265 -125 -15 -5 -85 84 -190 240 -71 106 -160 287 -204 415
-32 91 -35 106 -23 130 l12 26 140 -2 c153 -2 153 0 -9 18 -60 6 -123 15 -139
20 -38 11 -77 47 -77 71 0 21 3 21 50 8z m4389 -16 c88 -44 151 -162 135 -251
-9 -49 -46 -122 -76 -150 -62 -58 -187 -81 -266 -47 -84 35 -152 137 -152 229
0 95 81 210 165 234 62 19 138 12 194 -15z m-4049 -419 c32 -66 97 -178 145
-249 47 -70 85 -129 83 -130 -2 -1 -16 -7 -33 -14 l-30 -13 25 20 25 20 -22
23 c-66 72 -201 308 -249 436 -24 62 -32 99 -12 52 6 -14 37 -79 68 -145z
m260 0 c32 -66 84 -158 115 -203 31 -46 55 -85 53 -87 -2 -1 -14 -8 -28 -15
-25 -13 -25 -13 -7 8 18 19 17 21 -22 73 -47 63 -131 221 -166 313 -25 65 -34
105 -13 56 6 -14 37 -79 68 -145z m291 -114 c28 -40 49 -74 47 -75 -2 -1 -12
-8 -23 -16 -18 -14 -19 -14 -7 2 12 15 8 26 -34 89 -49 74 -114 196 -114 214
0 6 19 -24 41 -65 22 -41 63 -108 90 -149z m979 61 c-33 -86 -69 -142 -134
-210 -38 -41 -127 -112 -139 -112 -3 0 30 36 73 80 83 85 165 200 202 287 35
78 33 46 -2 -45z m-3490 32 c0 -6 -10 -14 -23 -18 -13 -3 -46 -22 -73 -42 -38
-29 -43 -31 -25 -11 29 32 15 36 -23 6 -48 -38 -27 -6 37 56 l62 60 23 -19
c12 -11 22 -25 22 -32z m5733 -29 c15 -10 33 -27 39 -38 10 -19 9 -19 -20 1
-38 27 -51 28 -27 2 10 -11 14 -20 8 -20 -5 0 -18 10 -29 21 -10 12 -38 30
-61 41 l-43 19 22 29 22 30 30 -33 c17 -19 44 -42 59 -52z m-5663 -51 c21 -21
22 -27 10 -34 -8 -5 -20 -10 -27 -10 -10 0 -47 -25 -122 -84 -12 -9 -13 -8 -6
4 4 8 17 25 28 37 30 33 15 38 -22 8 -38 -32 -40 -24 -6 21 21 28 22 33 8 28
-16 -5 -15 -3 2 11 25 21 74 44 96 45 8 0 26 -11 39 -26z m5558 6 c20 -10 44
-24 52 -31 13 -9 12 -10 -2 -5 -22 7 -23 -7 -2 -24 8 -8 20 -22 26 -33 8 -16
4 -15 -24 7 -47 35 -54 33 -24 -7 37 -48 32 -54 -11 -17 -20 18 -58 42 -84 54
l-47 22 20 27 c23 32 46 34 96 7z m-2628 -83 c-1 -20 -2 -20 -11 -4 -5 9 -18
17 -28 17 -21 0 -35 -25 -24 -42 3 -7 1 -8 -5 -4 -35 22 13 85 50 65 10 -5 18
-20 18 -32z m-2836 -31 l26 -34 -40 -16 c-22 -9 -61 -35 -87 -59 -45 -41 -51
-35 -10 11 28 30 12 28 -31 -5 -35 -27 -35 -22 0 30 23 32 13 35 -19 5 -35
-33 -36 -16 -1 26 28 35 95 75 124 76 7 0 23 -15 38 -34z m5388 8 c25 -13 78
-72 78 -88 0 -4 -16 5 -35 20 -41 31 -45 24 -10 -18 34 -40 32 -58 -3 -25 -37
35 -49 34 -23 -2 31 -44 25 -47 -13 -7 -18 20 -54 45 -80 57 -49 21 -49 26
-13 66 22 24 46 23 99 -3z m-5289 -130 c16 -19 27 -36 25 -38 -1 -1 -23 -11
-46 -21 -24 -10 -64 -39 -90 -64 -44 -45 -47 -42 -10 11 29 41 21 45 -17 8
-41 -39 -46 -29 -10 20 14 19 25 36 25 38 0 6 -24 -10 -47 -31 -28 -25 -30
-11 -3 23 11 14 20 31 20 38 0 15 75 51 105 52 11 0 33 -16 48 -36z m5176 25
c21 -7 44 -29 66 -62 39 -58 39 -71 -2 -33 -38 36 -50 33 -19 -5 32 -38 34
-60 4 -32 -24 21 -48 37 -48 31 0 -2 11 -19 25 -38 38 -51 30 -51 -24 1 -26
25 -67 53 -90 60 l-41 14 31 38 c33 39 47 43 98 26z m-2441 -68 c2 -13 -1 -28
-8 -35 -8 -8 -10 -7 -5 5 3 9 -1 22 -10 29 -20 17 -49 -5 -41 -32 4 -16 2 -17
-10 -7 -18 15 -18 28 3 51 24 27 67 20 71 -11z m-2627 -83 c43 -48 47 -58 22
-58 -22 0 -121 -56 -155 -88 -35 -32 -36 -18 -3 31 29 42 20 49 -15 12 -31
-33 -38 -24 -10 15 28 40 21 47 -15 15 -37 -36 -40 -27 -6 24 31 46 58 69 99
81 42 13 42 13 83 -32z m4967 22 c34 -15 55 -33 76 -66 32 -51 31 -66 -4 -29
-35 37 -44 30 -16 -12 31 -45 27 -53 -9 -18 -31 27 -48 26 -23 -2 9 -10 21
-29 28 -43 l13 -25 -29 26 c-32 30 -139 89 -160 89 -8 0 -14 3 -14 6 0 12 71
94 81 94 6 0 31 -9 57 -20z m-2004 -45 c-23 -77 -11 -121 81 -302 46 -90 82
-163 80 -163 -2 0 -35 51 -74 113 -100 158 -104 162 -160 162 -25 0 -102 -10
-171 -22 -141 -24 -232 -34 -225 -23 3 4 33 11 67 14 80 9 228 57 295 96 45
26 54 37 73 86 38 103 62 130 34 39z m-2837 -128 l42 -52 -36 -12 c-48 -17
-101 -50 -140 -87 -39 -36 -43 -23 -8 28 30 45 22 46 -23 4 -31 -30 -33 -30
-22 -8 7 14 19 33 28 43 25 29 5 31 -23 2 -36 -35 -41 -27 -10 19 35 51 31 56
-11 15 -22 -20 -32 -26 -26 -14 27 52 118 114 167 114 12 0 37 -21 62 -52z
m4717 41 c39 -12 144 -103 132 -116 -3 -3 -15 7 -27 21 -30 39 -44 33 -20 -7
31 -49 26 -54 -14 -16 -41 40 -45 35 -10 -16 34 -50 32 -63 -4 -25 -41 44 -46
38 -15 -16 l27 -48 -34 33 c-19 17 -38 32 -42 32 -4 0 -24 11 -45 24 -20 14
-49 28 -64 31 -16 4 -28 9 -28 12 0 9 85 103 94 103 5 0 27 -5 50 -12z m-3599
-129 c18 -53 13 -68 -22 -69 -20 0 -243 -70 -313 -97 -36 -14 -105 -45 -153
-69 -49 -24 -92 -44 -97 -44 -4 0 -5 12 -1 28 5 22 24 36 109 78 101 51 224
98 336 129 104 29 52 26 -98 -5 -81 -17 -197 -49 -259 -71 -62 -22 -116 -41
-122 -41 -33 -3 -95 3 -95 10 0 9 158 76 269 113 118 40 316 84 398 88 29 1
32 -2 48 -50z m2605 21 c158 -32 480 -146 480 -170 0 -4 -21 -10 -47 -12 -35
-3 -62 2 -99 18 -28 12 -89 34 -135 48 -95 29 -339 80 -346 72 -3 -3 15 -10
38 -16 102 -26 266 -87 362 -134 89 -44 102 -55 105 -78 2 -16 1 -28 -1 -28
-2 0 -55 24 -118 54 -122 58 -250 106 -352 131 -34 9 -78 20 -98 26 l-36 9 16
56 16 56 58 -6 c32 -3 103 -15 157 -26z m-3600 -81 c23 -27 40 -53 37 -55 -3
-3 -39 0 -81 6 l-76 11 -39 -32 c-22 -17 -42 -38 -46 -47 -3 -8 -8 -12 -11 -9
-4 3 6 28 21 54 l28 48 -38 -35 c-28 -26 -34 -29 -26 -13 28 55 117 115 182
122 3 1 25 -22 49 -50z m4501 20 c36 -18 114 -98 104 -107 -2 -2 -16 10 -31
27 -36 44 -40 34 -7 -25 l27 -49 -53 49 c-48 44 -56 48 -89 43 -20 -3 -59 -9
-87 -13 l-50 -7 25 29 c81 94 80 94 161 53z m-2198 -30 c6 -10 7 -24 2 -35 -8
-18 -9 -17 -13 4 -5 34 -48 27 -44 -7 2 -20 0 -22 -13 -11 -20 17 -19 26 6 51
23 23 47 22 62 -2z m106 -178 c28 -84 51 -157 51 -161 0 -4 -64 -10 -142 -12
-133 -4 -151 -7 -253 -42 -153 -52 -321 -143 -445 -241 -88 -70 -127 -90 -146
-74 -15 13 -17 53 -4 84 8 18 9 17 9 -6 1 -32 24 -53 49 -45 11 4 59 43 107
87 48 44 114 94 146 112 32 18 59 35 59 39 0 13 -52 -12 -137 -65 -46 -29 -97
-60 -113 -71 -42 -25 -60 -15 -60 32 0 39 38 167 47 158 3 -3 0 -26 -6 -52 -7
-25 -10 -49 -7 -52 6 -5 5 -7 36 88 23 69 106 228 141 270 14 17 11 8 -9 -30
-17 -30 -40 -77 -52 -104 l-21 -49 46 42 c66 61 128 97 216 126 83 28 260 67
267 60 3 -3 -4 -7 -14 -10 -112 -36 -341 -141 -330 -152 2 -3 35 7 71 22 89
35 259 73 368 81 48 4 87 10 87 13 0 3 -7 28 -15 55 -17 57 -20 91 -6 66 5 -8
32 -84 60 -169z m-2274 63 c116 -14 213 -29 217 -33 6 -5 -49 -458 -56 -468
-2 -2 -449 57 -462 61 -7 3 1 82 22 237 18 129 33 235 33 237 1 2 9 1 19 -2 9
-2 112 -17 227 -32z m4345 29 c0 -3 14 -109 31 -235 17 -126 29 -231 27 -232
-6 -5 -462 -65 -466 -61 -7 6 -62 429 -60 450 3 20 77 33 461 84 4 1 7 -2 7
-6z m-4647 -23 c-3 -10 -12 -25 -21 -32 -13 -11 -12 -8 2 20 19 36 27 41 19
12z m4721 -20 c7 -24 6 -24 -8 -6 -9 11 -16 27 -16 35 0 21 16 2 24 -29z
m-2024 -20 c0 -5 -20 -10 -45 -10 -25 0 -45 5 -45 10 0 6 20 10 45 10 25 0 45
-4 45 -10z m100 -96 c41 -14 86 -31 100 -39 23 -14 21 -14 -35 -9 l-60 6 90
-46 c50 -25 110 -63 135 -85 l45 -41 -57 25 c-73 31 -190 62 -269 71 -49 5
-62 11 -69 28 -4 11 -17 45 -29 74 l-21 53 47 -7 c27 -3 82 -17 123 -30z
m-2182 -226 l51 -67 -15 -83 c-8 -46 -20 -108 -27 -138 l-13 -55 -59 3 c-33 1
-97 5 -141 8 l-81 6 -49 65 c-72 97 -73 106 -5 33 67 -71 77 -73 31 -5 -45 65
-36 65 26 -1 51 -54 54 -47 7 21 -30 44 -10 32 40 -23 28 -33 54 -58 55 -57 2
2 -10 24 -27 49 -47 67 -37 68 25 1 51 -55 53 -50 8 20 -9 14 -12 25 -6 25 6
0 12 -4 14 -9 5 -15 79 -93 84 -89 2 3 -9 22 -26 44 -48 64 -33 63 26 -1 56
-61 57 -51 4 29 -43 64 -37 68 16 11 46 -50 42 -37 -12 44 -33 50 -23 49 26
-1 44 -45 44 -39 0 27 -44 66 -44 72 -1 28 23 -24 44 -43 47 -43 2 0 -13 26
-34 58 -57 84 -59 92 -8 39 57 -60 59 -49 5 28 -49 70 -45 83 6 20 21 -25 40
-43 42 -41 3 2 -14 32 -36 65 -23 33 -41 63 -41 67 0 10 4 5 68 -78z m2207 57
c95 -20 101 -23 87 -37 -17 -17 -14 -60 6 -84 23 -29 54 -44 92 -44 47 0 70
16 70 50 l0 30 34 -17 c48 -22 80 -12 98 33 l15 37 26 -35 c38 -49 68 -122 70
-169 1 -33 -4 -45 -23 -61 -38 -31 -104 -19 -250 44 -236 103 -323 123 -508
115 -174 -7 -323 -52 -473 -143 -37 -22 -69 -34 -93 -34 -36 0 -37 0 -22 22
22 31 20 64 -6 82 -12 9 -20 17 -17 19 31 28 294 157 320 157 5 0 9 -9 9 -19
0 -11 10 -27 22 -35 62 -44 188 16 172 80 -5 21 -2 23 38 27 75 8 260 -2 333
-18z m1329 13 c-4 -7 -25 -40 -47 -73 l-39 -60 46 47 c51 52 58 51 23 -2 -57
-84 -60 -96 -13 -47 25 27 46 46 46 42 0 -3 -15 -29 -33 -58 -51 -81 -52 -86
-3 -32 57 61 59 52 5 -26 -47 -70 -47 -89 1 -29 45 57 49 43 6 -24 -20 -31
-36 -60 -36 -63 0 -4 21 15 46 42 46 50 43 39 -14 -48 -37 -56 -23 -52 28 8
54 65 72 71 32 13 -48 -72 -46 -76 10 -15 63 67 83 75 39 15 -48 -65 -37 -65
25 -1 55 57 62 57 19 -2 -43 -60 -35 -59 24 5 66 71 78 73 31 5 -46 -66 -36
-66 26 0 31 33 49 48 40 33 -9 -16 -23 -40 -32 -55 -9 -16 8 -2 38 30 29 31
57 57 61 57 4 0 -19 -36 -52 -79 l-61 -79 -87 -6 c-49 -4 -112 -9 -140 -11
-29 -3 -53 -4 -53 -1 0 13 -51 249 -55 257 -6 8 110 169 121 169 3 0 2 -6 -2
-12z m-1761 -39 c-6 -6 -26 -15 -45 -20 -29 -7 -27 -8 17 -5 49 3 49 3 20 -10
-38 -17 -57 -17 -79 -1 -16 12 -16 14 2 30 11 10 33 22 48 26 33 9 54 -3 37
-20z m-2444 -66 c-5 -26 -15 -54 -22 -64 -40 -54 -138 -202 -165 -249 -33 -60
-113 -230 -108 -230 2 0 25 35 52 78 59 96 167 240 232 310 40 42 55 52 81 52
l33 0 -54 -61 c-115 -132 -236 -303 -295 -415 -15 -30 -32 -54 -36 -54 -5 0
-28 14 -52 30 -32 22 -43 35 -38 48 22 66 133 276 191 363 62 92 176 239 186
239 2 0 -1 -21 -5 -47z m4917 -90 c76 -100 149 -220 205 -338 69 -143 69 -144
13 -180 -39 -24 -49 -27 -56 -15 -127 217 -202 325 -302 436 -36 40 -66 75
-66 78 0 3 13 6 29 6 24 0 42 -14 96 -73 76 -84 170 -212 223 -304 59 -103 50
-61 -15 70 -62 124 -139 249 -198 322 -22 28 -34 55 -38 90 l-6 50 30 -35 c17
-19 55 -67 85 -107z m-1846 105 c11 -12 20 -25 20 -30 0 -16 -47 -7 -65 12
-10 11 -21 18 -23 15 -3 -3 5 -17 19 -31 21 -24 22 -26 3 -16 -53 28 -56 72
-5 72 18 0 38 -9 51 -22z m-2219 -214 c63 -80 113 -149 112 -152 -2 -4 -53
-17 -114 -29 l-112 -23 -135 30 c-75 16 -137 28 -139 26 -2 -1 13 -24 32 -49
34 -45 83 -143 66 -133 -13 8 -163 217 -159 221 2 2 71 -9 153 -25 83 -17 151
-30 151 -30 1 0 4 46 8 103 7 105 17 207 20 207 1 0 54 -66 117 -146z m3230
109 c1 -68 16 -264 21 -268 3 -3 71 8 153 25 82 17 150 29 152 27 6 -7 -112
-157 -124 -157 -19 0 -17 6 26 63 22 28 38 53 37 55 -2 1 -67 -12 -145 -29
l-142 -31 -115 22 c-63 12 -114 24 -114 26 0 1 48 62 106 136 59 73 112 141
118 151 17 27 26 20 27 -20z m-1266 -29 c62 -16 178 -64 172 -71 -2 -2 -33 8
-69 21 -163 62 -312 71 -473 30 l-20 -5 20 12 c64 40 245 47 370 13z m-1211
-79 c-17 -52 -36 -76 -50 -62 -3 3 9 33 27 66 17 34 34 59 36 57 3 -2 -4 -30
-13 -61z m366 47 c0 -5 -9 -17 -20 -27 -11 -10 -18 -21 -15 -23 3 -3 17 5 31
19 19 18 23 19 18 6 -6 -17 -53 -47 -72 -47 -23 0 -20 33 5 56 26 24 53 32 53
16z m1005 -136 c274 -28 252 -23 257 -65 3 -20 11 -57 18 -82 13 -44 12 -50
-13 -109 -15 -34 -27 -64 -27 -68 0 -13 84 75 111 117 20 31 29 58 29 86 0 78
2 78 190 49 91 -14 170 -30 175 -35 6 -6 12 -38 15 -72 l6 -62 56 58 57 58
163 -36 c271 -60 549 -133 593 -156 19 -9 20 -18 18 -137 -4 -165 -21 -416
-39 -567 -53 -439 -191 -1022 -231 -981 -2 2 19 88 46 192 110 412 172 823
188 1243 l6 174 -66 -53 c-68 -54 -74 -66 -69 -135 6 -91 -43 -542 -80 -733
-21 -111 -21 -113 -2 -128 19 -15 19 -16 -1 -9 -42 14 -83 17 -89 6 -4 -7 0
-11 11 -11 26 0 43 -19 43 -48 0 -22 -33 -161 -46 -195 -3 -9 9 -31 30 -55
l36 -40 -41 21 c-49 24 -139 34 -165 18 -17 -9 -16 -10 9 -11 15 0 43 -7 62
-14 44 -19 45 -39 2 -166 l-32 -95 -78 -9 c-43 -5 -80 -7 -82 -4 -2 2 11 51
29 109 113 354 193 779 229 1203 l12 150 85 73 c47 40 115 96 152 125 37 29
67 57 68 61 0 10 11 16 -184 -111 l-158 -103 -167 40 c-896 214 -1711 266
-2543 160 -294 -37 -674 -108 -941 -175 l-98 -25 -37 23 c-20 12 -97 62 -171
110 -74 48 -136 86 -138 84 -3 -3 231 -203 294 -251 9 -7 17 -57 23 -150 8
-112 27 -288 43 -404 1 -10 -21 -20 -72 -33 -41 -10 -76 -17 -77 -15 -3 3 -27
186 -39 292 -8 77 4 95 69 102 75 9 30 26 -84 33 l-95 5 41 22 c23 12 45 30
48 40 4 9 4 58 0 108 l-6 92 -59 46 c-32 26 -61 47 -65 47 -14 0 17 -465 46
-685 17 -126 15 -173 -6 -153 -20 21 -62 439 -71 704 -6 195 -5 202 14 212 11
6 77 27 147 47 l127 36 57 -49 c64 -55 140 -107 147 -100 2 2 -8 43 -22 91
-14 48 -24 89 -21 92 7 8 250 61 428 94 299 55 628 98 930 121 177 13 829 4
1005 -14z m-366 -346 c117 -5 252 -13 300 -17 l86 -8 -140 -6 c-77 -4 -250 -7
-385 -8 -302 -1 -697 -33 -747 -60 -6 -3 137 -5 318 -3 l329 4 0 -566 c0 -311
-4 -566 -8 -566 -18 0 -32 26 -32 61 0 20 -3 65 -7 100 l-7 64 -7 -45 c-4 -25
-8 -68 -8 -97 l-1 -51 -139 66 -139 66 -11 95 c-21 172 -34 251 -43 251 -7 0
-11 -55 -13 -220 -2 -108 10 -103 -122 -50 l-118 47 -3 67 c-4 83 -22 87 -22
5 0 -54 -2 -61 -17 -56 -10 2 -70 21 -134 40 -101 31 -284 73 -400 91 l-35 6
-13 148 c-15 171 -20 204 -32 196 -5 -3 -6 -82 -2 -175 l6 -170 -29 7 c-44 10
-44 10 -44 100 0 57 -3 83 -10 79 -7 -4 -9 -36 -4 -91 l7 -84 -152 -2 c-83 -1
-159 -2 -168 -2 -19 -1 -17 -19 -47 386 -7 91 -5 94 107 128 37 11 67 23 67
27 0 13 -193 -39 -215 -58 -14 -13 -6 -176 16 -338 14 -98 17 -147 10 -154 -7
-7 -12 -6 -15 4 -8 24 -25 167 -36 299 -6 69 -13 150 -16 182 l-5 56 33 11
c85 27 472 108 693 145 362 61 674 91 1100 104 22 1 136 -3 254 -8z m590 -372
c1 -59 -3 -98 -9 -98 -6 0 -10 53 -9 143 1 105 4 130 10 97 4 -25 8 -89 8
-142z m-564 -197 c6 -154 2 -281 -10 -269 -2 2 -6 116 -8 253 -5 281 7 292 18
16z m1015 37 c0 -94 -3 -169 -6 -166 -16 16 -14 338 2 338 2 0 4 -77 4 -172z
m-191 -235 c1 -158 -3 -254 -9 -258 -7 -4 -10 97 -9 297 1 186 5 286 10 258 4
-25 8 -158 8 -297z m635 241 c3 -26 6 -79 5 -118 -1 -59 -2 -65 -9 -36 -11 48
-18 200 -10 200 4 0 10 -21 14 -46z m-1385 -357 c-2 -170 -16 -140 -18 36 -1
77 3 116 9 112 6 -4 10 -63 9 -148z m1140 -39 c-1 -90 -3 -104 -10 -68 -13 78
-10 180 7 180 2 0 3 -51 3 -112z m-2899 40 c11 -23 19 -43 17 -44 -1 -2 -23 6
-47 17 -53 24 -60 21 -134 -49 -76 -72 -74 -87 9 -57 73 26 86 14 35 -33 -25
-22 -38 -52 -71 -162 -45 -150 -54 -252 -30 -348 11 -43 11 -58 1 -83 -11 -26
-11 -33 2 -46 14 -13 19 -13 46 1 44 23 115 20 213 -9 46 -13 92 -25 101 -25
25 0 31 -18 18 -49 l-11 -28 -152 -6 c-196 -7 -312 -31 -445 -94 -72 -34 -172
-129 -201 -192 l-24 -50 32 -65 c30 -61 56 -91 126 -144 l30 -22 -30 11 c-87
31 -180 113 -214 189 -27 61 -41 155 -41 277 0 115 -17 215 -59 353 -52 167
-64 223 -65 305 -1 96 13 141 60 189 103 106 440 199 741 205 l73 1 20 -42z
m195 19 c76 -11 80 -13 83 -39 3 -25 -22 -88 -34 -88 -15 0 -200 53 -206 59
-4 4 -3 23 3 44 12 43 18 44 154 24z m365 -83 c249 -72 431 -150 970 -414 473
-233 552 -267 725 -314 112 -31 121 -35 134 -64 18 -39 24 -40 40 -6 9 20 17
25 33 21 12 -4 77 -14 143 -23 135 -19 154 -30 135 -80 -7 -18 -7 -38 1 -65
15 -49 1 -69 -50 -70 -75 -2 -76 -3 -77 -109 -2 -108 -29 -275 -49 -305 -12
-18 -9 -24 25 -60 35 -37 113 -169 105 -177 -7 -7 -184 12 -315 33 -310 49
-612 148 -942 309 -102 49 -108 54 -108 83 0 29 -1 29 -18 14 -26 -24 -36 -22
-140 32 l-94 47 -3 47 c-2 31 4 60 16 84 20 40 25 73 10 73 -5 0 -12 -11 -15
-25 -3 -13 -22 -36 -41 -51 -23 -17 -35 -35 -35 -51 0 -35 -22 -38 -76 -10
-165 82 -479 181 -660 208 l-82 12 -5 34 c-4 19 -2 42 2 51 32 63 72 173 66
181 -10 18 -33 12 -40 -9 -4 -11 -17 -27 -29 -35 -20 -13 -30 -13 -94 5 -39
11 -99 20 -133 20 l-60 0 6 58 c20 176 37 218 88 208 18 -4 64 -9 103 -12 l71
-6 42 37 c23 21 41 46 41 58 0 16 -3 18 -12 9 -16 -16 -51 -15 -120 4 -45 13
-67 14 -98 6 -37 -9 -40 -8 -40 10 0 37 32 129 47 135 22 8 214 -27 242 -44
18 -12 22 -12 19 -1 -3 8 15 26 44 45 l50 32 -43 11 -42 12 41 38 c23 21 42
43 42 50 0 14 24 10 180 -36z m4215 15 c22 -6 96 -38 165 -72 l125 -61 95 0
c84 -1 101 2 146 26 28 15 65 39 83 53 17 15 31 24 31 20 0 -18 -47 -93 -83
-133 -50 -54 -106 -81 -165 -82 -66 0 -48 -20 54 -59 76 -30 102 -35 176 -35
49 -1 88 -2 88 -3 0 -12 -86 -79 -130 -100 -46 -23 -67 -28 -130 -27 -142 2
-199 32 -201 107 l-1 42 -10 -35 c-22 -79 -20 -77 -101 -82 -54 -3 -85 -11
-111 -27 -20 -13 -36 -18 -36 -13 0 12 42 40 88 58 l37 14 -59 -4 c-68 -6 -65
5 10 34 l49 19 -52 1 c-62 0 -70 17 -13 26 57 9 60 24 6 24 -46 0 -61 12 -30
24 9 3 30 6 47 6 24 0 28 3 17 10 -8 5 -34 10 -57 10 -23 0 -44 4 -47 9 -7 11
77 23 101 14 14 -5 16 -3 6 7 -7 7 -44 15 -87 18 -97 6 -88 22 12 23 52 0 70
3 56 9 -39 15 -129 21 -174 11 -57 -13 -64 -6 -14 15 29 12 59 15 119 12 77
-5 79 -4 45 10 -56 23 -166 20 -224 -6 -47 -21 -49 -21 -32 -3 35 38 99 54
189 48 63 -4 77 -3 62 6 -11 6 -60 13 -110 15 -80 3 -95 1 -138 -21 -43 -22
-46 -23 -30 -5 45 51 156 72 246 47 59 -16 56 -3 -4 16 -70 24 -176 22 -228
-4 -43 -20 -53 -18 -23 6 52 42 151 55 237 32z m-995 -21 c0 -10 -16 -12 -57
-9 -53 4 -55 5 -23 12 57 11 80 10 80 -3z m407 -3 c28 -8 56 -21 62 -29 10
-12 6 -12 -26 0 -21 7 -63 13 -93 13 l-55 -1 50 -12 c51 -13 129 -46 122 -52
-2 -2 -19 1 -38 6 -18 6 -59 10 -89 9 l-55 -1 58 -14 c53 -13 117 -39 117 -49
0 -2 -15 1 -32 6 -18 5 -58 9 -88 8 l-55 0 63 -18 c34 -10 66 -21 69 -25 3 -3
-27 -6 -68 -7 -66 -1 -70 -2 -40 -11 l35 -10 -41 -18 c-77 -34 -87 -87 -69
-360 l9 -125 -82 0 c-44 0 -81 3 -81 6 0 9 39 19 73 19 15 0 27 5 27 10 0 6
-20 10 -45 10 -25 0 -45 4 -45 9 0 10 34 21 68 21 13 0 20 4 17 10 -3 6 -22
10 -41 10 -47 0 -43 15 9 27 l42 10 -43 8 c-48 9 -45 18 8 33 24 7 28 10 13
11 -28 1 -53 11 -53 21 0 4 15 11 33 15 l32 7 -40 13 c-33 11 -37 14 -20 20
61 21 61 22 17 29 -44 8 -49 26 -7 26 13 0 27 5 30 10 3 6 -4 10 -17 10 -36 0
-68 11 -62 21 3 5 21 9 40 9 19 0 34 5 34 10 0 6 -11 10 -24 10 -38 0 -86 12
-86 21 0 5 23 9 50 9 28 0 50 5 50 10 0 6 -19 10 -42 10 -24 0 -61 3 -83 7
-31 5 -35 8 -20 14 11 4 47 8 80 9 83 2 43 18 -50 20 -38 1 -88 5 -110 9 -32
6 -15 9 90 16 108 7 122 10 85 16 -25 4 -84 8 -132 8 -52 1 -88 5 -88 11 0 6
22 10 48 10 27 0 85 3 128 7 l79 7 -50 7 c-27 4 -83 8 -122 8 -46 1 -73 5 -73
12 0 7 29 10 90 7 50 -1 90 0 90 5 0 4 15 8 33 9 l32 1 -32 4 c-18 2 -33 10
-33 17 0 7 15 18 33 24 32 10 32 10 5 11 -18 1 -28 7 -28 16 0 22 264 22 337
0z m-382 -46 c10 -15 8 -15 -73 -11 -40 2 -70 8 -66 13 7 13 131 11 139 -2z
m-1726 -224 c6 -93 11 -205 11 -249 0 -70 -2 -77 -17 -71 -10 4 -26 10 -35 12
-10 3 -18 8 -18 12 0 3 5 38 10 78 5 39 10 116 10 170 1 135 11 249 20 232 4
-8 12 -90 19 -184z m2608 54 c66 -41 73 -82 37 -252 -9 -44 -14 -132 -14 -248
0 -210 -3 -221 -82 -264 -53 -30 -53 -30 -223 -30 -166 0 -171 1 -228 28 -90
45 -99 70 -108 292 -4 99 -10 226 -15 282 -6 88 -5 106 10 128 19 29 72 65 96
65 8 0 2 -8 -15 -18 -44 -28 -57 -47 -53 -84 3 -31 8 -35 68 -57 58 -22 81
-25 210 -25 122 0 158 3 225 22 44 13 88 30 97 39 37 34 16 91 -48 130 -12 8
-14 12 -5 12 7 1 29 -8 48 -20z m-940 -84 c24 -20 50 -56 63 -87 42 -97 22
-201 -98 -509 -41 -104 -72 -244 -72 -320 0 -201 -132 -349 -365 -409 -85 -22
-236 -40 -332 -40 l-67 0 59 60 59 59 -26 10 c-14 5 -30 16 -35 23 -4 7 -8
107 -8 222 l0 210 -75 42 c-74 42 -75 43 -72 81 2 27 11 46 33 66 24 22 29 34
25 52 l-6 24 152 -1 c275 0 445 37 651 144 84 44 106 68 131 141 32 95 12 195
-48 242 -17 14 -26 25 -20 25 6 0 29 -16 51 -35z m-648 -205 c-5 -25 -23 -91
-41 -147 -25 -81 -35 -103 -50 -103 -17 0 -16 4 5 53 20 43 39 99 83 236 10
31 12 3 3 -39z m-444 -114 c6 -98 5 -118 -6 -114 -11 4 -15 34 -17 129 -3 158
13 148 23 -15z m-115 -36 c0 -33 -4 -60 -10 -60 -11 0 -14 103 -3 113 12 12
13 8 13 -53z m-3720 10 c85 -14 166 -54 191 -94 16 -27 19 -51 19 -186 0 -85
5 -217 12 -293 10 -120 10 -142 -3 -165 -16 -30 -74 -72 -98 -72 -10 0 -4 7
14 18 43 27 57 47 53 78 -10 84 -288 121 -496 66 -95 -26 -122 -44 -122 -83 0
-30 20 -57 70 -92 24 -17 24 -17 -15 -2 -53 21 -83 51 -91 92 -4 19 3 85 15
153 17 96 21 153 20 290 -2 157 -1 173 18 198 57 77 243 118 413 92z m1194
-385 c24 -60 47 -119 51 -130 5 -14 5 -17 -3 -10 -12 12 -132 238 -132 249 0
4 9 6 21 4 16 -2 30 -26 63 -113z m-144 -20 c23 -55 47 -104 53 -110 7 -7 8
-5 5 5 -22 65 -59 193 -55 196 2 2 28 -58 58 -134 193 -490 533 -1039 916
-1479 112 -129 383 -401 503 -506 l64 -56 9 -193 c5 -106 12 -200 15 -208 3
-8 12 79 19 195 8 115 18 212 22 215 5 3 70 61 146 130 318 289 653 689 885
1054 47 74 91 143 97 153 19 28 -34 -95 -57 -132 -11 -18 -20 -38 -20 -46 0
-7 38 46 85 117 46 71 85 125 85 119 0 -5 -27 -61 -60 -124 -33 -63 -58 -116
-57 -118 2 -1 42 54 90 124 48 70 87 124 87 119 0 -7 -29 -62 -102 -193 -49
-88 -18 -59 62 57 41 60 76 107 78 105 5 -5 -104 -184 -211 -345 -134 -201
-232 -329 -424 -556 -98 -115 -136 -146 -195 -156 -12 -2 0 -21 46 -72 l62
-68 131 148 c299 339 502 624 737 1037 15 26 33 47 41 47 8 0 15 -4 15 -8 0
-16 -165 -291 -267 -446 -173 -260 -383 -527 -575 -731 l-84 -89 -45 44 c-24
25 -61 71 -83 103 -21 32 -40 57 -41 55 -4 -4 1 -28 40 -194 l26 -111 -73 -70
c-153 -148 -434 -383 -457 -383 -14 0 -108 75 -271 214 -141 121 -462 443
-589 591 -272 317 -533 702 -724 1065 -138 263 -307 664 -288 683 6 6 12 9 15
6 2 -2 24 -56 49 -119 341 -875 910 -1661 1649 -2279 53 -45 99 -81 102 -81 8
0 6 84 -2 138 -6 37 -15 49 -68 90 -113 87 -224 194 -224 214 0 12 17 37 38
56 l37 35 -30 -7 c-37 -9 -95 -46 -129 -83 -28 -30 -33 -22 -11 17 8 14 14 31
15 37 0 7 -49 61 -108 120 -245 244 -538 627 -752 982 -34 57 -105 185 -158
284 -109 205 -110 214 -32 253 l45 23 -37 1 c-43 0 -140 -34 -158 -55 -7 -8
-17 -15 -22 -15 -5 0 2 13 15 30 43 51 42 61 -16 203 -30 72 -58 142 -62 155
-14 47 7 18 60 -85 59 -116 61 -111 9 37 -18 52 -31 96 -29 98 4 4 63 -120 93
-192 30 -76 22 -18 -13 90 -19 60 -35 111 -35 114 0 17 24 -30 60 -115z m-710
63 c0 -5 -7 -8 -15 -8 -8 0 -15 -4 -15 -10 0 -5 6 -10 14 -10 24 0 30 -21 7
-27 -24 -6 -29 -23 -7 -23 26 0 28 -20 4 -29 l-23 -9 28 -11 c28 -11 29 -31 1
-31 -23 0 -16 -18 9 -22 28 -4 25 -21 -5 -29 -21 -6 -21 -7 10 -14 39 -9 41
-20 5 -33 l-28 -9 37 -7 c53 -10 55 -22 5 -31 l-42 -8 58 -10 c62 -11 77 -27
25 -27 -69 0 -61 -18 11 -25 86 -9 94 -25 12 -25 -101 0 -77 -17 34 -25 123
-8 150 -25 41 -25 -41 0 -78 -4 -81 -10 -4 -6 34 -10 107 -10 62 0 130 -3 151
-6 76 -13 33 -24 -95 -25 -82 -1 -123 -4 -108 -9 14 -4 73 -8 131 -9 58 -1
142 -4 185 -8 l79 -8 -55 -6 c-30 -4 -102 -8 -160 -8 -58 -1 -112 -6 -120 -11
-11 -7 3 -10 46 -10 33 0 117 -3 185 -7 l124 -8 -90 -6 c-49 -4 -126 -8 -170
-9 -127 -3 -51 -18 105 -20 138 -2 240 -17 129 -19 -31 -1 -105 -4 -165 -8
l-109 -8 70 -6 c39 -4 104 -7 146 -8 87 -1 139 -10 139 -22 0 -5 -116 -9 -259
-9 l-258 0 -17 59 c-10 35 -14 72 -10 88 5 21 4 25 -5 17 -7 -6 -16 -37 -20
-68 -5 -37 -15 -64 -30 -80 -21 -22 -29 -24 -101 -21 -99 4 -177 20 -219 46
-42 26 -36 32 14 15 54 -18 159 -31 151 -18 -3 5 -25 13 -48 16 -24 4 -63 18
-88 32 -25 13 -35 22 -23 19 27 -7 134 -25 151 -25 6 0 12 5 12 10 0 6 -11 10
-25 10 -24 0 -139 39 -133 45 2 2 32 0 68 -4 36 -5 74 -5 85 0 18 7 18 8 -4 8
-36 1 -101 23 -101 34 0 6 21 7 53 4 28 -4 59 -2 67 3 12 7 8 10 -15 11 l-30
1 32 14 c74 32 89 100 68 318 -8 87 -13 161 -11 165 6 9 86 8 86 -1z m1522
-48 c15 0 3 -349 -12 -364 -7 -7 -10 32 -11 129 0 77 -4 164 -8 193 -6 43 -5
52 7 47 7 -3 18 -5 24 -5z m2104 -46 l34 -26 0 -87 c-1 -84 -22 -266 -32 -276
-3 -3 -12 5 -20 17 -9 13 -26 34 -38 48 -19 21 -21 32 -16 75 3 28 9 91 12
140 6 98 11 135 20 135 3 0 21 -12 40 -26z m-2398 -184 c0 -142 -6 -125 -11
34 -2 66 0 111 4 100 4 -10 7 -71 7 -134z m-2103 25 c-22 -14 -45 -25 -52 -25
-6 0 -15 -5 -19 -11 -6 -11 26 -7 80 8 12 3 17 1 14 -8 -2 -7 -27 -21 -54 -31
l-49 -17 53 -1 c28 0 52 -4 52 -9 0 -5 -24 -15 -52 -22 l-53 -13 54 -9 c58
-10 54 -27 -7 -27 -50 0 -30 -16 30 -25 41 -5 49 -9 33 -15 -11 -5 -36 -9 -55
-10 -52 -2 -8 -18 52 -19 26 -1 49 -5 52 -10 8 -12 -43 -20 -94 -15 -40 5 -43
4 -25 -8 13 -8 54 -13 112 -13 52 0 88 -4 83 -9 -16 -16 -98 -25 -149 -17 -68
11 -55 -5 16 -19 63 -13 141 -7 184 16 34 17 43 18 33 3 -24 -39 -154 -62
-246 -45 -23 5 -28 4 -18 -3 26 -16 136 -32 182 -25 23 3 63 17 88 31 l45 24
-24 -25 c-39 -42 -99 -59 -183 -53 -40 3 -84 8 -98 12 l-25 6 25 -15 c14 -8
56 -20 94 -27 81 -13 158 -1 200 32 39 31 31 6 -9 -29 -41 -37 -83 -46 -176
-40 -59 5 -88 15 -211 74 -142 69 -143 69 -228 69 -96 0 -165 -25 -233 -85
-20 -17 -37 -30 -37 -27 0 3 15 32 34 64 63 107 141 163 226 163 22 0 40 4 40
9 0 11 -76 43 -167 71 -50 15 -91 21 -133 18 -33 -1 -60 0 -60 4 0 14 123 98
159 109 21 6 74 10 119 8 69 -4 84 -8 107 -29 21 -20 25 -31 21 -55 -3 -16 -1
-37 4 -45 8 -12 10 -11 10 7 0 12 5 25 11 29 6 4 9 20 6 38 l-5 31 92 -3 c73
-2 99 2 131 17 56 27 67 25 20 -4z m2705 -334 c-6 -11 -9 19 -8 84 l1 100 8
-84 c5 -50 4 -91 -1 -100z m495 -56 c9 -121 20 -99 30 65 4 61 11 112 15 115
3 2 13 -67 20 -153 15 -174 23 -170 36 21 3 59 10 107 14 107 4 0 10 -51 14
-112 12 -192 21 -203 36 -45 8 75 17 137 20 137 8 0 30 -179 30 -240 0 -78 18
-38 25 54 12 163 21 173 28 36 7 -145 26 -280 38 -280 5 0 9 62 10 138 0 126
6 223 13 230 2 1 9 -56 16 -127 7 -72 16 -128 20 -126 4 3 11 54 15 115 3 60
10 112 14 114 4 3 14 -52 21 -121 15 -142 24 -140 35 6 4 50 11 91 16 91 5 0
9 -12 9 -27 0 -16 5 -66 12 -113 13 -97 21 -85 33 49 4 44 11 79 15 76 4 -3
11 -38 15 -80 4 -41 10 -87 14 -102 l8 -28 6 35 c3 19 9 63 13 98 7 65 24 85
24 30 1 -18 7 -62 14 -98 l12 -65 14 88 c7 48 16 87 20 87 4 0 11 -27 14 -61
4 -33 11 -70 15 -82 9 -23 9 -21 26 91 9 56 21 53 29 -8 13 -94 22 -101 36
-27 14 74 25 79 35 14 11 -65 18 -66 36 -7 10 34 19 49 22 40 4 -8 12 -28 18
-45 l11 -30 13 35 c14 42 25 43 44 4 l14 -29 10 28 c8 25 27 38 27 18 0 -24
-306 -463 -393 -564 -27 -32 -47 -60 -45 -63 10 -9 140 140 241 276 143 193
140 187 186 273 36 64 47 77 68 77 l25 0 -23 -37 c-140 -233 -346 -524 -495
-701 -200 -238 -578 -612 -625 -620 -13 -2 -52 29 -127 105 -104 104 -335 362
-352 393 -4 9 89 -81 208 -200 120 -118 229 -221 244 -229 24 -12 30 -12 52 3
28 18 436 456 436 468 0 4 -98 -73 -217 -172 -120 -99 -221 -180 -225 -180 -5
0 -7 332 -7 738 1 689 5 769 24 517z m-158 113 c-3 -7 -5 -2 -5 12 0 14 2 19
5 13 2 -7 2 -19 0 -25z m-488 -198 c0 -74 -4 -155 -8 -180 -6 -29 -9 34 -9
175 0 141 3 206 9 180 4 -22 8 -101 8 -175z m1986 118 c9 -24 19 -49 22 -55 4
-9 -9 -13 -45 -13 -46 0 -50 2 -56 26 -6 21 -1 33 20 55 15 16 31 29 35 29 4
0 15 -19 24 -42z m-2309 -340 c295 -448 295 -448 291 -448 -10 0 -172 207
-240 306 -96 141 -330 540 -295 504 9 -8 118 -171 244 -362z m688 -208 c3
-153 2 -199 -4 -145 -12 119 -21 459 -10 410 5 -22 11 -141 14 -265z m-121
-125 c3 -89 2 -122 -3 -90 -8 50 -13 242 -6 234 2 -2 6 -67 9 -144z m-969 -7
c-4 -7 -31 -47 -59 -88 -86 -125 -80 -123 42 14 24 26 43 45 43 41 0 -4 -24
-42 -53 -84 -78 -111 -77 -115 8 -26 l77 80 -61 -91 c-34 -50 -61 -94 -61 -98
0 -5 21 16 48 45 106 120 113 124 49 29 -102 -152 -102 -157 4 -35 40 46 75
83 77 81 2 -2 -23 -41 -55 -87 -83 -119 -84 -123 -3 -39 l72 75 -49 -63 c-269
-351 -315 -423 -359 -567 -15 -47 -48 -98 -156 -240 -75 -99 -135 -181 -134
-182 6 -6 532 240 548 256 9 9 100 131 203 271 170 233 205 274 205 245 0 -9
-325 -457 -383 -528 -15 -19 -110 -68 -316 -163 -161 -74 -295 -133 -298 -130
-3 3 19 150 48 327 l54 321 199 251 c109 139 223 285 254 325 49 64 76 94 56
60z m2917 -293 c116 -148 225 -287 241 -307 27 -35 33 -59 83 -360 30 -177 52
-324 50 -326 -2 -2 -138 58 -302 133 l-299 137 -129 177 c-71 97 -165 225
-209 284 -50 69 -75 112 -69 118 6 6 84 -93 214 -270 l204 -279 261 -121 c143
-66 268 -123 278 -127 9 -4 -48 78 -127 182 -110 145 -147 201 -157 239 -34
127 -85 214 -253 430 -174 225 -175 227 -87 135 l81 -85 -66 99 c-36 54 -65
100 -63 101 2 2 34 -32 72 -76 38 -44 71 -77 73 -75 2 2 -22 41 -54 87 -33 46
-62 91 -67 99 -8 15 1 6 101 -104 29 -33 53 -56 53 -53 0 4 -30 51 -66 105
l-66 97 82 -85 82 -85 -66 97 c-36 54 -66 100 -66 104 0 4 19 -15 43 -42 64
-74 121 -132 106 -107 -8 13 -38 58 -68 100 -84 121 -41 70 190 -222z m-180
-270 c222 -291 230 -303 208 -290 -121 71 -207 158 -372 375 -77 102 -144 190
-148 195 -4 6 3 25 17 43 l25 32 33 -43 c17 -23 124 -163 237 -312z m-2500
292 c9 -16 -12 -48 -135 -212 -80 -106 -174 -218 -208 -249 -61 -56 -166 -131
-173 -124 -1 1 56 80 129 174 72 95 180 235 239 313 114 150 119 153 148 98z"/>
<path d="M5393 9377 c-50 -55 -91 -156 -108 -264 -11 -70 9 -49 23 25 13 69
55 170 93 223 26 37 20 48 -8 16z"/>
<path d="M6455 9388 c-34 -12 -55 -27 -55 -39 0 -7 46 8 125 41 31 13 -32 11
-70 -2z"/>
<path d="M6228 9265 c47 -41 68 -75 81 -132 l9 -38 1 32 c2 63 -40 128 -104
160 -25 13 -23 9 13 -22z"/>
<path d="M6398 9277 c11 -12 25 -33 31 -47 l10 -25 0 25 c1 32 -25 70 -46 70
-14 0 -13 -4 5 -23z"/>
<path d="M6544 9285 c-18 -14 -16 -15 21 -9 22 4 51 11 65 15 20 6 16 7 -21 8
-26 1 -53 -5 -65 -14z"/>
<path d="M5222 9213 c-31 -60 -56 -203 -33 -189 4 3 11 27 14 54 3 27 15 75
26 108 23 69 20 81 -7 27z"/>
<path d="M6470 9244 c0 -6 3 -14 8 -18 4 -4 12 -22 19 -39 11 -31 11 -31 12
-6 1 15 -8 37 -19 50 -10 13 -19 19 -20 13z"/>
<path d="M6095 9179 c48 -44 85 -110 85 -152 0 -14 5 -29 10 -32 14 -8 13 29
-2 79 -13 41 -103 146 -126 146 -6 0 8 -18 33 -41z"/>
<path d="M6441 9098 c30 -93 28 -181 -5 -253 -14 -31 -20 -52 -12 -46 56 47
82 250 41 320 -34 58 -45 48 -24 -21z"/>
<path d="M5980 9145 c0 -4 20 -27 45 -52 25 -25 54 -62 64 -82 40 -78 36 -169
-10 -217 -12 -13 -19 -27 -16 -30 4 -4 22 9 41 29 50 53 66 129 41 194 -10 27
-36 65 -60 88 -41 40 -105 82 -105 70z"/>
<path d="M5913 9106 c73 -69 95 -157 57 -231 -24 -48 -25 -51 -3 -34 39 33 57
143 32 192 -18 34 -61 77 -94 94 -29 14 -28 13 8 -21z"/>
<path d="M6566 9039 c32 -162 -32 -308 -169 -388 -62 -36 -37 -41 31 -7 110
56 176 162 176 281 0 70 -16 139 -36 151 -7 4 -7 -8 -2 -37z"/>
<path d="M6036 9009 c4 -13 7 -45 7 -71 -1 -80 -47 -135 -160 -192 -59 -29
-67 -39 -25 -30 110 23 182 86 201 176 12 52 1 121 -20 134 -8 4 -9 -1 -3 -17z"/>
<path d="M5731 9001 c45 -14 68 -31 84 -61 22 -42 19 -82 -10 -125 -32 -46
-26 -56 8 -15 35 40 43 87 23 133 -17 41 -68 77 -106 76 l-25 -1 26 -7z"/>
<path d="M6675 8907 c0 -70 -4 -91 -27 -135 -30 -58 -25 -70 8 -19 33 49 47
104 42 163 -8 89 -23 82 -23 -9z"/>
<path d="M6340 8945 c0 -48 -36 -128 -79 -177 -44 -51 -39 -59 9 -13 46 45 65
82 81 155 8 38 8 55 0 63 -8 8 -11 0 -11 -28z"/>
<path d="M6465 8790 c-44 -63 -158 -130 -221 -130 -13 0 -24 -5 -24 -11 0 -17
73 -3 123 23 60 30 113 74 138 114 30 49 18 53 -16 4z"/>
<path d="M6706 8739 c-13 -37 -35 -69 -75 -108 -36 -36 -46 -49 -26 -37 71 44
130 129 123 177 -2 15 -8 5 -22 -32z"/>
<path d="M6611 8560 c-19 -11 -55 -22 -80 -26 -80 -10 -119 -24 -151 -50 -16
-14 -30 -33 -30 -42 0 -13 4 -11 16 6 22 32 65 51 150 67 74 15 127 35 139 55
9 15 -6 11 -44 -10z"/>
<path d="M6741 8491 c-6 -22 -25 -51 -42 -65 -31 -27 -114 -56 -158 -56 -14 0
-33 -5 -41 -10 -24 -15 20 -13 103 6 61 14 79 23 115 59 31 32 42 50 42 74 0
41 -4 39 -19 -8z"/>
<path d="M6663 8448 c-20 -12 -69 -24 -130 -32 -129 -17 -166 -37 -218 -119
-28 -44 -11 -42 18 2 40 60 96 88 201 101 85 10 166 40 166 60 0 12 2 13 -37
-12z"/>
<path d="M6614 8345 c-10 -8 -57 -26 -104 -41 -65 -20 -93 -35 -122 -64 -21
-21 -38 -46 -37 -56 0 -18 1 -18 12 1 31 50 65 73 148 98 54 17 94 36 109 52
26 28 24 33 -6 10z"/>
<path d="M6658 8295 c-15 -13 -55 -34 -89 -46 -111 -41 -208 -155 -224 -264
-6 -45 2 -33 29 46 25 69 101 143 189 184 39 18 85 47 101 64 36 38 31 48 -6
16z"/>
<path d="M5220 8486 l0 -63 53 -6 c137 -14 314 -99 426 -203 75 -69 82 -58 9
13 -77 74 -179 143 -296 202 -56 28 -120 67 -141 86 -21 19 -41 35 -45 35 -3
0 -6 -29 -6 -64z"/>
<path d="M4640 8399 c-89 -49 -195 -132 -239 -188 -40 -51 -27 -54 20 -5 18
20 61 54 94 76 l60 41 -37 -40 c-51 -52 -48 -62 5 -20 52 42 127 90 133 84 2
-2 -14 -16 -36 -31 -59 -39 -49 -51 13 -16 30 16 59 30 65 30 6 0 35 -38 63
-85 29 -47 54 -84 56 -82 2 2 -17 64 -42 138 -33 101 -49 135 -62 137 -10 1
-52 -16 -93 -39z"/>
<path d="M4784 8161 c3 -5 0 -14 -8 -20 -11 -9 -18 -8 -31 5 -16 17 -17 17
-13 -2 5 -29 62 -27 66 4 2 12 -2 22 -8 22 -6 0 -9 -4 -6 -9z"/>
<path d="M4924 7912 c-10 -15 -13 -15 -29 -2 -15 13 -17 13 -14 1 10 -28 37
-37 56 -18 11 11 14 20 7 27 -6 6 -13 3 -20 -8z"/>
<path d="M4320 7890 c27 -9 375 -112 528 -155 51 -15 96 -25 98 -22 9 9 -295
105 -463 147 -149 37 -224 51 -163 30z"/>
<path d="M4243 7838 c-25 -33 -84 -149 -79 -157 3 -4 103 -16 222 -26 l216
-19 19 25 c28 37 43 68 36 75 -5 6 -383 113 -398 114 -4 0 -11 -6 -16 -12z
m367 -147 c-17 -32 -25 -33 -143 -21 -193 20 -236 30 -107 24 63 -4 138 -10
165 -14 43 -7 53 -6 70 11 25 24 28 24 15 0z"/>
<path d="M1895 7604 c-78 -43 -124 -115 -125 -197 0 -144 133 -249 271 -213
182 48 225 282 71 390 -37 26 -54 31 -115 33 -52 3 -80 -1 -102 -13z m174 -51
c14 -11 27 -28 29 -37 3 -13 -6 -16 -48 -16 -97 0 -148 -39 -170 -131 -14 -57
-27 -59 -53 -8 -65 126 126 278 242 192z m91 -198 c-29 -88 -124 -147 -198
-125 -26 8 -26 8 8 9 75 3 162 67 176 129 3 15 8 34 11 42 12 31 15 -20 3 -55z"/>
<path d="M4298 7553 c21 -8 14 -36 -8 -30 -24 6 -27 -11 -4 -20 20 -8 49 21
41 41 -4 9 -14 16 -24 15 -11 0 -13 -3 -5 -6z"/>
<path d="M4619 7536 c11 -13 11 -20 3 -28 -9 -9 -16 -7 -27 8 -15 18 -16 18
-13 0 5 -31 35 -44 55 -23 19 19 10 46 -18 56 -12 4 -12 2 0 -13z"/>
<path d="M4889 7516 c11 -13 12 -19 2 -29 -10 -9 -16 -8 -27 8 -15 19 -15 19
-12 -5 4 -30 38 -39 58 -15 15 18 5 45 -21 54 -12 4 -12 2 0 -13z"/>
<path d="M4360 7510 c8 -5 56 -9 105 -9 59 0 83 3 70 9 -29 12 -194 12 -175 0z"/>
<path d="M5139 7507 c6 -8 8 -17 4 -20 -12 -13 -32 -7 -36 11 -4 13 -5 13 -6
-4 -2 -33 21 -47 47 -28 18 12 20 19 12 35 -6 10 -16 19 -22 19 -7 0 -7 -4 1
-13z"/>
<path d="M4675 7490 c-4 -6 23 -10 74 -10 47 0 81 4 81 10 0 6 -31 10 -74 10
-41 0 -78 -4 -81 -10z"/>
<path d="M4950 7490 c-11 -7 1 -10 44 -10 33 0 57 2 54 5 -11 11 -84 15 -98 5z"/>
<path d="M5188 7493 c7 -3 16 -2 19 1 4 3 -2 6 -13 5 -11 0 -14 -3 -6 -6z"/>
<path d="M5288 7445 c5 -27 -15 -35 -24 -10 -4 8 -10 12 -15 9 -13 -7 9 -44
26 -44 26 0 46 29 35 51 -15 27 -28 24 -22 -6z"/>
<path d="M4145 7030 c-3 -5 1 -10 10 -10 9 0 13 5 10 10 -3 6 -8 10 -10 10 -2
0 -7 -4 -10 -10z"/>
<path d="M4170 6976 c0 -10 9 -16 21 -16 24 0 21 23 -4 28 -10 2 -17 -3 -17
-12z"/>
<path d="M8085 7604 c-166 -91 -167 -310 -1 -396 86 -44 210 -14 267 65 76
105 55 238 -49 311 -37 26 -54 31 -115 33 -52 3 -80 -1 -102 -13z m152 -35
c62 -23 113 -93 113 -154 0 -40 -26 -98 -41 -93 -6 2 -20 32 -32 68 -29 84
-55 103 -147 108 -39 2 -70 8 -70 13 0 12 41 49 65 59 28 12 79 12 112 -1z
m-181 -261 c36 -38 97 -67 144 -69 34 -1 34 -1 8 -9 -35 -10 -103 5 -140 31
-37 27 -68 89 -67 136 l0 38 13 -48 c7 -26 26 -62 42 -79z"/>
<path d="M5195 6249 c-38 -11 -74 -25 -80 -31 -7 -8 -4 -9 10 -4 11 4 53 10
93 13 39 3 72 7 72 9 0 10 -13 34 -19 33 -3 0 -37 -9 -76 -20z"/>
<path d="M5240 6201 c0 -5 5 -11 12 -13 17 -6 0 -28 -23 -28 -13 0 -19 7 -19
21 0 11 -4 17 -10 14 -20 -12 -11 -55 15 -67 46 -21 97 36 63 70 -14 14 -38
16 -38 3z"/>
<path d="M2874 6298 c-61 -16 -75 -55 -89 -253 -8 -119 6 -93 35 63 20 106 27
126 49 143 14 12 34 18 46 15 42 -10 251 -16 225 -6 -52 20 -235 46 -266 38z"/>
<path d="M2887 6225 c-19 -19 -23 -32 -37 -137 -15 -118 -13 -120 133 -138
128 -16 131 -14 148 129 12 101 12 104 -9 121 -12 10 -49 20 -84 24 -35 4 -79
10 -99 13 -25 3 -40 0 -52 -12z m158 -53 c-3 -4 -29 -9 -57 -12 -49 -5 -52 -7
-65 -45 -22 -64 -23 -68 -28 -63 -11 11 18 109 34 121 18 12 129 11 116 -1z"/>
<path d="M3182 6163 c-6 -27 -16 -79 -22 -118 -22 -137 -34 -147 -155 -133
-44 5 -105 7 -135 6 -53 -3 -51 -4 61 -25 65 -13 133 -23 152 -23 47 0 86 34
97 84 11 48 25 256 17 256 -3 0 -10 -21 -15 -47z"/>
<path d="M7105 6279 c-49 -11 -94 -21 -100 -24 -12 -6 209 4 245 11 16 4 34
-1 48 -13 22 -18 30 -47 66 -245 14 -75 21 -36 14 70 -10 147 -15 166 -45 196
-22 22 -34 26 -82 25 -31 -1 -96 -10 -146 -20z"/>
<path d="M7136 6226 c-66 -9 -82 -15 -97 -36 -16 -23 -17 -32 -4 -115 15 -107
21 -122 46 -130 11 -4 62 -1 114 6 130 17 132 20 117 152 -17 143 -20 145
-176 123z m121 -87 c7 -19 12 -47 12 -64 -1 -27 -2 -26 -17 15 -25 66 -29 70
-77 70 -57 0 -68 18 -13 22 62 4 81 -5 95 -43z"/>
<path d="M6964 6168 c3 -18 8 -73 12 -123 3 -49 10 -99 14 -111 15 -39 51 -64
91 -64 41 0 251 38 259 47 3 3 -49 2 -115 -2 -159 -11 -167 -10 -185 12 -8 11
-26 76 -38 146 -13 70 -28 127 -33 127 -6 0 -8 -15 -5 -32z"/>
<path d="M5216 5939 c-22 -5 -41 -11 -43 -12 -1 -2 55 -3 125 -3 90 0 145 -5
191 -18 35 -9 66 -15 69 -12 2 3 -1 8 -9 11 -85 30 -117 37 -199 40 -52 3
-113 0 -134 -6z"/>
<path d="M4911 5845 c-108 -47 -175 -84 -168 -92 3 -2 45 16 93 40 49 24 110
52 137 62 26 10 47 22 47 26 0 12 9 15 -109 -36z"/>
<path d="M6010 5847 c0 -16 -11 -38 -25 -53 -29 -29 -62 -27 -157 11 -70 27
-76 18 -10 -17 112 -61 176 -56 200 15 8 26 9 44 2 55 -8 14 -9 12 -10 -11z"/>
<path d="M4371 5593 c-26 -52 -44 -148 -37 -195 8 -52 -10 -47 -42 10 -13 22
-32 44 -44 47 -11 4 -60 -1 -109 -10 -100 -20 -119 -14 -119 36 0 16 -4 29 -9
29 -13 0 -21 -37 -21 -98 0 -33 -4 -51 -10 -47 -5 3 -10 15 -10 25 0 10 -5 22
-10 25 -11 7 -580 -103 -600 -115 -7 -4 -7 -16 1 -39 6 -17 9 -34 7 -36 -2 -2
-31 8 -64 24 l-59 28 -90 -24 c-49 -13 -91 -25 -93 -27 -1 -2 29 -24 68 -48
l71 -45 137 34 c383 94 827 165 1277 204 294 26 887 12 1197 -27 l48 -7 20 44
c20 44 24 103 11 149 l-7 25 -15 -30 c-24 -51 -56 -59 -178 -46 -294 32 -699
40 -991 21 -85 -6 -189 -12 -230 -13 l-75 -2 1 73 c0 39 -1 72 -3 72 -1 0 -11
-17 -22 -37z"/>
<path d="M6061 5517 c-1 -52 -24 -98 -72 -144 -21 -21 -39 -41 -39 -45 0 -5
15 -8 33 -8 77 0 608 -99 847 -158 l115 -29 68 46 c64 42 67 46 45 54 -94 35
-790 182 -816 172 -36 -14 -151 45 -152 78 -1 7 -7 26 -15 42 l-13 30 -1 -38z"/>
<path d="M4030 5174 c-170 -20 -288 -43 -388 -75 -51 -17 -92 -32 -90 -34 2
-2 40 2 84 10 44 8 143 23 220 34 77 11 178 29 224 41 47 11 99 20 115 20 23
0 27 3 15 10 -18 12 -45 11 -180 -6z"/>
<path d="M4755 4953 c7 -108 10 -121 21 -110 10 9 -8 217 -18 217 -6 0 -7 -39
-3 -107z"/>
<path d="M4081 4940 c0 -58 5 -143 13 -190 8 -47 18 -107 22 -135 4 -27 9 -42
11 -33 3 10 -3 65 -11 123 -9 58 -16 138 -17 178 0 40 -4 92 -8 117 -7 37 -9
26 -10 -60z"/>
<path d="M4234 4740 c1 -206 4 -292 13 -301 19 -19 26 89 19 301 -7 207 -14
290 -25 290 -4 0 -7 -130 -7 -290z"/>
<path d="M3433 4858 c3 -62 10 -124 15 -138 9 -24 10 -24 17 13 9 46 -13 237
-28 237 -6 0 -8 -38 -4 -112z"/>
<path d="M3182 4375 c-179 -46 -278 -92 -340 -159 -23 -24 -44 -57 -48 -71
-12 -47 3 -157 34 -256 39 -124 70 -305 84 -498 9 -118 14 -150 22 -136 24 42
94 110 150 146 64 42 186 93 262 109 88 18 96 21 91 26 -8 8 -207 -15 -267
-31 -30 -8 -56 -12 -58 -10 -7 7 98 56 186 86 l87 29 -70 -6 c-38 -3 -101 -12
-138 -21 -38 -8 -71 -13 -74 -10 -7 8 68 45 157 78 66 25 71 28 40 28 -32 1
-146 -20 -191 -34 -11 -4 -19 -2 -19 3 0 7 46 30 200 101 37 17 -67 3 -148
-19 -38 -11 -61 -13 -59 -7 4 12 122 75 176 94 65 24 25 22 -84 -2 -60 -14
-110 -23 -112 -21 -6 6 56 42 138 81 73 35 73 36 29 29 -25 -3 -76 -15 -115
-25 -38 -10 -71 -16 -73 -15 -4 5 106 72 138 84 14 6 38 15 54 21 16 7 27 14
24 17 -6 5 -158 -29 -201 -45 -15 -6 -27 -7 -27 -3 0 10 93 65 164 96 33 15
57 28 55 31 -6 5 -197 -43 -221 -56 -10 -5 -18 -6 -18 -1 0 15 150 96 234 126
10 3 17 8 14 11 -6 6 -156 -31 -217 -54 -28 -10 -51 -16 -51 -13 0 12 143 91
214 119 38 15 64 29 58 31 -14 4 -210 -47 -245 -64 -53 -28 -39 -7 20 29 80
48 129 71 193 92 30 10 49 20 43 22 -18 6 -159 -26 -232 -53 -35 -14 -66 -23
-67 -21 -7 7 151 91 227 122 127 50 122 56 -19 20z"/>
<path d="M4160 4130 c-14 -4 -35 -5 -46 -3 -17 4 -23 -2 -29 -24 -10 -42 -23
-53 -49 -43 -19 7 -24 3 -38 -36 l-16 -44 30 0 c27 0 30 -3 24 -22 -32 -115
-56 -215 -56 -238 0 -16 -8 -33 -20 -41 -25 -18 -40 -72 -17 -63 18 7 65 -16
91 -45 26 -28 35 -26 79 15 30 28 36 38 28 52 -6 9 -11 13 -11 8 0 -19 -50 38
-50 58 0 41 63 248 77 253 8 3 25 1 38 -5 23 -10 25 -9 35 26 14 51 14 52 -20
52 -35 0 -34 0 -15 63 15 50 13 52 -35 37z"/>
<path d="M4460 3958 c-19 -6 -61 -8 -92 -5 -48 4 -58 2 -58 -10 0 -9 -13 -57
-29 -107 -16 -50 -35 -120 -42 -156 -8 -40 -21 -75 -36 -91 -13 -14 -23 -28
-23 -31 0 -4 26 -18 58 -33 31 -14 73 -41 92 -60 l35 -34 48 45 c26 25 47 52
47 60 0 16 -16 19 -25 4 -10 -16 -105 61 -105 86 0 56 20 83 78 104 158 58
145 49 138 89 -3 20 -8 62 -12 94 -7 62 -10 64 -74 45z m-28 -118 c3 -52 1
-55 -25 -68 -16 -8 -31 -11 -35 -8 -3 4 4 38 17 77 13 39 27 67 31 63 5 -5 10
-34 12 -64z"/>
<path d="M4675 3914 c-52 -19 -58 -26 -46 -57 8 -22 4 -46 -23 -124 -18 -54
-42 -131 -52 -170 -11 -44 -23 -73 -31 -73 -17 0 -17 -1 12 -56 14 -26 25 -56
25 -67 0 -16 6 -14 40 17 22 20 47 36 55 36 17 0 19 12 5 26 -7 7 8 67 45 184
30 95 57 176 60 178 3 3 29 -7 58 -21 58 -30 94 -34 122 -13 18 13 17 15 -16
54 l-34 42 -60 -6 -60 -6 -24 36 c-27 41 -22 40 -76 20z"/>
<path d="M5023 3787 c-34 -12 -36 -17 -26 -56 7 -30 -106 -391 -124 -391 -8 0
-6 -12 7 -42 11 -24 20 -56 20 -71 l0 -29 30 25 c16 14 43 31 60 38 30 14 37
27 21 45 -5 5 15 83 48 188 55 170 59 179 89 192 31 13 33 12 47 -17 15 -28
13 -37 -41 -212 -31 -100 -61 -185 -66 -188 -8 -5 17 -146 28 -158 2 -2 25 16
51 40 33 30 47 51 45 65 -3 24 105 392 120 411 7 9 -2 27 -32 63 l-43 51 -62
-6 -61 -7 -28 36 c-29 39 -35 40 -83 23z"/>
<path d="M5447 3633 c-48 -3 -58 -7 -53 -20 4 -8 -12 -79 -35 -157 -23 -77
-46 -157 -51 -176 -6 -19 -16 -42 -24 -51 -13 -14 -10 -22 20 -68 20 -29 45
-79 57 -111 l22 -60 51 41 51 41 16 -67 c10 -37 19 -68 21 -70 2 -2 32 23 67
56 l65 59 -22 20 c-36 34 -34 57 17 258 22 90 41 176 41 191 0 24 -11 36 -70
75 -39 26 -80 45 -92 44 -13 -1 -49 -3 -81 -5z m118 -185 c-21 -89 -75 -280
-82 -292 -3 -4 -19 16 -35 45 l-29 54 41 155 c23 85 44 161 46 169 4 11 15 5
41 -21 l36 -36 -18 -74z"/>
<path d="M5811 3584 c16 -20 -4 -159 -48 -339 -30 -124 -38 -144 -69 -176 -23
-24 -33 -41 -28 -52 3 -9 10 -17 14 -17 5 0 21 -25 35 -55 15 -30 29 -55 31
-55 7 0 78 47 108 73 20 16 27 29 23 41 -4 10 -11 15 -15 12 -5 -3 -16 11 -25
30 -16 33 -16 39 2 112 32 126 51 233 59 324 l8 86 -53 15 c-45 12 -51 12 -42
1z"/>
<path d="M6056 3470 c29 -24 46 -30 73 -28 36 3 57 28 24 28 -11 0 -28 7 -39
15 -10 8 -36 15 -58 15 l-39 0 39 -30z"/>
<path d="M6028 3395 c-37 -25 -37 -26 -18 -45 11 -11 20 -31 20 -44 0 -27 -44
-252 -60 -306 -18 -61 -12 -130 13 -167 12 -18 25 -33 29 -33 4 0 32 23 63 52
l57 52 -26 19 c-32 23 -33 42 -6 191 11 61 22 128 25 149 3 20 10 37 15 37 14
0 40 30 40 46 0 8 -9 14 -19 14 -11 0 -29 14 -41 30 -26 37 -44 38 -92 5z"/>
<path d="M7715 3938 c10 -42 25 -252 25 -345 0 -102 9 -135 47 -175 26 -27
119 -66 130 -54 3 3 -3 9 -13 12 -27 10 -74 44 -74 54 0 4 19 1 41 -7 55 -18
61 -10 12 16 -45 22 -83 61 -48 47 11 -4 36 -10 55 -12 l35 -5 -39 20 c-77 40
-84 59 -16 41 57 -15 61 -6 7 18 -66 29 -68 42 -5 36 l53 -4 -38 14 c-20 8
-47 22 -60 31 -21 16 -19 17 37 10 62 -7 73 8 13 19 -19 3 -42 13 -53 21 -17
13 -14 14 41 15 l60 1 -54 17 c-75 24 -77 40 -4 34 67 -5 66 4 -3 21 -26 7
-50 18 -52 26 -3 10 2 12 21 7 14 -3 40 -3 59 1 32 7 32 7 -21 17 -76 15 -78
34 -4 38 l58 3 -54 10 c-73 13 -80 35 -12 35 28 0 51 5 51 10 0 6 -17 10 -37
10 -21 1 -63 9 -93 20 -70 25 -71 25 -65 -2z"/>
<path d="M8255 3939 c-27 -10 -63 -18 -80 -19 -16 0 -37 -5 -45 -10 -11 -7 2
-10 43 -10 75 0 73 -21 -4 -35 l-54 -10 58 -3 c72 -4 72 -22 1 -37 -59 -13
-43 -30 18 -20 60 11 45 -15 -23 -37 l-54 -17 58 2 c69 2 70 -11 1 -36 l-49
-17 53 2 c64 4 69 -13 10 -32 -68 -21 -69 -31 -3 -24 71 8 67 -5 -11 -37 l-49
-20 53 6 c29 3 52 2 52 -3 0 -5 -23 -19 -51 -31 -58 -25 -60 -38 -2 -22 47 13
53 13 53 2 0 -5 -24 -21 -52 -36 -50 -25 -51 -26 -18 -21 19 2 43 8 54 12 37
15 10 -20 -32 -41 -22 -11 -41 -23 -42 -27 0 -6 35 2 73 17 20 9 23 -8 3 -24
-8 -7 -31 -20 -52 -31 -59 -29 -10 -25 53 4 76 36 83 55 83 228 0 130 12 285
26 331 7 21 -5 20 -71 -4z"/>
<path d="M7335 3652 c-123 -73 -252 -120 -435 -157 l-115 -24 143 2 c78 1 142
-1 142 -4 0 -8 -100 -36 -214 -60 l-91 -18 147 2 c81 1 144 -1 140 -5 -10 -9
-250 -68 -280 -68 -14 0 -22 -3 -18 -7 7 -7 116 -6 236 2 l65 4 -75 -24 c-41
-14 -115 -34 -165 -44 -49 -11 -85 -20 -80 -21 28 -4 188 2 238 9 110 15 20
-20 -163 -64 l-105 -25 130 5 c72 3 141 7 155 10 18 4 15 0 -10 -11 -47 -22
-183 -61 -243 -70 -27 -3 -45 -10 -40 -14 7 -7 144 1 253 15 30 4 40 2 30 -4
-23 -14 -210 -68 -263 -76 -59 -9 -62 -26 -4 -20 128 14 251 25 254 22 5 -6
-227 -76 -274 -83 -61 -9 -53 -22 10 -17 82 6 216 23 235 30 12 4 14 3 7 -5
-14 -15 -208 -78 -268 -87 -65 -10 -68 -23 -4 -18 74 6 208 22 237 30 17 4 22
2 15 -5 -13 -13 -219 -79 -274 -88 -51 -8 -55 -26 -3 -19 20 2 78 9 127 15
106 13 232 43 275 65 51 26 108 93 129 151 12 30 27 108 36 174 20 165 37 224
106 378 33 73 59 136 57 141 -2 4 -21 -4 -43 -17z"/>
<path d="M2180 3661 c-46 -14 -90 -41 -105 -65 -13 -19 -17 -63 -20 -213 -2
-103 -8 -217 -14 -252 -12 -67 -10 -81 11 -63 20 16 117 42 157 42 27 0 32 3
21 10 -8 5 -34 10 -57 10 -48 0 -58 17 -15 25 82 17 88 23 25 24 -35 1 -63 5
-63 10 0 5 26 16 58 24 l57 15 -57 1 c-32 1 -58 5 -58 10 0 10 54 31 81 31 10
0 21 5 25 11 5 9 -9 10 -50 5 -74 -10 -73 6 2 33 l57 21 -57 -3 c-32 -2 -58 0
-58 4 0 5 23 16 50 26 53 19 68 37 23 28 -16 -4 -38 -8 -50 -11 -34 -7 -28 12
10 28 84 38 85 39 40 33 -23 -3 -48 -8 -57 -11 -9 -3 -16 -1 -16 5 0 7 24 23
53 37 l52 26 -55 -6 c-52 -6 -54 -5 -35 10 11 9 35 23 54 31 43 18 34 27 -15
14 -65 -18 -59 3 11 39 37 20 38 21 10 16 -16 -2 -38 -8 -49 -12 -39 -15 -9
21 40 48 48 27 45 34 -6 19z"/>
<path d="M2460 3652 c19 -11 44 -30 55 -43 20 -22 20 -22 0 -15 -11 4 -33 10
-50 12 -26 5 -24 2 18 -22 46 -27 64 -50 30 -40 -75 22 -99 17 -40 -8 17 -8
41 -21 52 -30 19 -15 17 -16 -35 -10 l-55 6 53 -26 c60 -29 70 -49 16 -35 -41
12 -83 7 -49 -5 92 -34 112 -57 40 -46 -25 4 -48 3 -51 -2 -3 -4 2 -8 10 -8
22 0 96 -31 96 -39 0 -4 -25 -6 -55 -3 -30 2 -55 2 -55 -1 0 -3 25 -13 55 -22
71 -20 74 -40 5 -31 -32 4 -50 3 -50 -4 0 -5 6 -10 13 -10 26 0 87 -21 87 -30
0 -6 -26 -10 -57 -11 -60 -1 -56 -4 30 -23 47 -11 30 -26 -30 -27 -62 0 -53
-12 20 -24 50 -8 47 -25 -5 -25 -68 0 -78 -16 -14 -23 30 -3 75 -14 99 -25 25
-11 47 -18 50 -16 2 2 0 28 -5 57 -5 28 -9 133 -9 232 0 219 -5 236 -89 277
-30 15 -68 30 -85 33 l-30 6 35 -19z"/>
<path d="M5516 1449 c-2 -8 -7 -26 -10 -40 -11 -49 -110 -151 -333 -339 l-41
-35 -4 -82 c-2 -46 -2 -83 -1 -83 8 0 196 158 303 255 122 111 130 120 125
149 -2 17 -9 65 -15 106 -11 77 -16 92 -24 69z"/>
<path d="M5213 2271 c-2 -139 1 -250 6 -247 15 10 22 385 9 445 -12 48 -13 28
-15 -198z"/>
<path d="M5705 2376 c-7 -122 -3 -152 16 -141 12 8 12 265 0 265 -5 0 -12 -56
-16 -124z"/>
<path d="M5528 2193 c-2 -10 -1 -58 3 -108 l6 -90 1 108 c2 102 -1 128 -10 90z"/>
<path d="M5347 1935 c-6 -124 -1 -195 13 -195 4 0 10 18 13 40 7 51 -4 280
-13 280 -4 0 -10 -56 -13 -125z"/>
<path d="M5201 1758 c0 -44 3 -57 9 -43 12 28 12 93 0 100 -6 4 -10 -17 -9
-57z"/>
</g>
</svg>
